<svg width="321" height="320" viewBox="0 0 321 320" fill="none" xmlns="http://www.w3.org/2000/svg">
<path d="M136.881 0.0284215C94.2617 0.781221 28.3214 16.9858 9.34128 58.6287C2.71225 73.1731 3.16105 94.5549 4.05854 137.318C4.32243 149.888 4.7598 168.208 7.83191 190.939C14.2136 238.158 18.558 270.304 35.0001 289.022C76.1991 335.922 225.02 334.567 288.57 250.13C323.237 204.069 328.571 138.546 296.872 84.3946C261.972 24.7745 193.938 -0.979464 136.881 0.0284215Z" fill="#ECFBF5"/>
<path d="M160.151 50.0833C113.474 49.7861 76.5387 102.687 76.5387 168.234C76.5387 233.78 113.474 289.718 160.151 293.258C208.108 296.895 247.959 244.116 247.959 175.28C247.959 106.445 208.108 50.3885 160.151 50.0833ZM164.821 287.111C164.819 287.111 164.819 287.111 164.817 287.111C163.43 287.111 162.021 287.058 160.63 286.952C140.093 285.395 120.729 272.446 106.104 250.492C91.1164 227.994 82.8625 198.78 82.8625 168.234C82.8625 137.835 91.0404 109.44 105.89 88.2778C120.312 67.7249 139.443 56.4059 159.76 56.4059L160.111 56.407C170.679 56.4744 181.01 59.5328 190.817 65.4972C200.514 71.3951 209.28 79.8491 216.869 90.6244C224.588 101.584 230.664 114.341 234.926 128.539C239.378 143.367 241.635 159.093 241.635 175.28C241.635 206.028 233.392 234.578 218.424 255.671C204.038 275.946 185 287.111 164.821 287.111Z" fill="url(#paint0_linear_1135_57848)"/>
<path d="M79.4748 168.234C79.4748 107.296 111.399 57.2874 153.396 50.7954C150.445 50.3439 99.5313 50.1026 96.5085 50.0833C49.8313 49.7861 12.8958 102.687 12.8958 168.234C12.8958 233.78 49.8312 289.718 96.5085 293.258C101.25 293.618 153.836 293.424 158.389 292.719C113.956 285.923 79.4748 231.565 79.4748 168.234Z" fill="url(#paint1_linear_1135_57848)"/>
<path d="M95.0149 49.9365C106.397 53.0164 129.208 60.9057 148.782 81.584C176.948 111.339 175.991 146.031 176.929 161.341C177.692 173.797 184.911 239.171 138.98 272.882C121.063 286.033 102.261 289.895 91.2332 291.224C100.174 291.902 151.21 292.58 160.151 293.258C170.719 291.674 185.907 287.852 200.68 277.625C251.536 242.418 245.03 167.606 243.999 157.471C242.431 142.074 238.285 101.345 204.79 72.7306C188.364 58.6974 170.963 52.775 160.151 50.0833C152.471 50.0344 102.695 49.9854 95.0149 49.9365Z" fill="url(#paint2_linear_1135_57848)"/>
<path d="M93.6 49.8479C47.3914 49.555 10.8235 102.254 10.8235 167.548C10.8235 232.841 47.3913 288.55 93.6 292.06C141.07 295.667 180.513 243.087 180.513 174.531C180.513 105.975 141.07 50.1488 93.6 49.8479ZM98.2059 285.912C98.2024 285.912 98.2021 285.912 98.1984 285.912C96.8319 285.911 95.4458 285.858 94.0791 285.755C73.775 284.212 54.6247 271.33 40.1562 249.481C25.3188 227.075 17.1475 197.977 17.1475 167.548C17.1475 137.266 25.2442 108.978 39.9464 87.8968C54.2144 67.4378 73.1328 56.1705 93.2166 56.1705L93.5598 56.1716C104.002 56.2378 114.212 59.2788 123.906 65.2101C133.498 71.0791 142.168 79.4938 149.677 90.2201C157.316 101.134 163.329 113.837 167.548 127.978C171.955 142.746 174.189 158.409 174.189 174.531C174.189 205.162 166.028 233.604 151.21 254.616C136.98 274.796 118.154 285.912 98.2059 285.912Z" fill="url(#paint3_linear_1135_57848)"/>
<path d="M239.078 88.0646L158.782 87.3521C150.928 87.2824 144.484 93.7229 144.484 101.738V231.89C144.484 239.905 147.619 244.227 158.782 246.34L167.595 246.93C174.328 246.076 251.208 229.41 251.208 222.112V101.385C251.208 94.0879 245.811 88.1242 239.078 88.0646Z" fill="url(#paint4_linear_1135_57848)"/>
<path d="M249.483 88.0637L169.408 87.3521C161.576 87.2825 155.15 93.7138 155.15 101.718V234.133C155.15 242.137 161.576 247.81 169.408 246.817L249.483 236.661C256.197 235.809 261.58 229.219 261.58 221.931V101.367C261.58 94.079 256.197 88.1233 249.483 88.0637Z" fill="url(#paint5_linear_1135_57848)"/>
<path d="M249.483 94.7343L169.408 94.5108C165.511 94.4999 162.322 97.7218 162.322 101.693V233.31C162.322 237.282 165.511 240.128 169.408 239.657L249.483 229.989C252.845 229.583 255.565 226.278 255.565 222.62V101.386C255.565 97.7273 252.845 94.7438 249.483 94.7343Z" fill="#D8E8E2"/>
<g opacity="0.5">
<path d="M199.693 172.57C190.051 144.393 206.496 127.057 197.705 99.4895C196.336 95.1953 194.537 91.2287 192.428 87.5568L169.408 87.3521C161.576 87.2826 155.15 93.7138 155.15 101.718V234.133C155.15 242.137 161.576 247.81 169.408 246.817L245.623 237.15C243.019 228.386 239.536 221.475 235.881 215.946C222.373 195.505 207.511 195.421 199.693 172.57Z" fill="white"/>
</g>
<path d="M247.959 100.578V167.11L168.026 171.093V100.578H247.959Z" fill="white"/>
<path d="M187.335 233.58C188.383 233.58 249.472 227.11 249.472 227.11V179.472L187.335 184.708V233.58Z" fill="white"/>
<path d="M310.615 51.3047V103.095C310.615 108.314 308.473 112.986 305.025 116.378C301.65 119.697 297.019 121.698 291.912 121.698H228.925C218.599 121.698 210.419 113.421 210.419 103.095V51.3047C210.419 45.062 213.383 39.4826 218.082 36.0875C221.158 33.8638 224.841 32.5039 228.925 32.5039H291.912C302.238 32.5039 310.615 40.9788 310.615 51.3047Z" fill="url(#paint6_linear_1135_57848)"/>
<path d="M267.227 110.293L235.51 142.055C234.818 142.747 233.711 142.955 232.803 142.579C231.899 142.207 231.244 141.323 231.244 140.343V107.394L267.227 110.293Z" fill="url(#paint7_linear_1135_57848)"/>
<path d="M278.499 77.2521L267.633 46.2559H253.132L245.477 68.2378L233.388 102.837H246.165L250.224 88.6919H270.616L274.672 102.837H287.453L278.499 77.2521ZM253.208 79.2617C254.303 75.7253 255.279 72.5076 256.139 69.6882C258.395 62.2736 259.83 57.3709 260.438 55.0073C260.642 55.9232 260.982 57.169 261.454 58.7488C261.818 59.9645 263.142 64.2842 265.433 71.6706C266.129 73.9102 266.913 76.5112 267.785 79.2617H253.208Z" fill="white"/>
<path opacity="0.3" d="M305.022 116.378C301.646 119.697 297.019 121.698 291.912 121.698H255.819L235.555 142.009C234.863 142.701 233.733 142.932 232.826 142.556C231.922 142.184 231.244 141.323 231.244 140.344V121.698H228.924C218.598 121.698 210.419 113.421 210.419 103.095V51.3047C210.419 45.0619 213.383 39.5348 218.082 36.1396C217.586 47.0815 219.946 65.0139 240.458 67.4577C242.202 67.6657 243.865 67.8736 245.501 68.0855C249.336 68.5774 252.872 69.0932 256.151 69.6652C259.53 70.253 262.62 70.9009 265.439 71.6448C270.718 73.0366 275.042 74.7723 278.502 77.0998C283.753 80.635 287.015 85.5149 288.614 92.6735C291.426 105.255 296.015 112.918 305.022 116.378Z" fill="url(#paint8_linear_1135_57848)"/>
<path d="M226.136 124.091V175.881C226.136 180.696 224.361 185.189 221.369 188.505C217.95 192.296 213.04 194.782 207.529 194.782H144.541C134.215 194.782 125.547 186.207 125.547 175.881V124.091C125.547 117.508 129.099 111.814 134.242 108.482C137.166 106.591 140.798 105.588 144.541 105.588H207.529C217.854 105.588 226.136 113.765 226.136 124.091Z" fill="url(#paint9_linear_1135_57848)"/>
<path d="M204.918 180.004V212.954C204.918 213.933 204.386 214.813 203.482 215.189C202.574 215.565 201.562 215.357 200.87 214.665L169.067 182.903L204.918 180.004Z" fill="url(#paint10_linear_1135_57848)"/>
<path d="M203.346 129.164H148.73V137.808H203.346V129.164Z" fill="white"/>
<path d="M199.943 179.453C180.635 174.979 170.193 162.814 164.834 153.396C159.074 143.274 157.845 134.194 157.796 133.812L166.342 132.705L162.069 133.259L166.34 132.694C166.351 132.773 167.467 140.724 172.479 149.407C179.04 160.772 188.935 168.057 201.888 171.058L199.943 179.453Z" fill="white"/>
<path d="M152.27 179.453L150.325 171.058C163.278 168.057 173.173 160.772 179.734 149.407C184.747 140.724 185.862 132.773 185.873 132.694L194.417 133.812C194.368 134.194 193.14 143.274 187.38 153.396C182.02 162.814 171.579 174.979 152.27 179.453Z" fill="white"/>
<path d="M180.164 120.52H171.912V133.093H180.164V120.52Z" fill="white"/>
<path opacity="0.3" d="M221.414 188.505C217.995 192.296 213.04 194.783 207.529 194.783H204.918V212.954C204.918 213.933 204.386 214.813 203.482 215.189C202.574 215.565 201.562 215.46 200.87 214.768L180.81 194.783H144.541C134.215 194.783 125.547 186.207 125.547 175.881V124.091C125.547 117.508 129.099 111.717 134.242 108.386C133.866 117.66 135.692 131.737 148.566 137.32C148.946 137.484 149.367 137.64 149.767 137.788C151.83 138.564 154.18 139.132 156.808 139.444C157.58 139.536 158.349 139.628 159.097 139.72C162.456 140.132 165.616 140.552 168.575 141.004C173.834 141.807 178.468 142.703 182.523 143.811C185.555 144.639 188.259 145.591 190.659 146.71C198.453 150.338 203.033 155.808 205.029 164.734C207.836 177.304 212.42 185.042 221.414 188.505Z" fill="url(#paint11_linear_1135_57848)"/>
<path d="M208.176 6.60213L201.255 17.8249L200.203 19.5277C200.203 19.5277 199.757 19.379 198.92 19.1043C198.504 18.9546 197.98 18.8067 197.366 18.6261C196.754 18.4323 196.04 18.2573 195.238 18.0514C193.634 17.6621 191.664 17.2312 189.365 16.9254C187.07 16.6196 184.451 16.4029 181.576 16.4264C178.704 16.4458 175.581 16.6956 172.309 17.2517C170.677 17.56 168.999 17.8906 167.315 18.3652C167.103 18.4201 166.89 18.4769 166.678 18.5317C166.466 18.5942 166.255 18.6604 166.043 18.7228C165.62 18.8516 165.193 18.9803 164.764 19.1073C163.922 19.4043 163.053 19.6699 162.206 20.0068C158.781 21.2798 155.365 22.967 152.074 25.0148C150.432 26.0443 148.834 27.1801 147.269 28.379L146.118 29.3133C145.928 29.4695 145.726 29.6245 145.546 29.7786L145.004 30.2501L144.461 30.72C144.281 30.8777 144.105 31.0241 143.906 31.2186L142.743 32.3142L142.597 32.4518L142.421 32.4231L142.298 32.3451L142.281 32.3627L142.137 32.7039L141.661 33.2835C141.31 33.6366 140.978 34.0101 140.646 34.3815L139.643 35.4897C139.317 35.8703 138.999 36.2531 138.673 36.6299C137.388 38.1519 136.167 39.7258 135.058 41.3643L134.636 41.9771L134.237 42.5996C133.972 43.014 133.702 43.4271 133.444 43.8451C132.945 44.6918 132.432 45.526 131.978 46.39C131.497 47.2359 131.078 48.1102 130.642 48.9717C130.434 49.4068 130.238 49.8453 130.038 50.2801C129.938 50.4974 129.838 50.7149 129.737 50.9323C129.645 51.1532 129.555 51.3722 129.464 51.5911C128.703 53.3383 128.085 55.109 127.518 56.8606C127.252 57.7424 126.981 58.6114 126.762 59.4858C126.519 60.3554 126.333 61.2269 126.132 62.0857C125.383 65.5281 124.993 68.8628 124.837 71.9549C124.683 75.0524 124.789 77.9098 125.025 80.4351C125.261 82.9604 125.636 85.1477 125.994 86.9421C126.185 87.8359 126.35 88.64 126.529 89.3187C126.703 90.003 126.84 90.5867 126.987 91.0677C127.061 91.3186 127.123 91.5379 127.177 91.7271C127.292 92.126 127.114 92.5449 126.761 92.7429C126.713 92.7711 126.663 92.7938 126.609 92.8127L126.539 92.836C126.091 92.9883 125.6 92.7617 125.427 92.3195C125.354 92.1384 125.271 91.9258 125.175 91.6831C124.987 91.2263 124.782 90.6261 124.537 89.9272C124.276 89.227 124.031 88.4183 123.745 87.5126C123.2 85.6966 122.597 83.4626 122.099 80.8501C121.606 78.2394 121.21 75.2506 121.062 71.9595C120.918 68.672 120.994 65.0815 121.449 61.3071C121.574 60.3641 121.688 59.4063 121.863 58.4445C122.011 57.4779 122.212 56.5075 122.414 55.5259C122.845 53.5708 123.34 51.5756 123.988 49.5845C124.066 49.3357 124.142 49.0851 124.222 48.8342C124.308 48.5852 124.393 48.3361 124.481 48.089C124.656 47.5907 124.825 47.0869 125.008 46.5884C125.397 45.5981 125.769 44.5895 126.213 43.6029C126.625 42.6022 127.101 41.6238 127.569 40.6308C127.811 40.1396 128.068 39.6554 128.319 39.162L128.701 38.4293L129.105 37.7052C130.169 35.758 131.373 33.868 132.656 32.0187C132.982 31.5586 133.31 31.1003 133.636 30.6402L134.663 29.294C135.002 28.8392 135.365 28.4059 135.724 27.9692L136.265 27.3103L136.533 26.9828L136.849 26.6272L137.904 25.4275C138.067 25.2324 138.277 25.0148 138.478 24.8034L139.083 24.1648L139.69 23.5281C139.893 23.3147 140.096 23.1275 140.299 22.9254C140.705 22.5286 141.111 22.1281 141.517 21.7314C143.179 20.1845 144.9 18.7019 146.691 17.3266C150.276 14.5869 154.093 12.229 157.996 10.3371C158.962 9.84453 159.956 9.42865 160.928 8.9851C161.42 8.78202 161.91 8.58099 162.401 8.37984C162.645 8.28213 162.892 8.18248 163.134 8.08305C163.38 7.99093 163.627 7.9027 163.874 7.81059C165.83 7.05561 167.795 6.46304 169.721 5.90979C173.587 4.8651 177.342 4.20282 180.842 3.84305C184.343 3.48122 187.588 3.4371 190.463 3.5443C193.337 3.6515 195.838 3.94808 197.892 4.24556C198.918 4.40373 199.835 4.54499 200.624 4.70967C201.417 4.86304 202.095 4.99013 202.637 5.12213C203.725 5.37047 208.176 6.60213 208.176 6.60213Z" fill="url(#paint12_linear_1135_57848)"/>
<path opacity="0.3" d="M200.85 17.415C200.998 17.542 201.134 17.6792 201.254 17.8243L200.203 19.5272C200.203 19.5272 199.756 19.3785 198.92 19.1038C198.504 18.954 197.98 18.8062 197.366 18.6256C196.754 18.4318 196.04 18.2568 195.237 18.0508C193.634 17.6616 191.664 17.2306 189.365 16.9249C187.07 16.6191 184.451 16.4024 181.576 16.4258C178.704 16.4452 175.581 16.6951 172.309 17.2512C170.677 17.5594 168.999 17.89 167.315 18.3647C167.103 18.4195 166.889 18.4763 166.677 18.5312C166.466 18.5937 166.255 18.6599 166.043 18.7223C165.62 18.8511 165.193 18.9798 164.764 19.1067C163.921 19.4038 163.053 19.6694 162.206 20.0063C158.781 21.2793 155.365 22.9665 152.074 25.0143C150.432 26.0438 148.834 27.1795 147.269 28.3785L146.117 29.3128C145.928 29.469 145.726 29.624 145.546 29.778L145.004 30.2496L144.461 30.7194C144.281 30.8771 144.105 31.0235 143.905 31.218L142.743 32.3137L142.597 32.4513L142.42 32.4226L142.297 32.3446L142.281 32.3622L142.137 32.7034L141.661 33.283C141.31 33.6361 140.977 34.0096 140.646 34.381L139.642 35.4891C139.317 35.8698 138.999 36.2526 138.673 36.6294C137.388 38.1514 136.166 39.7252 135.057 41.3638L134.636 41.9765L134.237 42.5991C133.972 43.0135 133.702 43.4266 133.444 43.8445C132.944 44.6913 132.431 45.5255 131.978 46.3895C131.497 47.2354 131.078 48.1097 130.642 48.9712C130.434 49.4063 130.238 49.8448 130.038 50.2795C129.937 50.4969 129.837 50.7144 129.737 50.9317C129.645 51.1527 129.554 51.3716 129.464 51.5906C128.703 53.3378 128.085 55.1084 127.518 56.8601C127.252 57.7419 126.98 58.6108 126.762 59.4852C126.519 60.3548 126.332 61.2264 126.132 62.0851C125.383 65.5275 124.993 68.8623 124.837 71.9544C124.683 75.0519 124.789 77.9092 125.025 80.4346C125.261 82.9598 125.636 85.1472 125.994 86.9416C126.185 87.8354 126.35 88.6395 126.529 89.3181C126.703 90.0025 126.839 90.5861 126.987 91.0672C127.06 91.318 127.123 91.5373 127.177 91.7266C127.292 92.1255 127.114 92.5444 126.761 92.7424C125.015 86.4033 118.548 58.1747 135.353 37.3356C154.391 13.7292 188.3 6.5689 200.85 17.415Z" fill="url(#paint13_linear_1135_57848)"/>
<path d="M211.832 2.64746L225.571 28.7357L189.281 23.3004L211.832 2.64746Z" fill="url(#paint14_linear_1135_57848)"/>
<path opacity="0.3" d="M211.832 2.64746L225.571 28.7357L189.281 23.3004L211.832 2.64746Z" fill="url(#paint15_linear_1135_57848)"/>
<path d="M213.107 1.27734L225.707 28.589L190.666 22.0321L213.107 1.27734Z" fill="url(#paint16_linear_1135_57848)"/>
<path d="M240.306 210.561L244.775 200.593L245.454 199.08C245.454 199.08 245.837 199.154 246.554 199.289C246.912 199.367 247.358 199.432 247.882 199.513C248.406 199.606 249.012 199.673 249.693 199.755C251.052 199.901 252.717 200.041 254.638 200.043C256.556 200.045 258.731 199.94 261.09 199.609C263.447 199.281 265.985 198.738 268.613 197.926C269.919 197.496 271.262 197.043 272.594 196.47C272.762 196.402 272.931 196.332 273.099 196.264C273.266 196.19 273.433 196.113 273.6 196.039C273.933 195.887 274.27 195.735 274.609 195.584C275.269 195.249 275.953 194.937 276.612 194.568C279.287 193.151 281.91 191.395 284.392 189.356C285.628 188.333 286.818 187.227 287.974 186.072L288.818 185.18C288.957 185.031 289.106 184.882 289.237 184.736L289.631 184.29L290.026 183.845C290.157 183.696 290.286 183.557 290.429 183.375L291.264 182.349L291.37 182.22L291.551 182.249L291.694 182.323L291.706 182.307L291.753 181.987L292.065 181.448C292.315 181.12 292.539 180.771 292.771 180.43L293.471 179.408C293.697 179.06 293.915 178.71 294.142 178.365C295.032 176.975 295.864 175.55 296.598 174.083L296.876 173.534L297.136 172.979C297.309 172.61 297.487 172.241 297.653 171.87C297.972 171.121 298.302 170.38 298.581 169.621C298.884 168.874 299.134 168.11 299.399 167.356C299.522 166.976 299.636 166.594 299.753 166.216C299.812 166.026 299.871 165.837 299.929 165.647C299.981 165.456 300.032 165.266 300.082 165.076C300.518 163.559 300.833 162.037 301.11 160.537C301.232 159.784 301.361 159.041 301.446 158.299C301.551 157.558 301.61 156.822 301.681 156.095C301.923 153.186 301.882 150.405 301.675 147.848C301.466 145.288 301.069 142.952 300.602 140.903C300.134 138.855 299.589 137.099 299.101 135.664C298.847 134.95 298.624 134.308 298.403 133.77C298.186 133.227 298.011 132.762 297.837 132.383C297.75 132.185 297.675 132.011 297.61 131.862C297.472 131.547 297.573 131.183 297.841 130.982C297.878 130.954 297.917 130.93 297.959 130.908L298.014 130.882C298.366 130.708 298.793 130.841 298.983 131.185C299.062 131.326 299.154 131.492 299.259 131.681C299.463 132.036 299.697 132.506 299.973 133.054C300.264 133.601 300.553 134.238 300.886 134.951C301.531 136.384 302.267 138.154 302.96 140.245C303.648 142.336 304.297 144.748 304.775 147.435C305.25 150.12 305.577 153.077 305.612 156.227C305.611 157.015 305.622 157.814 305.582 158.623C305.566 159.433 305.506 160.252 305.446 161.08C305.304 162.733 305.114 164.425 304.798 166.131C304.76 166.344 304.725 166.558 304.687 166.772C304.643 166.986 304.6 167.2 304.555 167.413C304.465 167.841 304.38 168.273 304.284 168.702C304.072 169.558 303.876 170.427 303.618 171.285C303.388 172.152 303.103 173.007 302.826 173.873C302.681 174.303 302.522 174.729 302.37 175.161L302.135 175.804L301.882 176.443C301.219 178.158 300.435 179.84 299.582 181.498C299.364 181.912 299.144 182.324 298.926 182.737L298.229 183.954C297.999 184.364 297.748 184.759 297.501 185.157L297.128 185.757L296.943 186.055L296.722 186.381L295.986 187.481C295.873 187.659 295.724 187.86 295.582 188.056L295.154 188.646L294.724 189.235C294.581 189.432 294.435 189.608 294.29 189.796C293.999 190.166 293.71 190.539 293.419 190.909C292.221 192.359 290.969 193.763 289.646 195.087C286.999 197.726 284.119 200.077 281.119 202.054C280.378 202.563 279.607 203.013 278.857 203.482C278.475 203.702 278.094 203.921 277.713 204.139C277.522 204.246 277.331 204.354 277.143 204.462C276.95 204.565 276.757 204.664 276.565 204.766C275.04 205.598 273.49 206.298 271.968 206.961C268.905 208.239 265.893 209.19 263.058 209.864C260.221 210.541 257.56 210.929 255.188 211.153C252.815 211.376 250.729 211.404 249.009 211.382C248.15 211.363 247.381 211.347 246.715 211.297C246.047 211.257 245.476 211.226 245.016 211.177C244.096 211.091 240.306 210.561 240.306 210.561Z" fill="url(#paint17_linear_1135_57848)"/>
<path opacity="0.3" d="M245.152 200.885C245.016 200.797 244.89 200.699 244.775 200.593L245.455 199.08C245.455 199.08 245.837 199.154 246.554 199.289C246.912 199.367 247.358 199.432 247.882 199.513C248.406 199.606 249.012 199.673 249.693 199.755C251.052 199.901 252.717 200.041 254.638 200.043C256.556 200.046 258.731 199.94 261.09 199.609C263.447 199.281 265.985 198.738 268.613 197.926C269.92 197.496 271.262 197.043 272.594 196.47C272.762 196.402 272.931 196.332 273.099 196.264C273.266 196.19 273.433 196.113 273.6 196.039C273.934 195.887 274.27 195.735 274.609 195.584C275.269 195.249 275.953 194.937 276.612 194.568C279.288 193.151 281.91 191.395 284.392 189.356C285.628 188.333 286.818 187.227 287.974 186.072L288.818 185.18C288.957 185.031 289.106 184.882 289.237 184.736L289.631 184.29L290.026 183.845C290.157 183.696 290.286 183.557 290.429 183.375L291.265 182.349L291.37 182.22L291.551 182.249L291.694 182.323L291.706 182.307L291.753 181.987L292.065 181.448C292.315 181.12 292.539 180.771 292.771 180.43L293.471 179.408C293.697 179.06 293.915 178.71 294.142 178.365C295.032 176.975 295.864 175.55 296.598 174.083L296.877 173.534L297.137 172.979C297.309 172.61 297.487 172.241 297.653 171.87C297.972 171.121 298.303 170.38 298.581 169.621C298.884 168.874 299.134 168.111 299.399 167.356C299.523 166.976 299.636 166.594 299.753 166.216C299.812 166.026 299.871 165.837 299.929 165.647C299.981 165.456 300.032 165.266 300.083 165.076C300.518 163.559 300.833 162.037 301.11 160.537C301.232 159.784 301.361 159.041 301.446 158.299C301.551 157.558 301.61 156.822 301.681 156.095C301.924 153.187 301.882 150.405 301.675 147.848C301.466 145.288 301.069 142.952 300.602 140.903C300.134 138.855 299.589 137.099 299.101 135.664C298.847 134.95 298.624 134.308 298.403 133.77C298.186 133.227 298.011 132.762 297.837 132.383C297.75 132.185 297.675 132.011 297.61 131.862C297.473 131.547 297.573 131.183 297.841 130.982C299.963 136 308.335 158.485 296.79 177.424C283.711 198.877 256.636 208.434 245.152 200.885Z" fill="url(#paint18_linear_1135_57848)"/>
<path d="M237.733 214.206L223.62 194.267L254.016 194.797L237.733 214.206Z" fill="url(#paint19_linear_1135_57848)"/>
<path opacity="0.3" d="M237.733 214.206L223.62 194.267L254.016 194.797L237.733 214.206Z" fill="url(#paint20_linear_1135_57848)"/>
<path d="M236.833 215.469L223.523 194.401L253.016 195.989L236.833 215.469Z" fill="url(#paint21_linear_1135_57848)"/>
<defs>
<linearGradient id="paint0_linear_1135_57848" x1="76.5387" y1="171.759" x2="247.959" y2="171.759" gradientUnits="userSpaceOnUse">
<stop stop-color="#80C7AD"/>
<stop offset="0.9964" stop-color="#419F7D"/>
</linearGradient>
<linearGradient id="paint1_linear_1135_57848" x1="12.8959" y1="171.758" x2="158.389" y2="171.758" gradientUnits="userSpaceOnUse">
<stop stop-color="#80C7AD"/>
<stop offset="0.9964" stop-color="#419F7D"/>
</linearGradient>
<linearGradient id="paint2_linear_1135_57848" x1="91.2331" y1="171.597" x2="244.819" y2="171.597" gradientUnits="userSpaceOnUse">
<stop stop-color="#80C7AD"/>
<stop offset="0.9964" stop-color="#419F7D"/>
</linearGradient>
<linearGradient id="paint3_linear_1135_57848" x1="135.179" y1="109.301" x2="-9.5978" y2="335.873" gradientUnits="userSpaceOnUse">
<stop stop-color="#A1E3A4"/>
<stop offset="1" stop-color="#59B85A"/>
</linearGradient>
<linearGradient id="paint4_linear_1135_57848" x1="314.713" y1="136.221" x2="196.014" y2="160.364" gradientUnits="userSpaceOnUse">
<stop stop-color="#FA9D4D"/>
<stop offset="1" stop-color="#FFBE46"/>
</linearGradient>
<linearGradient id="paint5_linear_1135_57848" x1="112.807" y1="249.223" x2="256.059" y2="118.473" gradientUnits="userSpaceOnUse">
<stop stop-color="#80C7AD"/>
<stop offset="0.9964" stop-color="#419F7D"/>
</linearGradient>
<linearGradient id="paint6_linear_1135_57848" x1="256.701" y1="-72.5991" x2="263.1" y2="178.584" gradientUnits="userSpaceOnUse">
<stop stop-color="#FFC444"/>
<stop offset="0.9964" stop-color="#F36F56"/>
</linearGradient>
<linearGradient id="paint7_linear_1135_57848" x1="244.204" y1="-72.1773" x2="250.603" y2="178.987" gradientUnits="userSpaceOnUse">
<stop stop-color="#FFC444"/>
<stop offset="0.9964" stop-color="#F36F56"/>
</linearGradient>
<linearGradient id="paint8_linear_1135_57848" x1="210.419" y1="89.4373" x2="305.022" y2="89.4373" gradientUnits="userSpaceOnUse">
<stop stop-color="#FFC444"/>
<stop offset="0.9964" stop-color="#F36F56"/>
</linearGradient>
<linearGradient id="paint9_linear_1135_57848" x1="178.274" y1="125.042" x2="160.276" y2="309.819" gradientUnits="userSpaceOnUse">
<stop offset="0.0036" stop-color="#80C7AD"/>
<stop offset="1" stop-color="#419F7D"/>
</linearGradient>
<linearGradient id="paint10_linear_1135_57848" x1="194.434" y1="121.595" x2="176.505" y2="305.667" gradientUnits="userSpaceOnUse">
<stop offset="0.0036" stop-color="#80C7AD"/>
<stop offset="1" stop-color="#419F7D"/>
</linearGradient>
<linearGradient id="paint11_linear_1135_57848" x1="125.547" y1="161.895" x2="221.414" y2="161.895" gradientUnits="userSpaceOnUse">
<stop offset="0.0036" stop-color="#80C7AD"/>
<stop offset="1" stop-color="#419F7D"/>
</linearGradient>
<linearGradient id="paint12_linear_1135_57848" x1="135.443" y1="15.9497" x2="213.737" y2="99.7334" gradientUnits="userSpaceOnUse">
<stop stop-color="#FFC444"/>
<stop offset="0.9964" stop-color="#F36F56"/>
</linearGradient>
<linearGradient id="paint13_linear_1135_57848" x1="136.447" y1="25.786" x2="202.464" y2="96.4316" gradientUnits="userSpaceOnUse">
<stop stop-color="#FFC444"/>
<stop offset="0.9964" stop-color="#F36F56"/>
</linearGradient>
<linearGradient id="paint14_linear_1135_57848" x1="171.635" y1="-17.975" x2="250.453" y2="66.3691" gradientUnits="userSpaceOnUse">
<stop stop-color="#FFC444"/>
<stop offset="0.9964" stop-color="#F36F56"/>
</linearGradient>
<linearGradient id="paint15_linear_1135_57848" x1="171.635" y1="-17.975" x2="250.453" y2="66.3691" gradientUnits="userSpaceOnUse">
<stop stop-color="#FFC444"/>
<stop offset="0.9964" stop-color="#F36F56"/>
</linearGradient>
<linearGradient id="paint16_linear_1135_57848" x1="173.049" y1="-19.2045" x2="251.777" y2="65.0433" gradientUnits="userSpaceOnUse">
<stop stop-color="#FFC444"/>
<stop offset="0.9964" stop-color="#F36F56"/>
</linearGradient>
<linearGradient id="paint17_linear_1135_57848" x1="299.034" y1="194.999" x2="225.644" y2="134.669" gradientUnits="userSpaceOnUse">
<stop offset="0.0036" stop-color="#80C7AD"/>
<stop offset="1" stop-color="#419F7D"/>
</linearGradient>
<linearGradient id="paint18_linear_1135_57848" x1="297.143" y1="187.028" x2="235.261" y2="136.159" gradientUnits="userSpaceOnUse">
<stop offset="0.0036" stop-color="#80C7AD"/>
<stop offset="1" stop-color="#419F7D"/>
</linearGradient>
<linearGradient id="paint19_linear_1135_57848" x1="272.985" y1="226.787" x2="199.102" y2="166.053" gradientUnits="userSpaceOnUse">
<stop offset="0.0036" stop-color="#80C7AD"/>
<stop offset="1" stop-color="#419F7D"/>
</linearGradient>
<linearGradient id="paint20_linear_1135_57848" x1="272.985" y1="226.787" x2="199.102" y2="166.053" gradientUnits="userSpaceOnUse">
<stop offset="0.0036" stop-color="#80C7AD"/>
<stop offset="1" stop-color="#419F7D"/>
</linearGradient>
<linearGradient id="paint21_linear_1135_57848" x1="271.956" y1="227.95" x2="198.158" y2="167.285" gradientUnits="userSpaceOnUse">
<stop offset="0.0036" stop-color="#80C7AD"/>
<stop offset="1" stop-color="#419F7D"/>
</linearGradient>
</defs>
</svg>
