<svg width="320" height="320" viewBox="0 0 320 320" fill="none" xmlns="http://www.w3.org/2000/svg">
<path d="M66.8531 66.2378L75.0027 68.4902L68.9773 69.9682C65.9114 70.4585 64.5308 71.7872 63.9714 73.521L62.0951 88.7198L59.7869 73.4855C59.5025 72.7762 59.0724 72.135 58.5247 71.6037C57.9769 71.0723 57.3238 70.6628 56.6078 70.4016L48.8193 68.4902L57.068 66.1454C57.7484 65.8641 58.3648 65.4469 58.8796 64.9192C59.3945 64.3916 59.7971 63.7644 60.063 63.0758L62.1163 45.8447L63.5891 62.6992C63.8262 63.5008 64.2439 64.2368 64.8099 64.8504C65.3759 65.4641 66.075 65.9387 66.8531 66.2378Z" fill="#EBEBEB"/>
<path d="M78.5147 89.2887L81.4389 90.0988L79.3148 90.6317C78.2102 90.8093 77.7217 91.2783 77.5164 91.8965L76.8083 97.3536L75.9799 91.8894C75.8789 91.635 75.7249 91.4052 75.5283 91.2153C75.3318 91.0254 75.0971 90.8797 74.84 90.788L72.0078 90.0775L74.9674 89.239C75.2102 89.1368 75.4299 88.9866 75.6136 88.7974C75.7973 88.6082 75.9411 88.3838 76.0366 88.1376L76.7446 81.9629L77.2756 88.0026C77.3642 88.3011 77.523 88.5737 77.7386 88.7976C77.9543 89.0214 78.2205 89.1899 78.5147 89.2887Z" fill="#EBEBEB"/>
<path d="M23.4447 112.856L0.366211 191.146L97.9454 220.115L121.024 141.826L23.4447 112.856Z" fill="#FAFAFA"/>
<path d="M121.025 141.842C121.025 141.842 120.863 141.842 120.551 141.714L119.177 141.323L113.867 139.781L93.872 133.919L23.3795 113.121L23.7123 112.943C16.8514 136.249 8.98504 162.966 0.658478 191.232L0.460227 190.87L98.0211 219.889L97.7167 220.053C104.719 196.498 110.525 176.972 114.582 163.307L119.319 147.462C119.871 145.634 120.291 144.238 120.579 143.277C120.87 142.332 121.032 141.856 121.032 141.856C121.032 141.856 120.912 142.332 120.65 143.277C120.388 144.222 119.942 145.622 119.454 147.434L114.851 163.265C110.844 176.979 105.109 196.583 98.1911 220.23L98.1203 220.465L97.8866 220.394L0.283217 191.446L0 191.36L0.0849655 191.076C8.43277 162.803 16.2991 136.093 23.1954 112.794L23.2733 112.538L23.5211 112.616L94.1057 133.713L114.009 139.696L119.255 141.28L120.586 141.699L121.025 141.842Z" fill="#E0E0E0"/>
<path d="M25.3545 118.784L5.18042 187.221L95.909 214.157L116.083 145.72L25.3545 118.784Z" fill="#EBEBEB"/>
<path d="M5.18286 187.232L49.4142 154.099L61.1959 186.543L78.7058 176.268L95.9112 214.169L5.18286 187.232Z" fill="#E0E0E0"/>
<path d="M78.9111 157.19C78.4937 158.607 77.6668 159.869 76.5348 160.815C75.4029 161.762 74.0169 162.35 72.5519 162.505C71.087 162.661 69.6089 162.377 68.3047 161.69C67.0004 161.002 65.9285 159.942 65.2246 158.644C64.5206 157.345 64.2162 155.866 64.3498 154.394C64.4834 152.922 65.049 151.522 65.9751 150.372C66.9012 149.223 68.1462 148.374 69.5527 147.935C70.9592 147.495 72.464 147.484 73.8769 147.903C74.8151 148.181 75.6896 148.641 76.4504 149.259C77.2111 149.876 77.8433 150.637 78.3108 151.5C78.7783 152.362 79.0719 153.308 79.1749 154.285C79.2779 155.261 79.1882 156.248 78.9111 157.19Z" fill="#E0E0E0"/>
<path d="M202.679 177.176L194.521 263.463L302.064 273.703L310.222 187.416L202.679 177.176Z" fill="#FAFAFA"/>
<path d="M310.193 187.395H309.676L308.161 187.267L302.348 186.706L280.292 184.717L202.627 177.469L202.932 177.22C200.517 202.9 197.742 232.338 194.817 263.496L194.541 263.155L302.078 273.437L301.795 273.671C304.302 247.7 306.383 226.163 307.842 211.107C308.55 203.575 309.159 197.67 309.555 193.62C309.761 191.616 309.916 190.067 310.023 189.008C310.129 187.95 310.2 187.417 310.2 187.417C310.2 187.417 310.2 187.928 310.086 188.959C309.973 189.989 309.86 191.538 309.683 193.528C309.315 197.563 308.784 203.475 308.104 210.965C306.688 226.071 304.719 247.665 302.312 273.721V273.984H302.05L194.499 263.809H194.187V263.496C197.147 232.345 199.937 202.907 202.372 177.227V176.95H202.648L280.469 184.496L302.418 186.664L308.203 187.246L309.683 187.403C310.037 187.367 310.193 187.395 310.193 187.395Z" fill="#E0E0E0"/>
<path d="M205.873 182.961L198.743 258.382L298.729 267.902L305.86 192.481L205.873 182.961Z" fill="#EBEBEB"/>
<path d="M198.719 258.366L238.072 214.809L256.934 246.194L273.091 231.912L298.708 267.88L198.719 258.366Z" fill="#E0E0E0"/>
<path d="M269.431 211.995C269.284 213.558 268.678 215.042 267.69 216.26C266.702 217.477 265.377 218.373 263.881 218.835C262.386 219.296 260.788 219.302 259.289 218.852C257.79 218.402 256.458 217.515 255.461 216.305C254.464 215.095 253.848 213.615 253.689 212.053C253.53 210.492 253.837 208.917 254.57 207.53C255.303 206.143 256.429 205.005 257.807 204.261C259.184 203.516 260.75 203.198 262.308 203.347C264.395 203.547 266.317 204.57 267.653 206.192C268.988 207.813 269.628 209.9 269.431 211.995Z" fill="#E0E0E0"/>
<path d="M100.813 199.553L20.769 219.135L36.3693 283.357L116.413 263.775L100.813 199.553Z" fill="#FAFAFA"/>
<path d="M100.804 199.567L100.414 199.673L99.2956 199.957L94.9554 201.059L78.6067 205.109L20.8377 219.32L20.9934 219.064C25.6382 238.178 30.9697 260.085 36.6128 283.27L36.3225 283.1L116.352 263.588L116.204 263.83L104.995 217.224C103.657 211.618 102.602 207.212 101.88 204.2C101.526 202.7 101.257 201.549 101.073 200.753C100.889 199.957 100.804 199.56 100.804 199.56C100.804 199.56 100.91 199.943 101.101 200.704C101.292 201.464 101.583 202.622 101.951 204.1C102.659 207.099 103.77 211.476 105.151 217.061L116.593 263.737L116.636 263.929L116.444 263.979L36.4358 283.59L36.2021 283.647L36.1455 283.413C30.5237 260.227 25.2134 238.313 20.5686 219.192L20.519 218.986L20.7244 218.936L78.6846 204.875L95.0403 200.931L99.3523 199.901L100.457 199.645L100.804 199.567Z" fill="#E0E0E0"/>
<path d="M98.944 204.296L24.5205 222.503L38.1571 278.642L112.581 260.435L98.944 204.296Z" fill="#EBEBEB"/>
<path d="M38.1279 278.645L55.6519 237.397L77.056 255.289L85.1418 240.95L112.55 260.448L38.1279 278.645Z" fill="#E0E0E0"/>
<path d="M77.5518 227.514C77.8342 228.677 77.7665 229.898 77.3575 231.022C76.9484 232.147 76.2162 233.125 75.2536 233.832C74.2909 234.539 73.141 234.944 71.9492 234.995C70.7573 235.046 69.5771 234.742 68.5576 234.12C67.5382 233.498 66.7253 232.587 66.2218 231.502C65.7183 230.416 65.5468 229.206 65.7289 228.022C65.911 226.839 66.4386 225.737 67.2449 224.855C68.0512 223.972 69.1001 223.35 70.259 223.066C71.0289 222.877 71.8283 222.842 72.6116 222.964C73.3948 223.085 74.1465 223.36 74.8238 223.773C75.5011 224.186 76.0906 224.729 76.5587 225.371C77.0268 226.013 77.3642 226.741 77.5518 227.514Z" fill="#E0E0E0"/>
<path d="M298.498 46.3071L185.255 67.165L201.872 158.027L315.115 137.169L298.498 46.3071Z" fill="#FAFAFA"/>
<path d="M298.503 46.2998L297.958 46.4135L296.372 46.7261L290.226 47.8915L267.052 52.2472L185.308 67.4744L185.549 67.1263C190.505 94.1701 196.17 125.165 202.202 157.971L201.806 157.715L315.092 136.91L314.873 137.237C309.916 109.866 305.824 87.1782 302.956 71.3115C301.54 63.3745 300.422 57.15 299.657 52.8796C299.282 50.7479 298.998 49.1349 298.8 48.0194C298.602 46.9038 298.524 46.3282 298.524 46.3282C298.524 46.3282 298.644 46.8683 298.85 47.9483C299.055 49.0283 299.367 50.6555 299.763 52.7517C300.556 57.015 301.71 63.1898 303.19 71.0912C306.128 86.9864 310.341 109.717 315.418 137.173L315.467 137.443L315.191 137.493L201.94 158.348L201.607 158.412L201.551 158.078C195.568 125.271 189.904 94.2696 184.969 67.2258L184.919 66.9273L185.209 66.8705L267.2 51.9487L290.311 47.7351L296.407 46.648L297.972 46.378L298.503 46.2998Z" fill="#E0E0E0"/>
<path d="M295.499 52.7759L190.209 72.1689L204.734 151.59L310.024 132.197L295.499 52.7759Z" fill="#EBEBEB"/>
<path d="M204.737 151.583L232.478 95.4414L260.906 122.13L273.339 102.767L310.023 132.184L204.737 151.583Z" fill="#E0E0E0"/>
<path d="M263.823 83.4122C264.125 85.0586 263.933 86.7578 263.273 88.295C262.612 89.8321 261.512 91.1381 260.112 92.0478C258.711 92.9574 257.074 93.4298 255.406 93.4053C253.738 93.3807 252.115 92.8602 250.741 91.9097C249.368 90.9592 248.307 89.6214 247.692 88.0655C247.076 86.5095 246.934 84.8053 247.284 83.1685C247.634 81.5317 248.46 80.0358 249.657 78.87C250.854 77.7043 252.369 76.921 254.01 76.6192C255.098 76.4181 256.216 76.4342 257.299 76.6668C258.381 76.8994 259.408 77.3438 260.319 77.9747C261.231 78.6055 262.009 79.4105 262.61 80.3435C263.212 81.2765 263.624 82.3193 263.823 83.4122Z" fill="#E0E0E0"/>
<path d="M234.581 35.0871L245.464 19.5188L227.777 27.3065L228.761 3.55964L214.947 19.1138L203.533 0.546875L198.025 21.6434L180.734 19.6254L192.205 37.8796L172.762 51.4797L196.97 45.8734L197.749 65.1509L213.913 52.1405L230.885 66.4441L228.832 47.6569L250.179 45.9374L234.581 35.0871Z" fill="white"/>
<path d="M234.581 35.0874C234.581 35.0874 234.914 35.3361 235.579 35.7979L238.567 37.9296L250.115 46.0442L250.165 45.8452L228.818 47.5079H228.669V47.6643C229.271 53.2919 229.958 59.6372 230.694 66.4585L230.984 66.3022L213.991 51.9774L213.864 51.8708L213.736 51.9774L197.565 64.9735L197.919 65.1298C197.671 59.019 197.409 52.5245 197.147 45.8594V45.6036L196.899 45.6463C189.373 46.9111 180.791 49.8741 172.684 51.2455L172.847 51.6647C178.511 48.0409 185.209 42.5838 191.306 38.7041L192.297 38.0717L192.495 37.9438L192.368 37.752L180.926 19.5048L180.706 19.853L197.997 21.871H198.195L198.244 21.6791C200.133 14.4267 201.966 7.39218 203.746 0.575552L203.349 0.639502L214.777 19.1993L214.919 19.4338L215.096 19.2277L228.895 3.65938L228.577 3.53148C228.223 12.3069 227.911 20.2438 227.628 27.2783V27.5128L227.848 27.4205L245.549 19.6043L245.421 19.448C241.881 24.5427 239.19 28.4508 237.349 31.1011L235.261 34.0784C234.801 34.7463 234.553 35.0803 234.553 35.0803C234.553 35.0803 234.808 34.7392 235.261 34.0713L237.385 31.1011L245.52 19.5688L245.74 19.2561L245.386 19.4125L227.685 27.1575L227.89 27.2997C228.195 20.2722 228.534 12.3353 228.91 3.5599V3.0483L228.577 3.432C224.248 8.29222 219.639 13.4722 214.749 18.9719H215.067L203.718 0.43344L203.456 0L203.328 0.490284C201.544 7.28796 199.703 14.3201 197.805 21.5868L198.046 21.4162L180.763 19.3982L180.281 19.3414L180.536 19.7464C184.289 25.7151 188.112 31.8022 192.007 38.0078L192.084 37.6809L191.093 38.3133C184.997 42.2001 178.348 47.6572 172.635 51.281L171.672 51.8992L172.797 51.7073C180.897 50.336 189.486 47.3729 197.005 46.101L196.743 45.8879C197.019 52.5529 197.289 59.0474 197.536 65.1582V65.5845L197.862 65.3145L214.012 52.2971H213.758C219.818 57.3847 225.539 62.2023 230.751 66.5864L231.09 66.8707L231.041 66.4301C230.283 59.6087 229.582 53.2706 228.959 47.6429L228.825 47.8064L250.165 46.0442H250.469L250.215 45.8737L238.666 37.8799L235.636 35.7979L234.581 35.0874Z" fill="#263238"/>
<path d="M216.533 26.0489L215.825 37.0271C215.798 37.4611 215.614 37.8704 215.308 38.1779C215.002 38.4854 214.594 38.67 214.161 38.6969C213.705 38.7252 213.256 38.5764 212.907 38.2814C212.558 37.9864 212.335 37.5677 212.285 37.1123L211.074 26.0773C211.056 25.8803 211.08 25.6816 211.143 25.4942C211.206 25.3067 211.308 25.1345 211.441 24.9887C211.574 24.8429 211.736 24.7266 211.917 24.6473C212.098 24.5681 212.293 24.5275 212.49 24.5283H215.159C215.35 24.5336 215.538 24.5776 215.712 24.6577C215.886 24.7378 216.041 24.8524 216.17 24.9944C216.298 25.1365 216.396 25.3032 216.459 25.4844C216.521 25.6656 216.547 25.8576 216.533 26.0489Z" fill="#419F7D"/>
<path d="M211.272 44.8722C211.439 45.3747 211.751 45.8163 212.167 46.1412C212.584 46.4661 213.088 46.6596 213.614 46.6975C214.141 46.7353 214.666 46.6156 215.125 46.3536C215.584 46.0916 215.955 45.699 216.191 45.2255C216.428 44.7519 216.519 44.2187 216.453 43.6931C216.388 43.1676 216.169 42.6733 215.823 42.2727C215.478 41.8722 215.022 41.5834 214.513 41.4428C214.004 41.3022 213.465 41.3161 212.964 41.4829C212.293 41.7083 211.738 42.1915 211.421 42.8268C211.104 43.462 211.05 44.1975 211.272 44.8722Z" fill="#419F7D"/>
<path d="M154.976 40.0615C154.729 40.4668 154.418 40.8291 154.055 41.1345C152.396 42.7227 150.395 43.9067 148.207 44.5949C147.756 44.7751 147.276 44.8714 146.791 44.8791C148.271 44.3049 149.713 43.6381 151.11 42.8824C152.453 42.0198 153.744 41.0779 154.976 40.0615Z" fill="white"/>
<g opacity="0.3">
<path d="M173.201 119.339L173.654 108.787L166.269 119.325L173.201 119.339Z" fill="black"/>
</g>
<path d="M156.173 110.151H214.805L218.154 106.79H253.804C254.961 106.79 256.07 107.251 256.888 108.072C257.706 108.893 258.166 110.006 258.166 111.167V117.079H152.243L152.116 114.457C152.088 113.904 152.172 113.351 152.363 112.831C152.554 112.312 152.848 111.836 153.227 111.434C153.606 111.032 154.063 110.71 154.569 110.49C155.075 110.269 155.621 110.154 156.173 110.151Z" fill="#419F7D"/>
<path d="M73.6504 203.71L74.4364 125.357C74.4569 123.162 75.3402 121.064 76.8942 119.519C78.4482 117.974 80.5472 117.107 82.7346 117.107H262.145C264.335 117.107 266.436 117.976 267.99 119.524C269.545 121.072 270.426 123.174 270.443 125.371L271.031 203.71L279.287 237.931V250.16H273.438V285.183C273.434 291.33 270.999 297.223 266.666 301.568C262.334 305.913 256.46 308.354 250.335 308.354H90.8487C84.7213 308.354 78.8449 305.911 74.5122 301.563C70.1795 297.215 67.7454 291.318 67.7454 285.169V248.667H61.897V237.931L73.6504 203.71Z" fill="#419F7D"/>
<path d="M73.6504 203.71C73.6504 203.71 73.4026 204.47 72.907 205.941L70.6696 212.506L61.9749 237.959C61.9749 241.327 61.9749 244.913 61.9749 248.717L61.8828 248.631H67.8233V248.667C67.8233 256.32 67.8233 264.768 67.8233 273.956C67.8233 276.253 67.8233 278.596 67.8233 280.983C67.7498 283.409 67.8278 285.836 68.0569 288.252C68.3687 290.744 69.109 293.162 70.2448 295.4C71.3987 297.725 72.9301 299.84 74.7762 301.66C78.6917 305.488 83.8428 307.784 89.2981 308.133C90.7142 308.233 92.1303 308.204 93.5464 308.212H106.596H143.846H227.706H250.363C254.199 308.168 257.967 307.193 261.345 305.369L262.57 304.616L263.186 304.24L263.766 303.806L264.921 302.939L265.99 301.959L266.528 301.468L267.016 300.935L267.993 299.855L268.871 298.69L269.303 298.107C269.445 297.908 269.558 297.695 269.686 297.489L270.443 296.239C270.677 295.812 270.875 295.365 271.088 294.924C271.503 294.04 271.864 293.131 272.171 292.203C272.759 290.327 273.107 288.383 273.205 286.419C273.275 285.438 273.268 284.443 273.268 283.449V274.46C273.268 266.435 273.268 258.335 273.268 250.159V249.974H279.301L279.117 250.159V238.008C278.281 234.534 277.375 230.782 276.469 227.023C274.543 219.065 272.638 211.164 270.861 203.795V203.752C270.67 178.414 270.486 153.743 270.309 129.968C270.167 127.033 270.748 123.907 269.176 121.384C268.455 120.143 267.421 119.114 266.178 118.4C264.935 117.687 263.527 117.314 262.095 117.32H211.492L96.7043 117.214H84.7879C83.825 117.214 82.855 117.214 81.9558 117.256C81.0255 117.354 80.1183 117.609 79.2723 118.009C77.598 118.799 76.2437 120.141 75.4347 121.811C75.0355 122.616 74.7746 123.483 74.6629 124.376C74.5638 125.264 74.5851 126.167 74.5709 127.055C74.5709 128.845 74.5709 130.608 74.5143 132.327C74.4765 135.79 74.4411 139.139 74.4081 142.374C74.2664 155.314 74.1461 166.441 74.047 175.529C73.9478 184.617 73.8558 191.659 73.7991 196.434C73.7991 198.814 73.7425 200.633 73.7283 201.855C73.7142 203.077 73.7283 203.696 73.7283 203.696C73.7283 203.696 73.7283 203.07 73.7283 201.848C73.7283 200.626 73.7283 198.807 73.7283 196.419C73.7708 191.644 73.8275 184.603 73.9053 175.515C73.9832 166.427 74.0894 155.299 74.2098 142.36C74.2381 139.129 74.2688 135.783 74.3018 132.32C74.3018 130.593 74.3018 128.838 74.3514 127.055C74.3514 126.167 74.3514 125.264 74.4364 124.348C74.6182 122.946 75.147 121.613 75.9745 120.47C76.8019 119.327 77.9017 118.41 79.1732 117.803C80.0431 117.387 80.9765 117.12 81.9345 117.015C82.9045 116.943 83.8533 117.015 84.8233 116.972H96.7397H211.527H262.06C263.181 116.963 264.293 117.178 265.331 117.603C266.369 118.027 267.313 118.654 268.109 119.447C268.905 120.239 269.536 121.182 269.967 122.221C270.398 123.259 270.62 124.373 270.62 125.499C270.62 126.977 270.62 128.462 270.656 129.947C270.833 153.722 271.024 178.393 271.215 203.724V203.681C272.999 211.057 274.904 218.958 276.823 226.91C277.729 230.675 278.635 234.427 279.478 237.902V250.358H273.445L273.629 250.173V283.484C273.629 284.479 273.629 285.474 273.566 286.476C273.466 288.471 273.114 290.446 272.518 292.352C272.206 293.295 271.837 294.218 271.413 295.116C271.194 295.557 270.995 296.011 270.762 296.452L269.983 297.695C269.856 297.909 269.735 298.122 269.594 298.328L269.155 298.917L268.262 300.104L267.271 301.198L266.776 301.746L266.23 302.236L265.147 303.231L263.972 304.09L263.384 304.531L262.761 304.915L261.508 305.675C258.076 307.518 254.248 308.494 250.356 308.517H227.699H143.839H106.589H93.5605C92.1445 308.517 90.7284 308.517 89.3123 308.439C83.7956 308.085 78.5881 305.758 74.6346 301.881C72.7719 300.037 71.2242 297.898 70.0536 295.549C68.9127 293.282 68.1679 290.836 67.8516 288.316C67.6255 285.891 67.5498 283.453 67.625 281.019C67.625 278.631 67.625 276.286 67.625 273.991C67.625 264.804 67.625 256.355 67.625 248.702L67.7171 248.802H61.812V248.667C61.812 244.877 61.812 241.291 61.812 237.909C65.6425 226.824 68.588 218.276 70.5846 212.499L72.8574 205.941C73.3814 204.463 73.6504 203.71 73.6504 203.71Z" fill="#263238"/>
<path d="M113.511 190.475C119.118 184.368 118.731 174.856 112.646 169.229C106.561 163.602 97.083 163.991 91.4758 170.097C85.8687 176.204 86.256 185.716 92.3409 191.343C98.4258 196.97 107.904 196.581 113.511 190.475Z" fill="#E0E0E0"/>
<path d="M117.478 180.283C117.456 180.204 117.444 180.123 117.443 180.041C117.443 179.857 117.443 179.622 117.393 179.331C117.375 178.944 117.33 178.56 117.259 178.18C117.185 177.659 117.078 177.144 116.94 176.638C116.586 175.237 116.023 173.897 115.269 172.666C114.287 171.028 113.001 169.596 111.481 168.445C109.643 167.041 107.501 166.091 105.229 165.674C102.621 165.191 99.9321 165.417 97.4405 166.328C96.7782 166.569 96.1325 166.854 95.5075 167.18C94.8769 167.528 94.2712 167.92 93.6949 168.353C93.1036 168.787 92.5429 169.262 92.0169 169.774C91.5097 170.317 91.0367 170.891 90.6008 171.493C89.6804 172.736 88.9633 174.117 88.4767 175.586C87.4666 178.628 87.4666 181.917 88.4767 184.958C88.9633 186.427 89.6804 187.809 90.6008 189.051C91.0328 189.659 91.5059 190.236 92.0169 190.778C92.5465 191.286 93.1069 191.76 93.6949 192.199C94.2712 192.632 94.8769 193.023 95.5075 193.371C96.1325 193.698 96.7782 193.983 97.4405 194.224C100.682 195.406 104.233 195.42 107.484 194.264C110.736 193.108 113.485 190.853 115.262 187.886C116.015 186.654 116.578 185.315 116.933 183.914C117.072 183.405 117.178 182.887 117.251 182.365C117.324 181.985 117.369 181.6 117.386 181.214C117.386 180.922 117.421 180.681 117.436 180.503C117.436 180.421 117.448 180.34 117.471 180.262C117.479 180.342 117.479 180.423 117.471 180.503C117.471 180.688 117.471 180.922 117.471 181.214C117.471 181.602 117.438 181.989 117.372 182.372C117.317 182.902 117.219 183.427 117.082 183.942C116.749 185.366 116.2 186.73 115.453 187.985C114.363 189.837 112.894 191.436 111.142 192.676C109.391 193.916 107.397 194.768 105.293 195.176C102.633 195.676 99.888 195.456 97.3414 194.537C96.6627 194.291 96.0004 194.001 95.3588 193.67C94.7062 193.334 94.0769 192.954 93.4754 192.533C92.8711 192.08 92.2964 191.589 91.7549 191.062C91.2201 190.512 90.7233 189.925 90.268 189.307C89.3244 188.035 88.5905 186.62 88.0943 185.115C87.0558 181.997 87.0558 178.625 88.0943 175.508C88.589 174.002 89.323 172.586 90.268 171.316C90.725 170.697 91.2217 170.108 91.7549 169.553C92.2965 169.029 92.8712 168.54 93.4754 168.09C94.0684 167.65 94.6906 167.251 95.3376 166.896C95.9778 166.562 96.6402 166.272 97.3201 166.029C99.866 165.107 102.612 164.886 105.271 165.39C107.373 165.792 109.366 166.639 111.117 167.874C112.867 169.108 114.336 170.703 115.425 172.552C116.172 173.808 116.721 175.171 117.053 176.595C117.19 177.108 117.288 177.63 117.344 178.158C117.41 178.543 117.443 178.933 117.443 179.324C117.443 179.622 117.443 179.857 117.443 180.034C117.463 180.116 117.474 180.199 117.478 180.283Z" fill="#263238"/>
<g opacity="0.3">
<path d="M61.897 237.931H279.287L271.031 203.718H73.6575L61.897 237.931Z" fill="black"/>
</g>
<path d="M255.291 158.383H230.304C229.365 158.383 228.465 158.009 227.801 157.343C227.137 156.677 226.764 155.773 226.764 154.831V129.727C226.764 128.784 227.137 127.881 227.801 127.214C228.465 126.548 229.365 126.174 230.304 126.174H255.291C256.23 126.174 257.13 126.548 257.794 127.214C258.458 127.881 258.831 128.784 258.831 129.727V154.802C258.835 155.271 258.746 155.736 258.57 156.171C258.394 156.605 258.134 157 257.804 157.333C257.475 157.666 257.084 157.93 256.652 158.11C256.221 158.291 255.758 158.383 255.291 158.383ZM230.304 126.856C229.553 126.856 228.833 127.155 228.302 127.688C227.771 128.221 227.472 128.944 227.472 129.698V154.802C227.472 155.556 227.771 156.279 228.302 156.812C228.833 157.345 229.553 157.644 230.304 157.644H255.291C256.042 157.644 256.763 157.345 257.294 156.812C257.825 156.279 258.123 155.556 258.123 154.802V129.727C258.123 128.973 257.825 128.25 257.294 127.717C256.763 127.184 256.042 126.884 255.291 126.884L230.304 126.856Z" fill="#263238"/>
<path d="M256.699 145.54C258.494 137.841 253.73 130.138 246.058 128.337C238.385 126.535 230.71 131.316 228.915 139.016C227.12 146.715 231.884 154.418 239.556 156.219C247.229 158.021 254.903 153.24 256.699 145.54Z" fill="#263238"/>
<path d="M125.748 133.259H90.5442C87.8812 133.259 85.7224 135.425 85.7224 138.098V146.553C85.7224 149.226 87.8812 151.392 90.5442 151.392H125.748C128.411 151.392 130.57 149.226 130.57 146.553V138.098C130.57 135.425 128.411 133.259 125.748 133.259Z" fill="#FAFAFA"/>
<path d="M125.748 151.384C126.141 151.351 126.532 151.289 126.916 151.2C128.018 150.906 128.979 150.228 129.628 149.288C130.095 148.618 130.381 147.836 130.456 147.022C130.499 146.126 130.456 145.132 130.456 144.073C130.456 143.014 130.456 141.877 130.456 140.676C130.456 140.079 130.456 139.461 130.456 138.822C130.487 138.183 130.432 137.542 130.294 136.917C130.122 136.259 129.809 135.646 129.378 135.121C128.946 134.595 128.406 134.171 127.794 133.876C126.527 133.166 124.962 133.457 123.411 133.407H113.428H90.5513C89.581 133.411 88.6361 133.719 87.848 134.287C87.06 134.855 86.4679 135.655 86.1543 136.576C85.9198 137.504 85.8361 138.464 85.9065 139.419V145.174C85.8355 146.089 85.9072 147.01 86.1189 147.903C86.3852 148.737 86.8794 149.48 87.5452 150.046C88.2111 150.613 89.022 150.98 89.8857 151.107C90.311 151.156 90.7394 151.173 91.1673 151.157H94.9977H99.8408H108.543L121.139 151.214H124.558H125.451C125.552 151.203 125.654 151.203 125.755 151.214H125.451H124.558L121.139 151.249L108.543 151.313H99.8408H91.1602C90.7157 151.329 90.2706 151.31 89.8291 151.257C88.9013 151.123 88.0296 150.73 87.3134 150.124C86.5973 149.517 86.0656 148.72 85.7791 147.825C85.6378 147.364 85.5592 146.886 85.5454 146.403C85.5454 145.934 85.5454 145.465 85.5454 144.982V138.005C85.5583 137.49 85.6466 136.98 85.8074 136.491C86.1441 135.496 86.7825 134.632 87.6331 134.019C88.4838 133.406 89.5041 133.075 90.5513 133.073H113.428H123.411H125.713C126.479 133.068 127.235 133.243 127.922 133.585C128.567 133.901 129.136 134.354 129.589 134.912C130.043 135.47 130.37 136.12 130.548 136.818C130.686 137.464 130.739 138.126 130.704 138.786C130.704 139.426 130.704 140.044 130.704 140.641C130.704 141.842 130.704 142.979 130.704 144.037C130.704 145.096 130.704 146.077 130.662 147C130.573 147.841 130.268 148.644 129.777 149.331C129.096 150.291 128.088 150.968 126.945 151.235C126.556 151.349 126.152 151.399 125.748 151.384Z" fill="#263238"/>
<path d="M175.36 202.104C196.844 202.104 214.26 184.627 214.26 163.066C214.26 141.506 196.844 124.028 175.36 124.028C153.877 124.028 136.461 141.506 136.461 163.066C136.461 184.627 153.877 202.104 175.36 202.104Z" fill="#263238"/>
<path d="M175.36 202.481C167.597 202.481 160.007 200.171 153.552 195.842C147.096 191.513 142.065 185.36 139.094 178.161C136.123 170.963 135.346 163.042 136.861 155.4C138.377 147.758 142.116 140.739 147.606 135.23C153.097 129.721 160.092 125.97 167.707 124.45C175.322 122.931 183.215 123.712 190.387 126.695C197.56 129.678 203.69 134.728 208.002 141.207C212.315 147.686 214.616 155.303 214.614 163.095C214.603 173.538 210.464 183.551 203.104 190.935C195.745 198.319 185.767 202.472 175.36 202.481ZM175.36 124.412C167.737 124.412 160.284 126.681 153.946 130.931C147.607 135.182 142.666 141.223 139.749 148.292C136.831 155.36 136.068 163.138 137.555 170.641C139.043 178.145 142.714 185.038 148.105 190.448C153.495 195.858 160.363 199.542 167.841 201.034C175.318 202.527 183.068 201.761 190.111 198.833C197.155 195.905 203.175 190.947 207.41 184.586C211.646 178.224 213.906 170.746 213.906 163.095C213.902 152.834 209.841 142.994 202.614 135.736C195.387 128.478 185.585 124.395 175.36 124.384V124.412Z" fill="#455A64"/>
<path d="M175.361 198.545C168.227 198.538 161.255 196.408 155.327 192.426C149.4 188.443 144.781 182.786 142.057 176.17C139.332 169.553 138.623 162.275 140.019 155.254C141.416 148.234 144.855 141.786 149.902 136.727C154.95 131.668 161.378 128.224 168.376 126.831C175.373 125.438 182.625 126.158 189.214 128.9C195.804 131.642 201.435 136.283 205.397 142.237C209.358 148.191 211.472 155.19 211.471 162.349C211.459 171.952 207.65 181.159 200.879 187.946C194.109 194.732 184.93 198.545 175.361 198.545ZM175.361 126.856C168.369 126.863 161.536 128.95 155.725 132.853C149.915 136.755 145.387 142.299 142.715 148.783C140.042 155.267 139.345 162.4 140.711 169.282C142.076 176.163 145.444 182.484 150.388 187.446C155.332 192.407 161.63 195.787 168.488 197.157C175.345 198.528 182.453 197.828 188.914 195.146C195.375 192.464 200.899 187.921 204.788 182.089C208.676 176.258 210.756 169.401 210.763 162.384C210.763 152.962 207.033 143.925 200.394 137.262C193.754 130.599 184.75 126.856 175.361 126.856Z" fill="#455A64"/>
<path d="M175.36 191.801C191.346 191.801 204.305 178.796 204.305 162.754C204.305 146.711 191.346 133.706 175.36 133.706C159.375 133.706 146.416 146.711 146.416 162.754C146.416 178.796 159.375 191.801 175.36 191.801Z" fill="#455A64"/>
<path d="M110.73 187.883C114.902 183.315 114.595 176.218 110.043 172.031C105.492 167.844 98.4196 168.153 94.2474 172.72C90.0751 177.288 90.3827 184.386 94.9343 188.573C99.4859 192.76 106.558 192.451 110.73 187.883Z" fill="#419F7D"/>
<path d="M113.676 180.283C113.597 179.367 113.455 178.458 113.251 177.562C112.987 176.519 112.567 175.522 112.005 174.606C111.268 173.388 110.307 172.322 109.173 171.465C107.803 170.426 106.21 169.722 104.521 169.412C102.583 169.059 100.587 169.228 98.7363 169.902C97.7377 170.259 96.7994 170.767 95.9537 171.408C95.5172 171.738 95.1011 172.094 94.7075 172.474C94.3207 172.878 93.9612 173.308 93.6313 173.76C92.2421 175.649 91.4926 177.935 91.4926 180.283C91.4926 182.631 92.2421 184.917 93.6313 186.806C93.9591 187.258 94.3187 187.685 94.7075 188.085C95.0977 188.469 95.5141 188.825 95.9537 189.151C96.7977 189.795 97.7365 190.303 98.7363 190.657C101.147 191.535 103.786 191.547 106.205 190.691C108.623 189.834 110.67 188.163 111.998 185.961C112.559 185.044 112.979 184.047 113.244 183.005C113.448 182.108 113.59 181.199 113.669 180.283C113.669 180.283 113.669 180.347 113.669 180.461C113.669 180.575 113.669 180.781 113.669 181.001C113.669 181.291 113.646 181.581 113.598 181.868C113.554 182.263 113.483 182.655 113.386 183.04C113.137 184.105 112.729 185.126 112.175 186.067C111.36 187.453 110.262 188.65 108.952 189.579C107.643 190.507 106.152 191.146 104.578 191.453C102.586 191.836 100.529 191.671 98.623 190.977C97.5894 190.614 96.6175 190.094 95.7412 189.435C95.2874 189.1 94.8568 188.735 94.4526 188.341C94.0517 187.925 93.678 187.484 93.3339 187.019C91.8964 185.064 91.1208 182.699 91.1208 180.269C91.1208 177.839 91.8964 175.474 93.3339 173.519C93.6736 173.055 94.045 172.616 94.4455 172.204C94.8515 171.81 95.2819 171.442 95.7342 171.103C96.6104 170.444 97.5823 169.924 98.6159 169.561C100.523 168.873 102.58 168.711 104.571 169.092C106.146 169.395 107.638 170.033 108.949 170.962C110.259 171.891 111.356 173.089 112.168 174.478C112.723 175.419 113.131 176.44 113.379 177.505C113.476 177.89 113.547 178.282 113.591 178.677C113.639 178.964 113.662 179.254 113.662 179.544C113.662 179.757 113.662 179.935 113.662 180.077C113.662 180.219 113.676 180.283 113.676 180.283Z" fill="#263238"/>
<path d="M107.261 172.161C106.633 171.855 105.984 171.592 105.321 171.373C103.492 170.822 101.541 170.837 99.7204 171.415C98.3845 171.849 97.1638 172.581 96.1497 173.555C95.1356 174.53 94.3545 175.722 93.8649 177.043C93.5821 177.802 93.4012 178.595 93.3268 179.402C93.2518 180.244 93.2899 181.093 93.4401 181.925C93.7566 183.68 94.5729 185.306 95.7904 186.606C97.008 187.906 98.5746 188.825 100.301 189.25C101.911 189.646 103.598 189.604 105.186 189.13C106.618 188.685 107.923 187.906 108.996 186.856C109.922 185.934 110.646 184.828 111.12 183.609C111.81 181.822 111.948 179.869 111.516 178.002C111.396 177.497 111.239 177.001 111.049 176.517C110.97 176.352 110.904 176.181 110.851 176.006C110.879 176.044 110.905 176.085 110.929 176.126C110.971 176.205 111.035 176.325 111.113 176.489C111.341 176.963 111.524 177.458 111.658 177.967C112.15 179.863 112.046 181.866 111.361 183.701C110.884 184.966 110.149 186.115 109.201 187.076C108.097 188.17 106.751 188.986 105.271 189.457C103.625 189.96 101.874 190.009 100.202 189.599C98.4029 189.166 96.7704 188.212 95.5076 186.856C94.2422 185.504 93.3938 183.814 93.0648 181.989C92.917 181.123 92.8813 180.241 92.9586 179.367C93.1987 176.96 94.3369 174.734 96.1448 173.135C97.1509 172.234 98.3393 171.563 99.6284 171.167C101.496 170.594 103.495 170.616 105.349 171.231C105.841 171.398 106.315 171.612 106.765 171.87L107.119 172.076L107.261 172.161Z" fill="#263238"/>
<path d="M271.031 203.71C271.031 203.817 226.842 203.902 172.351 203.902C117.86 203.902 73.6504 203.817 73.6504 203.71C73.6504 203.604 117.825 203.525 172.344 203.525C226.863 203.525 271.031 203.611 271.031 203.71Z" fill="#263238"/>
<path d="M277.127 250.202H276.582H274.989H268.864H246.342C227.324 250.131 201.027 249.89 172.04 249.556C143.053 249.222 116.735 248.938 97.6955 248.81L75.1798 248.668L69.0553 248.625H75.1798H97.7026C116.721 248.689 143.017 248.931 172.047 249.264C201.077 249.598 227.331 249.883 246.349 250.018L268.871 250.16L274.996 250.202H276.589H277.127Z" fill="#263238"/>
<path d="M255.397 281.261H85.7864V290.47H255.397V281.261Z" fill="#263238"/>
<path d="M89.546 285.865L77.134 319.759H265.735L251.411 285.865H89.546Z" fill="white"/>
<path d="M89.546 285.865C89.546 285.865 89.808 285.865 90.3319 285.865H92.6685H101.731L135.554 285.815L251.411 285.737H251.532L251.574 285.851C256.183 296.744 260.984 308.106 265.905 319.745L266.011 320H252.728L77.134 319.922H76.9854L77.0349 319.78L86.2394 294.797L88.6893 288.182C88.9654 287.471 89.1778 286.874 89.3194 286.483C89.461 286.093 89.5389 285.922 89.5389 285.922C89.5389 285.922 89.4752 286.121 89.3407 286.512L88.7247 288.224L86.3244 294.854C84.2003 300.659 81.1274 309.129 77.2332 319.83L77.1411 319.695L252.735 319.61H265.742L265.572 319.865C260.651 308.226 255.858 296.865 251.255 285.972L251.418 286.078L135.661 286L101.802 285.95H92.7109H90.3602L89.546 285.865Z" fill="#263238"/>
<g opacity="0.3">
<path d="M193.911 176.19C193.557 172.538 190.371 171.216 187.376 170.832C181.067 169.944 173.923 171.756 168.74 168.061C167.087 166.84 165.824 165.163 165.105 163.234C164.385 161.304 164.241 159.207 164.69 157.197C165.398 154.149 167.522 150.802 165.462 148.23C165.062 147.752 164.565 147.364 164.005 147.093C163.445 146.821 162.834 146.671 162.212 146.652C161.031 146.621 159.858 146.864 158.785 147.363C156.468 148.389 154.583 150.2 153.461 152.479C150.849 157.873 150.371 164.061 152.123 169.795C153.192 173.37 155.049 176.657 157.555 179.414C160.062 182.172 163.153 184.329 166.602 185.726C170.072 187.069 173.792 187.638 177.503 187.392C181.214 187.147 184.827 186.093 188.091 184.305C190.548 182.947 192.863 181.1 193.692 178.272C193.894 177.598 193.969 176.892 193.911 176.19Z" fill="white"/>
</g>
<g opacity="0.3">
<path d="M177.994 142.737C177.996 143.326 177.823 143.903 177.497 144.393C177.172 144.884 176.709 145.267 176.166 145.493C175.624 145.719 175.027 145.779 174.451 145.664C173.875 145.55 173.345 145.266 172.93 144.849C172.515 144.432 172.232 143.901 172.118 143.323C172.003 142.745 172.063 142.146 172.288 141.601C172.514 141.057 172.895 140.592 173.384 140.265C173.873 139.939 174.447 139.765 175.035 139.767C175.82 139.767 176.573 140.08 177.128 140.637C177.683 141.194 177.994 141.949 177.994 142.737Z" fill="white"/>
</g>
<path d="M165.136 188.427C164.964 188.377 164.798 188.308 164.641 188.221C164.329 188.064 163.848 187.872 163.274 187.51C161.618 186.605 160.062 185.529 158.63 184.298C156.499 182.473 154.645 180.345 153.128 177.981C149.321 172.16 147.856 165.105 149.029 158.242C149.475 155.479 150.32 152.796 151.535 150.277C152.356 148.576 153.353 146.966 154.509 145.473C154.905 144.94 155.273 144.571 155.5 144.301C155.613 144.162 155.736 144.031 155.868 143.91C155.777 144.066 155.673 144.213 155.557 144.351C155.351 144.635 155.004 145.012 154.629 145.566C153.53 147.077 152.581 148.693 151.797 150.39C150.613 152.906 149.795 155.579 149.368 158.327C148.244 165.106 149.689 172.062 153.418 177.825C154.905 180.171 156.717 182.293 158.799 184.128C160.205 185.367 161.727 186.467 163.345 187.411C163.904 187.766 164.379 187.972 164.676 188.121C164.839 188.207 164.994 188.31 165.136 188.427Z" fill="white"/>
<path d="M177.145 190.316C176.153 190.443 175.149 190.443 174.157 190.316C173.155 190.32 172.157 190.203 171.183 189.968C172.177 189.841 173.184 189.841 174.178 189.968C175.177 189.965 176.173 190.081 177.145 190.316Z" fill="white"/>
<path d="M202.344 166.697C202.266 166.697 202.592 165.276 202.698 163.024C202.698 162.448 202.733 161.83 202.698 161.162C202.662 160.494 202.613 159.777 202.542 159.03C202.152 155.788 201.142 152.652 199.568 149.793C199.186 149.147 198.86 148.514 198.457 147.974C198.053 147.434 197.749 146.915 197.366 146.461C195.95 144.677 194.888 143.746 194.938 143.689C195.215 143.871 195.471 144.084 195.702 144.322C195.997 144.577 196.276 144.85 196.538 145.139C196.849 145.48 197.246 145.85 197.572 146.297C197.974 146.778 198.352 147.278 198.704 147.796C199.108 148.344 199.469 148.976 199.866 149.623C201.495 152.513 202.519 155.707 202.875 159.009C202.953 159.717 202.995 160.429 203.002 161.141C203.023 161.769 203.006 162.398 202.953 163.024C202.926 163.54 202.872 164.055 202.79 164.566C202.746 164.953 202.68 165.337 202.592 165.717C202.537 166.05 202.454 166.378 202.344 166.697Z" fill="white"/>
<g opacity="0.3">
<path d="M67.7454 248.695V258.402H273.438V250.159L67.7454 248.695Z" fill="black"/>
</g>
<path d="M95.0756 285.865L85.3896 315.545H257.479L246.264 285.865H95.0756Z" fill="#455A64"/>
<path d="M252.169 285.865C252.169 285.965 215.577 286.05 170.461 286.05C125.344 286.05 88.7458 285.965 88.7458 285.865C88.7458 285.766 125.323 285.681 170.461 285.681C215.598 285.681 252.169 285.759 252.169 285.865Z" fill="#263238"/>
<path d="M250.427 138.154L262.973 141.629L253.705 143.903C248.968 144.663 246.851 146.702 245.994 149.353L243.099 172.801L239.558 149.353C239.122 148.26 238.46 147.273 237.617 146.455C236.774 145.637 235.768 145.007 234.666 144.606L222.629 141.657L235.331 138.048C236.38 137.615 237.33 136.972 238.122 136.159C238.915 135.345 239.534 134.377 239.941 133.315L243.106 106.783L245.378 132.74C245.748 133.972 246.395 135.101 247.271 136.04C248.147 136.98 249.227 137.703 250.427 138.154Z" fill="white"/>
<path d="M256.891 170.371L259.816 171.181L257.656 171.714C256.552 171.891 256.063 172.367 255.858 172.979L255.185 178.436L254.357 172.971C254.256 172.717 254.102 172.487 253.905 172.297C253.708 172.107 253.474 171.962 253.217 171.87L250.42 171.16L253.38 170.321C253.622 170.219 253.842 170.069 254.026 169.879C254.209 169.69 254.353 169.466 254.449 169.22L255.157 163.045L255.688 169.085C255.773 169.379 255.926 169.649 256.135 169.873C256.345 170.097 256.604 170.267 256.891 170.371Z" fill="white"/>
</svg>
