<svg width="320" height="320" viewBox="0 0 320 320" fill="none" xmlns="http://www.w3.org/2000/svg">
<g clip-path="url(#clip0_1384_8548)">
<path opacity="0.5" d="M37.0618 301.826C29.2144 306.417 16.495 306.417 8.65655 301.826C0.809144 297.235 0.809144 289.799 8.65655 285.208C16.504 280.617 29.2234 280.617 37.0618 285.208C44.9093 289.799 44.9093 297.235 37.0618 301.826Z" fill="#FF7A45"/>
<path d="M45.7093 283.471V276.974H44.4957C43.4081 275.078 41.5923 273.291 39.0124 271.784C30.0863 266.564 15.614 266.564 6.69693 271.784C4.11708 273.291 2.3013 275.078 1.21363 276.974H0.000107868V283.441C-0.0178702 286.875 2.21141 290.308 6.68794 292.923C15.614 298.143 30.0863 298.143 39.0035 292.923C43.462 290.318 45.7003 286.895 45.7003 283.471H45.7093Z" fill="#FA541C"/>
<path d="M22.8501 290.338C35.4698 290.338 45.7002 284.354 45.7002 276.973C45.7002 269.593 35.4698 263.609 22.8501 263.609C10.2303 263.609 0 269.593 0 276.973C0 284.354 10.2303 290.338 22.8501 290.338Z" fill="#FA541C"/>
<path d="M39.0125 286.425C30.0864 291.645 15.614 291.645 6.69694 286.425C2.41817 283.92 0.215857 280.676 0.0360762 277.402C-0.152693 280.965 2.04962 284.558 6.69694 287.273C15.623 292.493 30.0954 292.493 39.0125 287.273C43.6598 284.558 45.8621 280.955 45.6733 277.402C45.4935 280.676 43.2912 283.93 39.0125 286.425Z" fill="white"/>
<path d="M11.8386 281.395C11.4521 281.165 11.2363 280.866 11.2363 280.546L11.2633 271.843C11.2633 271.184 12.1892 270.646 13.3218 270.646C14.4544 270.646 15.3713 271.184 15.3713 271.853L15.3533 279.069L36.046 276.504C37.1607 276.364 38.2483 276.784 38.482 277.432C38.7158 278.081 38.0056 278.72 36.9 278.86L13.7263 281.734C13.115 281.814 12.4858 281.724 12.0004 281.494C11.9465 281.465 11.8925 281.445 11.8386 281.415V281.395Z" fill="white"/>
<path opacity="0.5" d="M305.698 203.686L228.671 154.162C224.492 151.467 217.175 151.796 212.338 154.89L50.689 258.18C45.8529 261.274 45.3225 265.955 49.5024 268.65L126.529 318.174C130.709 320.869 138.026 320.539 142.862 317.445L304.512 214.155C309.348 211.061 309.878 206.38 305.698 203.686Z" fill="#419F7D"/>
<path d="M124.282 299.829L44.1181 248.289C41.4843 246.592 40.2528 244.316 40.3427 241.941H40.3247L40.3607 229.036L44.8192 234.835C45.1069 234.625 45.4035 234.415 45.7181 234.206L209.705 129.419C216.213 125.257 226.056 124.818 231.683 128.441L310.714 179.262C312.314 177.316 315.667 173.214 315.667 173.214L315.631 185.85C315.748 188.694 313.923 191.728 310.247 194.074L146.26 298.861C139.752 303.023 129.909 303.462 124.282 299.839V299.829Z" fill="#419F7D"/>
<path d="M80.9369 268.211L85.5573 271.175C86.1685 271.564 86.6629 271.155 86.6629 270.247C86.6629 269.339 86.1685 268.281 85.5573 267.892L80.9369 264.927C80.3256 264.538 79.8223 264.947 79.8223 265.855C79.8223 266.764 80.3167 267.822 80.9369 268.211Z" fill="#419F7D"/>
<path d="M209.696 129.419C216.204 125.257 226.047 124.818 231.674 128.441L310.705 179.262C312.305 177.316 315.658 173.214 315.658 173.214L315.622 185.85C315.739 188.694 313.914 191.728 310.238 194.074L146.251 298.861C142.853 301.026 138.557 302.174 134.413 302.274L134.565 177.426L209.687 129.429L209.696 129.419Z" fill="#54A98A"/>
<path d="M311.874 166.997L231.71 115.456C226.083 111.833 216.24 112.273 209.732 116.435L45.745 221.221C39.2369 225.383 38.5178 231.691 44.1449 235.304L124.309 286.844C129.936 290.467 139.779 290.028 146.287 285.866L310.274 181.079C316.782 176.917 317.501 170.61 311.865 166.997H311.874Z" fill="#B9ECD9"/>
<path d="M124.255 288.221L44.091 236.681C41.1876 234.815 39.983 232.23 40.3786 229.595C40.5224 231.731 41.7539 233.757 44.145 235.294L124.309 286.834C129.936 290.457 139.779 290.018 146.287 285.856L310.274 181.069C313.429 179.053 315.209 176.538 315.577 174.062C315.766 176.957 313.95 180.051 310.211 182.446L146.224 287.233C139.716 291.395 129.873 291.834 124.246 288.211L124.255 288.221Z" fill="white"/>
<path d="M305.698 169.032L228.671 119.508C224.492 116.813 217.174 117.143 212.338 120.237L50.6799 223.527C45.8438 226.621 45.3135 231.312 49.4934 233.996L126.52 283.52C130.7 286.215 138.017 285.886 142.853 282.792L304.503 179.492C309.339 176.398 309.869 171.707 305.689 169.022L305.698 169.032Z" fill="#419F7D"/>
<path d="M145.919 257.801L91.571 222.958L95.0408 220.732L149.388 255.575L145.919 257.801Z" fill="#B9ECD9"/>
<path d="M108.102 247.64L80.5864 230.004L84.0562 227.778L111.572 245.414L108.102 247.64Z" fill="#B9ECD9"/>
<path d="M121.46 256.203L112.533 250.484L116.003 248.259L124.929 253.978L121.46 256.203Z" fill="#FA541C"/>
<path d="M134.934 264.847L126.008 259.118L129.478 256.902L138.404 262.621L134.934 264.847Z" fill="white"/>
<path d="M108.416 240.794L86.0786 226.482L89.5484 224.256L111.886 238.578L108.416 240.794Z" fill="white"/>
<path d="M135.68 258.279L113.342 243.957L116.812 241.731L139.15 256.054L135.68 258.279Z" fill="#B9ECD9"/>
<path d="M119.14 227.669C118.026 228.388 116.21 228.388 115.095 227.669C113.981 226.95 113.981 225.793 115.095 225.074C116.21 224.356 118.026 224.356 119.14 225.074C120.255 225.793 120.255 226.95 119.14 227.669Z" fill="#FA541C"/>
<path d="M125.19 231.541C124.075 232.26 122.259 232.26 121.145 231.541C120.03 230.823 120.03 229.665 121.145 228.946C122.259 228.228 124.075 228.228 125.19 228.946C126.305 229.665 126.305 230.823 125.19 231.541Z" fill="white"/>
<path d="M131.239 235.424C130.125 236.143 128.309 236.143 127.194 235.424C126.08 234.705 126.08 233.548 127.194 232.829C128.309 232.11 130.125 232.11 131.239 232.829C132.354 233.548 132.354 234.705 131.239 235.424Z" fill="#B9ECD9"/>
<path d="M137.289 239.297C136.175 240.016 134.359 240.016 133.244 239.297C132.13 238.578 132.13 237.421 133.244 236.702C134.359 235.983 136.175 235.983 137.289 236.702C138.404 237.421 138.404 238.578 137.289 239.297Z" fill="#FA541C"/>
<path d="M143.33 243.179C142.215 243.897 140.399 243.897 139.285 243.179C138.17 242.46 138.17 241.302 139.285 240.584C140.399 239.865 142.215 239.865 143.33 240.584C144.444 241.302 144.444 242.46 143.33 243.179Z" fill="white"/>
<path d="M264.897 169.413L255.746 163.544L259.297 161.269L268.448 167.137L264.897 169.413Z" fill="#FA541C"/>
<path d="M277.634 177.587L268.484 171.718L272.043 169.433L281.194 175.301L277.634 177.587Z" fill="white"/>
<path d="M224.015 142.964L214.864 137.095L218.424 134.819L227.575 140.688L224.015 142.964Z" fill="white"/>
<path d="M262.857 175.321L250.11 167.156L253.67 164.881L266.407 173.045L262.857 175.321Z" fill="white"/>
<path d="M272.007 181.19L266.416 177.607L269.967 175.331L275.567 178.914L272.007 181.19Z" fill="#B9ECD9"/>
<path opacity="0.5" d="M304.512 284.439L289.024 274.508L304.512 264.577L320 274.508L304.512 284.439Z" fill="#FF7A45"/>
<path d="M320 261.903L304.512 271.833V251.972L320 242.041V261.903Z" fill="#FF7A45"/>
<path d="M304.512 251.972L289.024 242.041L304.512 232.12L320 242.041L304.512 251.972Z" fill="#FA541C"/>
<path d="M304.512 271.833L289.024 261.903V242.041L304.512 251.972V271.833Z" fill="#FA541C"/>
<path d="M298.93 261.104L294.597 258.33V252.771L298.93 255.545V261.104Z" fill="white"/>
<path opacity="0.5" d="M36.8011 205.492L20.6748 195.162L36.8011 184.822L52.9274 195.162L36.8011 205.492Z" fill="#419F7D"/>
<path d="M52.9273 182.037L36.801 192.367V171.697L52.9273 161.357V182.037Z" fill="#419F7D"/>
<path d="M36.8011 171.697L20.6838 161.357L36.8011 151.027L52.9274 161.357L36.8011 171.697Z" fill="#80C7AD"/>
<path d="M36.8011 192.367L20.6838 182.037V161.357L36.8011 171.697V192.367Z" fill="#54A98A"/>
<path d="M30.9942 181.199L26.4907 178.314V172.525L30.9942 175.42V181.199Z" fill="white"/>
<path d="M146.692 21.858L113.145 0.349634C112.48 -0.0795348 111.877 -0.0895154 111.41 0.199924V0.179962L108.156 2.26592C108.156 2.26592 109.594 2.8448 110.439 3.19412V30.3216C110.439 32.5273 111.644 35.0923 113.136 36.0505L145.2 56.6006V59.7845L148.49 57.6786H148.472C149.029 57.2993 149.38 56.4709 149.38 55.2832V27.5869C149.38 25.3811 148.175 22.8161 146.683 21.858H146.692Z" fill="#FF7A45"/>
<path d="M143.384 59.6652L109.837 38.1569C108.345 37.1987 107.14 34.6337 107.14 32.428V4.73163C107.14 2.52591 108.345 1.50788 109.837 2.46602L143.384 23.9743C144.876 24.9325 146.081 27.4975 146.081 29.7033V57.3996C146.081 59.6053 144.876 60.6233 143.384 59.6652Z" fill="#FA541C"/>
<path d="M144.202 23.3154L110.655 1.80704C109.711 1.19822 108.884 1.38786 108.399 2.16635C108.812 2.04658 109.307 2.12642 109.828 2.46577L143.375 23.9741C144.867 24.9322 146.072 27.4973 146.072 29.703V57.3993C146.072 58.2078 145.91 58.8565 145.631 59.3056C146.386 59.0861 146.899 58.1678 146.899 56.7406V29.0443C146.899 26.8385 145.694 24.2735 144.202 23.3154Z" fill="white"/>
<path d="M121.118 28.6146C121.118 30.2215 120.102 30.8703 118.853 30.0618C117.603 29.2634 116.588 27.3072 116.588 25.7103C116.588 24.1134 117.603 23.4546 118.853 24.2631C120.102 25.0615 121.118 27.0177 121.118 28.6146Z" fill="white"/>
<path d="M127.315 34.635C128.2 34.0672 128.202 32.2293 127.318 30.5299C126.435 28.8304 125 27.913 124.115 28.4808C123.229 29.0485 123.227 30.8864 124.111 32.5859C124.995 34.2853 126.429 35.2027 127.315 34.635Z" fill="white"/>
<path d="M134.164 39.0363C135.049 38.4686 135.051 36.6307 134.167 34.9312C133.284 33.2318 131.849 32.3144 130.964 32.8821C130.078 33.4499 130.076 35.2878 130.96 36.9872C131.844 38.6867 133.278 39.6041 134.164 39.0363Z" fill="white"/>
<path d="M171.367 221.681L226.415 186.389C232.375 182.566 231.629 175.899 224.743 171.488C217.858 167.076 207.458 166.597 201.498 170.42L146.449 205.711C140.489 209.534 141.236 216.201 148.121 220.613C155.007 225.024 165.407 225.503 171.367 221.681Z" fill="#006E46"/>
<path d="M201.57 163.972L201.588 156.786L209.237 113.989L201.678 108.809L186.54 118.091L186.432 173.254C186.432 176.967 187.682 179.472 189.605 180.29L196.338 184.991L197.183 181.438L198.343 174.97C200.293 171.777 201.57 167.704 201.579 163.972H201.57Z" fill="#54A98A"/>
<path d="M201.534 184.831C197.354 187.396 193.974 184.532 193.983 178.433L194.091 123.27L209.228 113.988L209.12 169.151C209.111 175.25 205.714 182.266 201.525 184.821L201.534 184.831Z" fill="#54A98A"/>
<path d="M236.609 98.5077C244.33 93.5578 244.33 77.506 236.608 62.6551C228.885 47.8042 216.366 39.7779 208.644 44.7278C200.922 49.6777 200.923 65.7295 208.645 80.5804C216.367 95.4313 228.887 103.458 236.609 98.5077Z" fill="#419F7D"/>
<path d="M236.798 98.3692L179.259 135.008L148.319 83.4182L208.276 44.9727L236.798 98.3692Z" fill="#419F7D"/>
<path d="M214.172 102.99C214.172 88.5876 205.067 71.0815 193.83 63.8755C188.725 60.6018 184.068 60.0329 180.491 61.7196L180.419 61.7496C180.392 61.7695 180.356 61.7795 180.329 61.7995C180.176 61.8793 180.014 61.9592 179.861 62.049C158.62 73.6365 135.123 79.1758 111.464 78.1578L104.767 77.8683L159.321 181.667L162.279 175.33C173.057 152.204 188.805 132.403 208.114 117.661C211.853 115.326 214.172 110.246 214.172 102.98V102.99Z" fill="#80C7AD"/>
<path d="M165.686 158.213C165.686 130.587 148.22 96.992 126.673 83.1788C115.931 76.2922 106.196 75.6234 99.1399 80.1147L99.1039 80.1347C99.0859 80.1447 99.068 80.1547 99.05 80.1647L92.6498 84.3266L94.8881 83.8076C90.3396 89.0674 87.6609 97.3713 87.6609 108.18C87.6609 135.807 105.127 169.402 126.673 183.215C135.132 188.634 142.952 190.201 149.344 188.435L148.328 190.092L154.225 186.269C154.225 186.269 154.287 186.229 154.314 186.209L154.53 186.069C161.434 181.468 165.695 171.837 165.695 158.203L165.686 158.213Z" fill="#B9ECD9"/>
<path d="M161.119 161.167C161.119 133.541 143.653 99.9459 122.107 86.1327C111.509 79.3358 101.891 78.5973 94.8611 82.8889L93.8813 83.5277C93.5487 83.7672 93.2161 84.0168 92.9015 84.2763L94.8881 83.8171C90.3396 89.077 87.6609 97.3809 87.6609 108.19C87.6609 135.816 105.127 169.411 126.673 183.225C135.132 188.644 142.952 190.211 149.344 188.444L148.418 189.952C156.22 185.81 161.119 175.789 161.119 161.167Z" fill="white"/>
<path d="M148.391 190.063C163.628 180.295 163.629 148.624 148.393 119.323C133.157 90.0222 108.453 74.1873 93.2162 83.9549C77.9792 93.7225 77.9784 125.394 93.2145 154.694C108.451 183.995 133.154 199.83 148.391 190.063Z" fill="#54A98A"/>
<path d="M145.006 183.554C158.373 174.985 158.373 147.2 145.006 121.494C131.639 95.7877 109.967 81.8949 96.6006 90.4636C83.2339 99.0322 83.234 126.818 96.6009 152.524C109.968 178.23 131.64 192.123 145.006 183.554Z" fill="#419F7D"/>
<path d="M122.403 180.13C103.5 168.014 88.1733 138.541 88.1733 114.298C88.1733 101.573 92.3981 92.8196 99.1489 89.1367C91.4723 92.2607 86.5732 101.363 86.5732 115.066C86.5732 139.3 101.9 168.772 120.803 180.899C129.783 186.658 137.945 187.456 144.058 184.123C138.161 186.528 130.619 185.41 122.403 180.14V180.13Z" fill="white"/>
<mask id="mask0_1384_8548" style="mask-type:luminance" maskUnits="userSpaceOnUse" x="86" y="87" width="70" height="100">
<path d="M145.006 183.554C158.373 174.985 158.373 147.2 145.006 121.494C131.639 95.7877 109.967 81.8949 96.6006 90.4636C83.2339 99.0322 83.234 126.818 96.6009 152.524C109.968 178.23 131.64 192.123 145.006 183.554Z" fill="white"/>
</mask>
<g mask="url(#mask0_1384_8548)">
<path d="M115.68 127.922L165.353 85.2842L183.385 120.027L125.091 146.585L115.68 127.922Z" fill="#B9ECD9"/>
<path d="M125.635 146.3C128.305 144.588 128.306 139.041 125.638 133.909C122.97 128.778 118.642 126.005 115.972 127.716C113.302 129.428 113.301 134.976 115.969 140.107C118.638 145.239 122.965 148.012 125.635 146.3Z" fill="#54A98A"/>
</g>
<path d="M190.333 164.451L190.064 164.282C189.066 163.653 188.266 161.946 188.257 160.479L188.23 149.84C188.23 148.372 189.03 147.694 190.019 148.322L190.288 148.492C191.286 149.121 192.086 150.828 192.095 152.295L192.122 162.934C192.122 164.401 191.322 165.08 190.333 164.451Z" fill="white"/>
</g>
<defs>
<clipPath id="clip0_1384_8548">
<rect width="320" height="320" fill="white"/>
</clipPath>
</defs>
</svg>
