<svg width="320" height="347" viewBox="0 0 320 347" fill="none" xmlns="http://www.w3.org/2000/svg">
<path d="M192.709 264.85L116.919 307.696L123.001 311.442L192.709 271.64L208.849 281.708L233.878 267.192L231.539 261.807L208.849 274.684L192.709 264.85Z" fill="#FABD14"/>
<g filter="url(#filter0_f_1071_58593)">
<path d="M243.275 292.783L152.267 320L57.5437 264.327L191.813 273.918L243.275 292.783Z" fill="url(#paint0_linear_1071_58593)" fill-opacity="0.5"/>
</g>
<path d="M63.4564 1.58195L52.3977 7.11634L156.959 67.5221L156.023 318.979L171.57 308.42C174.136 306.677 175.673 303.775 175.673 300.671V81.4255C175.673 67.1763 168.062 54.0141 155.719 46.9149L77.6102 1.99214C73.2592 -0.510298 67.9449 -0.664311 63.4564 1.58195Z" fill="#419F7D"/>
<g filter="url(#filter1_d_1071_58593)">
<path d="M146.327 55.3674L61.0396 6.30918C56.0493 3.43873 49.8245 7.04425 49.8245 12.8051V246.296C49.8245 255.931 54.9254 264.846 63.229 269.721L146.419 318.568C153.27 322.591 161.898 317.66 161.919 309.71L162.523 83.4673C162.554 71.8701 156.373 61.1459 146.327 55.3674Z" fill="white"/>
</g>
<path d="M143.401 55.5466L61.4333 9.54798C56.1318 6.57287 49.5906 10.4081 49.5906 16.4915V239.697C49.5906 251.973 56.0796 263.333 66.6492 269.56L146.433 316.257C152.346 319.741 160.499 315.406 160.524 308.538V86.3159C160.57 73.5653 154.513 61.7823 143.401 55.5466Z" fill="#E9EEFF"/>
<path d="M143.942 62.7925L64.8198 16.6114C60.4534 14.0629 54.9707 17.2154 54.9707 22.2745V243.305C54.9707 251.604 59.3603 259.283 66.5086 263.489L144.985 309.661C149.351 312.23 154.854 309.079 154.854 304.009V81.8045C154.854 73.9757 150.699 66.7362 143.942 62.7925Z" fill="url(#paint1_linear_1071_58593)"/>
<path d="M54.9707 155.79V203.084L70.1754 162.814L90.9941 138.464L96.1403 89.7647L128.421 53.7085L111.579 43.875L90.9941 83.9114L76.4912 134.718L54.9707 155.79Z" fill="url(#paint2_linear_1071_58593)" fill-opacity="0.5"/>
<path fill-rule="evenodd" clip-rule="evenodd" d="M54.9707 47.8555L109.447 78.5506C110.038 78.8847 110.501 79.4074 110.761 80.0354L118.235 98.0777C118.292 98.2142 118.39 98.3294 118.516 98.4069L140.545 111.976V60.8095L142.884 62.174V113.433L154.854 121.373V124.182L142.884 116.219V144.157L154.854 151.107V154.385L142.884 146.86V193.287L154.854 201.211V204.021L142.884 196.035V209.326L154.854 216.196V219.005L142.884 212.042V249.529L154.854 256.466V259.51L142.884 252.251V307.229H140.545V250.863L128.664 243.808C128.412 243.659 128.095 243.681 127.867 243.864L120.683 249.616L87.4853 275.899L84.6783 274.26L109.543 255.261L84.8612 212.969L54.9707 226.263V223.688L84.1706 210.713V181.794L69.4774 172.744C68.5781 172.19 68.0302 171.209 68.0302 170.152V103.642L54.9707 96.0865V93.2769L68.0302 100.939V57.8404L54.9707 50.4309V47.8555ZM70.3694 59.162V102.29L140.545 142.806V114.725L117.29 100.401C116.745 100.065 116.32 99.5661 116.075 98.9745L108.6 80.9322C108.54 80.7873 108.434 80.6666 108.297 80.5895L70.3694 59.162ZM140.545 145.509L121.13 134.3V179.909L140.545 191.848V145.509ZM140.545 194.596L121.13 182.657V196.517L140.545 207.949V194.596ZM140.545 210.665L121.13 199.234V246.26L126.406 242.035C127.394 241.244 128.769 241.148 129.857 241.794L140.545 248.14V210.665ZM118.79 248.12V198.936L87.0274 212.039L111.41 253.819L118.79 248.12ZM86.5098 209.72L118.79 196.403V182.167L97.7436 188.909C96.8989 189.179 95.9783 189.067 95.223 188.602L86.5098 183.235V209.72ZM118.79 179.709L97.0306 186.679C96.8357 186.741 96.6233 186.715 96.449 186.608L70.7034 170.75C70.4958 170.622 70.3694 170.396 70.3694 170.152V104.993L118.79 132.949V179.709Z" fill="white"/>
<path fill-rule="evenodd" clip-rule="evenodd" d="M54.9707 47.8555L109.447 78.5506C110.038 78.8847 110.501 79.4074 110.761 80.0354L118.235 98.0777C118.292 98.2142 118.39 98.3294 118.516 98.4069L140.545 111.976V60.8095L142.884 62.174V113.433L154.854 121.373V124.182L142.884 116.219V144.157L154.854 151.107V154.385L142.884 146.86V193.287L154.854 201.211V204.021L142.884 196.035V209.326L154.854 216.196V219.005L142.884 212.042V249.529L154.854 256.466V259.51L142.884 252.251V307.229H140.545V250.863L128.664 243.808C128.412 243.659 128.095 243.681 127.867 243.864L120.683 249.616L87.4853 275.899L84.6783 274.26L109.543 255.261L84.8612 212.969L54.9707 226.263V223.688L84.1706 210.713V181.794L69.4774 172.744C68.5781 172.19 68.0302 171.209 68.0302 170.152V103.642L54.9707 96.0865V93.2769L68.0302 100.939V57.8404L54.9707 50.4309V47.8555ZM70.3694 59.162V102.29L140.545 142.806V114.725L117.29 100.401C116.745 100.065 116.32 99.5661 116.075 98.9745L108.6 80.9322C108.54 80.7873 108.434 80.6666 108.297 80.5895L70.3694 59.162ZM140.545 145.509L121.13 134.3V179.909L140.545 191.848V145.509ZM140.545 194.596L121.13 182.657V196.517L140.545 207.949V194.596ZM140.545 210.665L121.13 199.234V246.26L126.406 242.035C127.394 241.244 128.769 241.148 129.857 241.794L140.545 248.14V210.665ZM118.79 248.12V198.936L87.0274 212.039L111.41 253.819L118.79 248.12ZM86.5098 209.72L118.79 196.403V182.167L97.7436 188.909C96.8989 189.179 95.9783 189.067 95.223 188.602L86.5098 183.235V209.72ZM118.79 179.709L97.0306 186.679C96.8357 186.741 96.6233 186.715 96.449 186.608L70.7034 170.75C70.4958 170.622 70.3694 170.396 70.3694 170.152V104.993L118.79 132.949V179.709Z" fill="white"/>
<path fill-rule="evenodd" clip-rule="evenodd" d="M88.1634 64.375L111.841 77.7521L119.819 97.0099L144.755 112.369V166.616L123.001 153.036V311.443L116.919 307.696V142.065L138.674 155.645V115.771L114.955 101.162L107.026 82.0219L85.1738 69.6762L88.1634 64.375Z" fill="#FFC53D"/>
<path d="M87.571 71.3609C85.3141 72.7069 81.7006 70.8013 79.5 67.1046C77.2995 63.408 77.3451 59.3201 79.602 57.9742C81.8589 56.6282 85.4724 58.5338 87.673 62.2305C89.8736 65.9271 89.8279 70.015 87.571 71.3609Z" fill="#E0FFF4"/>
<path fill-rule="evenodd" clip-rule="evenodd" d="M84.4039 74.6287C86.6627 75.8198 88.6174 75.8757 89.968 75.0702C91.3186 74.2648 92.1999 72.5175 92.2285 69.9623C92.2567 67.4353 91.4264 64.3588 89.6551 61.3833C87.8837 58.4077 85.5758 56.2125 83.3421 55.0345C81.0833 53.8433 79.1286 53.7874 77.778 54.5929C76.4274 55.3984 75.5461 57.1456 75.5175 59.7008C75.4893 62.2278 76.3196 65.3043 78.091 68.2798C79.8623 71.2554 82.1702 73.4507 84.4039 74.6287ZM76.8852 68.9989C80.6482 75.3201 86.8272 78.5786 90.6864 76.277C94.5456 73.9755 94.6237 66.9854 90.8608 60.6642C87.0978 54.3431 80.9188 51.0845 77.0596 53.3861C73.2004 55.6876 73.1223 62.6777 76.8852 68.9989Z" fill="#E0FFF4"/>
<g filter="url(#filter2_f_1071_58593)">
<path d="M266.9 257.778L234.152 266.667C238.362 254.659 251.275 232.795 269.24 241.404C287.204 250.012 275.165 255.906 266.9 257.778Z" fill="url(#paint3_linear_1071_58593)" fill-opacity="0.5"/>
</g>
<path d="M173.333 129.973C173.333 122.246 164.678 124.588 164.678 134.187V152.683C164.678 158.537 173.333 157.834 173.333 147.533V129.973Z" fill="#CDE8B0"/>
<path d="M204.444 185.373C204.444 202.418 223.938 247.105 233.684 267.319C248.655 260.763 270.409 236.882 270.409 214.409C270.409 179.286 245.135 161.118 232.515 160.087C222.69 159.284 204.444 164.067 204.444 185.373Z" fill="#A5DE65"/>
<path d="M204.444 185.372C204.444 202.417 223.938 247.105 233.684 267.318C247.251 258.655 264.795 234.434 264.795 217.916C264.795 180.456 233.684 162.009 221.053 162.892C218.673 163.058 204.444 164.066 204.444 185.372Z" fill="#FAFEF9"/>
<path d="M204.444 185.373C204.444 202.417 223.938 247.105 233.684 267.318C247.251 258.656 264.327 232.667 262.69 215.341C258.84 174.603 227.368 163.364 220.585 163.364C218.199 163.364 204.444 164.067 204.444 185.373Z" fill="#419F7D"/>
<path d="M238.233 196.377C242.653 203.881 247.111 210.847 245.017 214.873C243.847 215.575 245.067 215.863 243.976 216.512C237.888 220.137 228.538 214.873 222.856 205.636C217.778 196.377 219.57 185.899 223.625 183.968C224.986 183.32 226.537 182.563 228.408 183.499C231.802 185.321 234.655 190.302 238.233 196.377Z" fill="#EFEFEF"/>
<path d="M240 196.377C244.42 203.881 247.251 205.976 248.655 210.425C248.187 211.596 249.123 214.171 244.21 216.746C239.298 219.322 230.007 214.779 224.622 205.637C219.238 196.495 220.428 185.344 224.483 183.413C225.843 182.765 228.304 182.563 230.175 183.5C233.568 185.322 236.422 190.302 240 196.377Z" fill="#A5DE65"/>
<path d="M244.248 194.983C249.409 203.745 249.871 213.022 246.752 214.884C243.634 216.747 235.728 211.818 230.567 203.057C225.406 194.295 226.184 183.981 228.063 183.155C229.941 182.33 239.088 186.221 244.248 194.983Z" fill="white"/>
<defs>
<filter id="filter0_f_1071_58593" x="31.1437" y="237.927" width="238.531" height="108.473" filterUnits="userSpaceOnUse" color-interpolation-filters="sRGB">
<feFlood flood-opacity="0" result="BackgroundImageFix"/>
<feBlend mode="normal" in="SourceGraphic" in2="BackgroundImageFix" result="shape"/>
<feGaussianBlur stdDeviation="13.2" result="effect1_foregroundBlur_1071_58593"/>
</filter>
<filter id="filter1_d_1071_58593" x="41.8245" y="1.30176" width="128.698" height="330.698" filterUnits="userSpaceOnUse" color-interpolation-filters="sRGB">
<feFlood flood-opacity="0" result="BackgroundImageFix"/>
<feColorMatrix in="SourceAlpha" type="matrix" values="0 0 0 0 0 0 0 0 0 0 0 0 0 0 0 0 0 0 127 0" result="hardAlpha"/>
<feOffset dy="4"/>
<feGaussianBlur stdDeviation="4"/>
<feComposite in2="hardAlpha" operator="out"/>
<feColorMatrix type="matrix" values="0 0 0 0 0.254902 0 0 0 0 0.623529 0 0 0 0 0.490196 0 0 0 0.1 0"/>
<feBlend mode="normal" in2="BackgroundImageFix" result="effect1_dropShadow_1071_58593"/>
<feBlend mode="normal" in="SourceGraphic" in2="effect1_dropShadow_1071_58593" result="shape"/>
</filter>
<filter id="filter2_f_1071_58593" x="216.652" y="221.946" width="79.4236" height="62.2207" filterUnits="userSpaceOnUse" color-interpolation-filters="sRGB">
<feFlood flood-opacity="0" result="BackgroundImageFix"/>
<feBlend mode="normal" in="SourceGraphic" in2="BackgroundImageFix" result="shape"/>
<feGaussianBlur stdDeviation="8.75" result="effect1_foregroundBlur_1071_58593"/>
</filter>
<linearGradient id="paint0_linear_1071_58593" x1="117.427" y1="298.463" x2="258.345" y2="251.418" gradientUnits="userSpaceOnUse">
<stop stop-color="#419F7D"/>
<stop offset="1" stop-color="#419F7D" stop-opacity="0"/>
</linearGradient>
<linearGradient id="paint1_linear_1071_58593" x1="54.7368" y1="10.8628" x2="155.018" y2="315.647" gradientUnits="userSpaceOnUse">
<stop stop-color="#419F7D"/>
<stop offset="1" stop-color="#A8E063"/>
</linearGradient>
<linearGradient id="paint2_linear_1071_58593" x1="91.6958" y1="43.875" x2="91.6958" y2="203.084" gradientUnits="userSpaceOnUse">
<stop stop-color="#A3DD65"/>
<stop offset="1" stop-color="#67E7AF"/>
</linearGradient>
<linearGradient id="paint3_linear_1071_58593" x1="233.45" y1="267.135" x2="272.514" y2="242.105" gradientUnits="userSpaceOnUse">
<stop stop-color="#419F7D"/>
<stop offset="1" stop-color="#419F7D" stop-opacity="0"/>
</linearGradient>
</defs>
</svg>
