<svg width="28" height="21" viewBox="0 0 28 21" fill="none" xmlns="http://www.w3.org/2000/svg">
<g id="Country flags">
<rect id="Mask" x="0.25" y="0.672852" width="27.5" height="19.5" rx="1.75" fill="white" stroke="#F5F5F5" stroke-width="0.5"/>
<mask id="mask0_1135_57789" style="mask-type:luminance" maskUnits="userSpaceOnUse" x="0" y="0" width="28" height="21">
<rect id="Mask_2" x="0.25" y="0.672852" width="27.5" height="19.5" rx="1.75" fill="white" stroke="white" stroke-width="0.5"/>
</mask>
<g mask="url(#mask0_1135_57789)">
<g id="Oval 9">
<path id="Mask_3" fill-rule="evenodd" clip-rule="evenodd" d="M14 15.0892C16.5774 15.0892 18.6667 12.9999 18.6667 10.4225C18.6667 7.8452 16.5774 5.75586 14 5.75586C11.4227 5.75586 9.33337 7.8452 9.33337 10.4225C9.33337 12.9999 11.4227 15.0892 14 15.0892Z" fill="#E01B41"/>
<mask id="mask1_1135_57789" style="mask-type:luminance" maskUnits="userSpaceOnUse" x="9" y="5" width="10" height="11">
<path id="Mask_4" fill-rule="evenodd" clip-rule="evenodd" d="M14 15.0892C16.5774 15.0892 18.6667 12.9999 18.6667 10.4225C18.6667 7.8452 16.5774 5.75586 14 5.75586C11.4227 5.75586 9.33337 7.8452 9.33337 10.4225C9.33337 12.9999 11.4227 15.0892 14 15.0892Z" fill="white"/>
</mask>
<g mask="url(#mask1_1135_57789)">
<path id="Rectangle 277" fill-rule="evenodd" clip-rule="evenodd" d="M9.33332 11.0889C10.6666 12.3389 12.6666 13.0889 14 11.0889C15.3333 9.08887 18 9.08887 18.6666 11.0889C19.3333 13.0889 18.6666 15.0889 18.6666 15.0889H9.33332C9.33332 15.0889 7.99998 9.83887 9.33332 11.0889Z" fill="#0E4B9C"/>
</g>
</g>
<path id="Rectangle 278" opacity="0.75" fill-rule="evenodd" clip-rule="evenodd" d="M6.17305 3.97922C6.2651 3.81979 6.46896 3.76517 6.62839 3.85721L7.20574 4.19055C7.36517 4.28259 7.4198 4.48646 7.32775 4.64589L5.66108 7.53264C5.56904 7.69207 5.36517 7.7467 5.20574 7.65465L4.62839 7.32132C4.46896 7.22927 4.41434 7.0254 4.50638 6.86597L6.17305 3.97922ZM20.7942 4.19055C20.6348 4.28259 20.5801 4.48646 20.6722 4.64589L22.3389 7.53264C22.4309 7.69207 22.6348 7.7467 22.7942 7.65465L23.3715 7.32132C23.531 7.22927 23.5856 7.0254 23.4936 6.86597L21.8269 3.97922C21.7348 3.81979 21.531 3.76517 21.3715 3.85721L20.7942 4.19055ZM19.0621 5.19055C18.9027 5.28259 18.8481 5.48646 18.9401 5.64589L20.6068 8.53264C20.6989 8.69207 20.9027 8.7467 21.0621 8.65465L21.6395 8.32132C21.7989 8.22927 21.8536 8.0254 21.7615 7.86597L20.0948 4.97922C20.0028 4.81979 19.7989 4.76517 19.6395 4.85721L19.0621 5.19055ZM4.50638 13.9792C4.41434 13.8198 4.46896 13.6159 4.62839 13.5239L5.20574 13.1905C5.36517 13.0985 5.56904 13.1531 5.66108 13.3126L7.32775 16.1993C7.4198 16.3587 7.36517 16.5626 7.20574 16.6546L6.62839 16.988C6.46896 17.08 6.2651 17.0254 6.17305 16.866L4.50638 13.9792ZM6.36044 12.5239C6.20101 12.6159 6.14639 12.8198 6.23843 12.9792L7.9051 15.866C7.99715 16.0254 8.20101 16.08 8.36044 15.988L8.93779 15.6546C9.09722 15.5626 9.15185 15.3587 9.0598 15.1993L7.39314 12.3126C7.30109 12.1531 7.09722 12.0985 6.93779 12.1905L6.36044 12.5239ZM20.6068 12.3126C20.6989 12.1531 20.9027 12.0985 21.0621 12.1905L21.6395 12.5239C21.7989 12.6159 21.8536 12.8198 21.7615 12.9792L20.0948 15.866C20.0028 16.0254 19.7989 16.08 19.6395 15.988L19.0621 15.6546C18.9027 15.5626 18.8481 15.3587 18.9401 15.1993L20.6068 12.3126ZM22.7942 13.1905C22.6348 13.0985 22.4309 13.1531 22.3389 13.3126L20.6722 16.1993C20.5801 16.3587 20.6348 16.5626 20.7942 16.6546L21.3715 16.988C21.531 17.08 21.7348 17.0254 21.8269 16.866L23.4936 13.9792C23.5856 13.8198 23.531 13.6159 23.3715 13.5239L22.7942 13.1905ZM8.36044 4.85721C8.20101 4.76517 7.99715 4.81979 7.9051 4.97922L6.23843 7.86597C6.14639 8.0254 6.20101 8.22927 6.36044 8.32132L6.93779 8.65465C7.09722 8.7467 7.30109 8.69207 7.39314 8.53264L9.0598 5.64589C9.15185 5.48646 9.09722 5.28259 8.93779 5.19055L8.36044 4.85721Z" fill="#262626"/>
</g>
</g>
</svg>
