<svg width="28" height="21" viewBox="0 0 28 21" fill="none" xmlns="http://www.w3.org/2000/svg">
<g id="Country flags">
<rect id="Mask" y="0.422852" width="28" height="20" rx="2" fill="white"/>
<mask id="mask0_1135_57783" style="mask-type:luminance" maskUnits="userSpaceOnUse" x="0" y="0" width="28" height="21">
<rect id="Mask_2" y="0.422852" width="28" height="20" rx="2" fill="white"/>
</mask>
<g mask="url(#mask0_1135_57783)">
<path id="Rectangle 511" fill-rule="evenodd" clip-rule="evenodd" d="M28 0.422852H0V1.75618H28V0.422852ZM28 3.08952H0V4.42285H28V3.08952ZM0 5.75619H28V7.08952H0V5.75619ZM28 8.42285H0V9.75618H28V8.42285ZM0 11.0895H28V12.4229H0V11.0895ZM28 13.7562H0V15.0895H28V13.7562ZM0 16.4229H28V17.7562H0V16.4229ZM28 19.0895H0V20.4229H28V19.0895Z" fill="#D02F44"/>
<rect id="Rectangle 511_2" y="0.422852" width="12" height="9.33333" fill="#46467F"/>
<g id="Oval 43" filter="url(#filter0_d_1135_57783)">
<path fill-rule="evenodd" clip-rule="evenodd" d="M2.66671 2.42253C2.66671 2.79072 2.36823 3.08919 2.00004 3.08919C1.63185 3.08919 1.33337 2.79072 1.33337 2.42253C1.33337 2.05434 1.63185 1.75586 2.00004 1.75586C2.36823 1.75586 2.66671 2.05434 2.66671 2.42253ZM5.33337 2.42253C5.33337 2.79072 5.0349 3.08919 4.66671 3.08919C4.29852 3.08919 4.00004 2.79072 4.00004 2.42253C4.00004 2.05434 4.29852 1.75586 4.66671 1.75586C5.0349 1.75586 5.33337 2.05434 5.33337 2.42253ZM7.33337 3.08919C7.70156 3.08919 8.00004 2.79072 8.00004 2.42253C8.00004 2.05434 7.70156 1.75586 7.33337 1.75586C6.96518 1.75586 6.66671 2.05434 6.66671 2.42253C6.66671 2.79072 6.96518 3.08919 7.33337 3.08919ZM10.6667 2.42253C10.6667 2.79072 10.3682 3.08919 10 3.08919C9.63185 3.08919 9.33337 2.79072 9.33337 2.42253C9.33337 2.05434 9.63185 1.75586 10 1.75586C10.3682 1.75586 10.6667 2.05434 10.6667 2.42253ZM3.33337 4.42253C3.70156 4.42253 4.00004 4.12405 4.00004 3.75586C4.00004 3.38767 3.70156 3.08919 3.33337 3.08919C2.96518 3.08919 2.66671 3.38767 2.66671 3.75586C2.66671 4.12405 2.96518 4.42253 3.33337 4.42253ZM6.66671 3.75586C6.66671 4.12405 6.36823 4.42253 6.00004 4.42253C5.63185 4.42253 5.33337 4.12405 5.33337 3.75586C5.33337 3.38767 5.63185 3.08919 6.00004 3.08919C6.36823 3.08919 6.66671 3.38767 6.66671 3.75586ZM8.66671 4.42253C9.0349 4.42253 9.33337 4.12405 9.33337 3.75586C9.33337 3.38767 9.0349 3.08919 8.66671 3.08919C8.29852 3.08919 8.00004 3.38767 8.00004 3.75586C8.00004 4.12405 8.29852 4.42253 8.66671 4.42253ZM10.6667 5.08919C10.6667 5.45738 10.3682 5.75586 10 5.75586C9.63185 5.75586 9.33337 5.45738 9.33337 5.08919C9.33337 4.721 9.63185 4.42253 10 4.42253C10.3682 4.42253 10.6667 4.721 10.6667 5.08919ZM7.33337 5.75586C7.70156 5.75586 8.00004 5.45738 8.00004 5.08919C8.00004 4.721 7.70156 4.42253 7.33337 4.42253C6.96518 4.42253 6.66671 4.721 6.66671 5.08919C6.66671 5.45738 6.96518 5.75586 7.33337 5.75586ZM5.33337 5.08919C5.33337 5.45738 5.0349 5.75586 4.66671 5.75586C4.29852 5.75586 4.00004 5.45738 4.00004 5.08919C4.00004 4.721 4.29852 4.42253 4.66671 4.42253C5.0349 4.42253 5.33337 4.721 5.33337 5.08919ZM2.00004 5.75586C2.36823 5.75586 2.66671 5.45738 2.66671 5.08919C2.66671 4.721 2.36823 4.42253 2.00004 4.42253C1.63185 4.42253 1.33337 4.721 1.33337 5.08919C1.33337 5.45738 1.63185 5.75586 2.00004 5.75586ZM4.00004 6.42253C4.00004 6.79072 3.70156 7.08919 3.33337 7.08919C2.96518 7.08919 2.66671 6.79072 2.66671 6.42253C2.66671 6.05434 2.96518 5.75586 3.33337 5.75586C3.70156 5.75586 4.00004 6.05434 4.00004 6.42253ZM6.00004 7.08919C6.36823 7.08919 6.66671 6.79072 6.66671 6.42253C6.66671 6.05434 6.36823 5.75586 6.00004 5.75586C5.63185 5.75586 5.33337 6.05434 5.33337 6.42253C5.33337 6.79072 5.63185 7.08919 6.00004 7.08919ZM9.33337 6.42253C9.33337 6.79072 9.0349 7.08919 8.66671 7.08919C8.29852 7.08919 8.00004 6.79072 8.00004 6.42253C8.00004 6.05434 8.29852 5.75586 8.66671 5.75586C9.0349 5.75586 9.33337 6.05434 9.33337 6.42253ZM10 8.42253C10.3682 8.42253 10.6667 8.12405 10.6667 7.75586C10.6667 7.38767 10.3682 7.08919 10 7.08919C9.63185 7.08919 9.33337 7.38767 9.33337 7.75586C9.33337 8.12405 9.63185 8.42253 10 8.42253ZM8.00004 7.75586C8.00004 8.12405 7.70156 8.42253 7.33337 8.42253C6.96518 8.42253 6.66671 8.12405 6.66671 7.75586C6.66671 7.38767 6.96518 7.08919 7.33337 7.08919C7.70156 7.08919 8.00004 7.38767 8.00004 7.75586ZM4.66671 8.42253C5.0349 8.42253 5.33337 8.12405 5.33337 7.75586C5.33337 7.38767 5.0349 7.08919 4.66671 7.08919C4.29852 7.08919 4.00004 7.38767 4.00004 7.75586C4.00004 8.12405 4.29852 8.42253 4.66671 8.42253ZM2.66671 7.75586C2.66671 8.12405 2.36823 8.42253 2.00004 8.42253C1.63185 8.42253 1.33337 8.12405 1.33337 7.75586C1.33337 7.38767 1.63185 7.08919 2.00004 7.08919C2.36823 7.08919 2.66671 7.38767 2.66671 7.75586Z" fill="url(#paint0_linear_1135_57783)"/>
</g>
</g>
</g>
<defs>
<filter id="filter0_d_1135_57783" x="1.33337" y="1.75586" width="9.33337" height="7.66699" filterUnits="userSpaceOnUse" color-interpolation-filters="sRGB">
<feFlood flood-opacity="0" result="BackgroundImageFix"/>
<feColorMatrix in="SourceAlpha" type="matrix" values="0 0 0 0 0 0 0 0 0 0 0 0 0 0 0 0 0 0 127 0" result="hardAlpha"/>
<feOffset dy="1"/>
<feColorMatrix type="matrix" values="0 0 0 0 0 0 0 0 0 0 0 0 0 0 0 0 0 0 0.06 0"/>
<feBlend mode="normal" in2="BackgroundImageFix" result="effect1_dropShadow_1135_57783"/>
<feBlend mode="normal" in="SourceGraphic" in2="effect1_dropShadow_1135_57783" result="shape"/>
</filter>
<linearGradient id="paint0_linear_1135_57783" x1="1.33337" y1="1.75586" x2="1.33337" y2="8.42253" gradientUnits="userSpaceOnUse">
<stop stop-color="white"/>
<stop offset="1" stop-color="#F0F0F0"/>
</linearGradient>
</defs>
</svg>
