<svg width="21" height="25" viewBox="0 0 21 25" fill="none" xmlns="http://www.w3.org/2000/svg">
<path d="M3.29661 23.9531C2.97646 24.2391 2.58098 24.3867 2.11017 24.3867C1.63936 24.3959 1.2533 24.2576 0.942561 23.9623C0.650659 23.6855 0.5 23.2796 0.5 22.7629C0.5 22.2463 0.641243 21.8403 0.942561 21.5451C1.27213 21.2498 1.66761 21.093 2.11959 21.093C2.57156 21.093 2.95763 21.2498 3.29661 21.5451C3.60734 21.8588 3.758 22.2647 3.73917 22.7537C3.72034 23.3073 3.56968 23.7132 3.29661 23.9531ZM2.92938 22.7537C2.91055 22.1079 2.64689 21.7757 2.11959 21.7757C1.59228 21.7757 1.31921 22.1079 1.30979 22.7537C1.30979 23.4087 1.57345 23.7317 2.11959 23.7317C2.65631 23.7317 2.92938 23.4087 2.92938 22.7537Z" fill="#FE8F33"/>
<path d="M6.13089 22.9936V21.1483H6.94068V24.359H6.03672L4.90678 22.5046V24.359H4.09699V21.5358C4.08757 21.2775 4.2194 21.1483 4.50188 21.1483H5.00094L6.13089 22.9936Z" fill="#FE8F33"/>
<path d="M8.18362 21.8219V22.3385H9.46422V22.6061C9.46422 22.8736 9.32298 23.0028 9.04049 23.0028H8.18362V23.6579H9.89736V24.359H7.37382V21.5082C7.37382 21.2867 7.50565 21.1668 7.7693 21.1483H9.89736V21.8219H8.18362Z" fill="#FE8F33"/>
<path d="M11.2533 23.6394C11.338 23.7132 11.4887 23.7501 11.6959 23.7501C12.016 23.7686 12.1949 23.6855 12.2232 23.5195C12.2326 23.4272 12.1949 23.3534 12.1008 23.2888C11.9689 23.215 11.6299 23.1043 11.065 22.9567C10.5753 22.8275 10.3211 22.5507 10.3211 22.1263C10.3023 21.7942 10.4341 21.5266 10.7166 21.3144C10.8861 21.1852 11.1968 21.1114 11.6299 21.093C12.2608 21.093 12.6657 21.3052 12.8352 21.7204C12.8917 21.8588 12.92 22.0156 12.92 22.1909H12.468C12.2797 22.1724 12.1573 22.0986 12.1008 21.9695C12.0348 21.8126 11.8559 21.7388 11.5734 21.7388C11.2721 21.7388 11.1121 21.8403 11.1026 22.0341C11.1026 22.1355 11.1686 22.2094 11.3004 22.2463C11.4134 22.3016 11.7335 22.4031 12.2797 22.5507C12.7693 22.6799 13.0141 22.9474 13.033 23.3534C13.033 24.0546 12.581 24.4052 11.6676 24.4052C10.9708 24.4052 10.5377 24.1837 10.3588 23.7409C10.3023 23.6117 10.274 23.4457 10.274 23.2611H11.065C11.0556 23.4087 11.1215 23.5287 11.2533 23.6394Z" fill="#FE8F33"/>
<path d="M14.1911 22.2924H15.3776V21.1483H16.1968V24.359H15.3776V22.9936H14.1911V24.359H13.3814V21.5358C13.3814 21.2775 13.5132 21.1483 13.7863 21.1483H14.1911V22.2924Z" fill="#FE8F33"/>
<path d="M17.4209 24.359H16.6111V21.5358C16.6017 21.2775 16.7335 21.1483 17.016 21.1483H17.4209V24.359Z" fill="#FE8F33"/>
<path d="M18.6733 23.2427V24.359H17.8635V21.5358C17.854 21.2775 17.9859 21.1483 18.2684 21.1483H19.3606C19.7185 21.1483 19.9915 21.2498 20.1987 21.4344C20.3964 21.6189 20.5 21.8772 20.5 22.2094C20.5 22.9013 20.1328 23.2427 19.4171 23.2427H18.6733ZM18.6733 22.5692H19.2665C19.549 22.5692 19.6996 22.4492 19.6996 22.2001C19.6996 21.951 19.5584 21.8219 19.2759 21.8219H18.6733V22.5692Z" fill="#FE8F33"/>
<path d="M5.62757 16.7869L4.81628 15.9897C4.87679 16.8113 5.23574 17.5844 5.82806 18.1689C5.88401 18.2237 5.90033 18.2146 5.87236 18.1392C5.71207 17.7056 5.62926 17.2481 5.62757 16.7869Z" fill="#FE8F33"/>
<path d="M12.9571 3.33732C11.6516 0.150825 7.49257 -0.950174 4.61577 0.895484C2.80436 2.05587 1.06756 4.35152 1.35664 6.59235C1.3573 6.59599 1.35895 6.59939 1.36142 6.60219C1.36389 6.60498 1.36708 6.60708 1.37066 6.60824C1.37424 6.60941 1.37807 6.60962 1.38176 6.60883C1.38544 6.60804 1.38885 6.6063 1.39161 6.60377C2.54093 5.54161 4.15184 5.20582 5.49699 6.16749C6.28497 6.73397 6.89576 7.76645 6.69527 8.73496C6.63005 9.06801 6.54124 9.39621 6.42951 9.71718C6.35491 9.92733 6.27098 10.1512 6.18239 10.3842L6.99834 9.59383C7.13205 9.46327 7.31313 9.38996 7.5019 9.38996C7.69067 9.38996 7.87174 9.46327 8.00545 9.59383L9.92643 11.4737C11.2086 10.439 12.3906 9.31287 12.9781 7.76645C13.5214 6.33677 13.514 4.762 12.9571 3.33732Z" fill="#FE8F33"/>
<path d="M13.9992 14.6192C13.7835 14.5331 13.5904 14.4005 13.4342 14.2312C13.278 14.062 13.1628 13.8604 13.097 13.6415C13.0365 13.4072 13.0098 13.1658 13.0177 12.9243C13.0177 12.1705 13.0177 11.4212 13.0177 10.6766C13.0175 10.6694 13.0195 10.6623 13.0235 10.6562C13.0274 10.6501 13.0331 10.6452 13.0399 10.6423C13.0466 10.6394 13.0541 10.6385 13.0613 10.6397C13.0686 10.6409 13.0753 10.6442 13.0807 10.6492C13.2345 10.7931 13.3371 11.0032 13.4513 11.1197C13.7411 11.3818 14.125 11.5206 14.5191 11.5058C14.7973 11.5195 14.9581 11.5309 15.0016 11.54C15.2309 11.5846 15.448 11.6761 15.6387 11.8086C15.8294 11.9411 15.9894 12.1115 16.1082 12.3088C16.227 12.5061 16.302 12.7257 16.3281 12.9533C16.3543 13.1809 16.3311 13.4114 16.2601 13.6296C16.189 13.8478 16.0717 14.0488 15.9159 14.2196C15.76 14.3903 15.5691 14.5268 15.3557 14.6203C15.1423 14.7137 14.9111 14.7619 14.6773 14.7617C14.4436 14.7615 14.2125 14.7129 13.9992 14.6192ZM15.3583 12.8169C15.3588 12.7444 15.3372 12.6735 15.2964 12.613C15.2556 12.5526 15.1974 12.5054 15.1291 12.4774C15.0609 12.4495 14.9857 12.442 14.9131 12.4561C14.8406 12.4701 14.7739 12.505 14.7216 12.5562C14.6693 12.6075 14.6337 12.6728 14.6194 12.7439C14.6051 12.815 14.6126 12.8887 14.6412 12.9555C14.6697 13.0224 14.7179 13.0795 14.7795 13.1195C14.8412 13.1594 14.9137 13.1806 14.9877 13.1801C15.0858 13.1795 15.1797 13.141 15.2491 13.0731C15.3185 13.0051 15.3577 12.9131 15.3583 12.8169Z" fill="#FE8F33"/>
<path d="M13.3907 19.5189C13.7357 19.697 14.2067 19.7473 14.3792 20.2041C14.3802 20.2081 14.3804 20.2122 14.3796 20.2162C14.3788 20.2202 14.3771 20.224 14.3747 20.2272C14.3722 20.2305 14.369 20.2332 14.3654 20.2352C14.3617 20.2371 14.3577 20.2382 14.3535 20.2384H9.9684C9.23709 20.2493 8.52171 20.0287 7.92853 19.6094C7.33534 19.1902 6.896 18.5947 6.67574 17.9113C6.45548 17.228 6.46606 16.4932 6.70591 15.8162C6.94576 15.1392 7.40209 14.5561 8.00711 14.1534C8.61213 13.7507 9.33357 13.55 10.0643 13.5811C10.795 13.6122 11.496 13.8733 12.0631 14.3258C12.6303 14.7783 13.0334 15.398 13.2125 16.0928C13.3916 16.7876 13.3372 17.5205 13.0573 18.1826C13.0061 18.2978 12.9746 18.4205 12.9641 18.5458C12.9408 18.9227 13.0387 19.3201 13.3907 19.5029V19.5189Z" fill="#FE8F33"/>
<path d="M15.1882 16.0811C15.1886 16.2141 15.1488 16.3443 15.0736 16.4551C14.9985 16.5659 14.8915 16.6523 14.7661 16.7034C14.6408 16.7545 14.5028 16.768 14.3696 16.7422C14.2365 16.7163 14.1141 16.6523 14.0181 16.5583C13.9221 16.4642 13.8568 16.3443 13.8304 16.2139C13.8041 16.0834 13.8178 15.9482 13.87 15.8253C13.9222 15.7025 14.0104 15.5977 14.1234 15.5241C14.2365 15.4504 14.3694 15.4114 14.5051 15.4118C14.6863 15.4118 14.86 15.4824 14.9881 15.6079C15.1162 15.7334 15.1882 15.9036 15.1882 16.0811Z" fill="#FE8F33"/>
<path d="M3.45432 14.2682L5.98472 16.7475C6.23964 16.9973 6.65294 16.9973 6.90786 16.7475L10.4488 13.2781C10.7037 13.0283 10.7037 12.6233 10.4488 12.3736L7.91837 9.89425C7.66345 9.64447 7.25015 9.64447 6.99523 9.89424L3.45432 13.3637C3.1994 13.6135 3.19941 14.0184 3.45432 14.2682Z" fill="#0B263C"/>
<path d="M3.87095 14.1462L6.10792 16.338C6.30093 16.5271 6.61386 16.5271 6.80687 16.338L9.02406 14.1655C9.21707 13.9764 9.21707 13.6698 9.02406 13.4807L6.78709 11.2889C6.59408 11.0998 6.28115 11.0998 6.08814 11.2889L3.87095 13.4613C3.67794 13.6504 3.67795 13.957 3.87095 14.1462Z" fill="#D50928"/>
<path d="M12.2111 14.4684C11.976 14.0906 11.6482 13.7765 11.2576 13.5547C10.9345 13.3836 10.5906 13.2531 10.2342 13.1664L9.82385 13.5821C10.2695 13.6585 10.7096 13.7638 11.141 13.8973C11.5301 14.0225 11.8927 14.216 12.2111 14.4684Z" fill="#0B263C"/>
<path d="M5.33817 12.9273C5.24943 12.9233 5.17026 12.8886 5.102 12.8217C5.03238 12.7561 4.99688 12.6812 4.99552 12.5943C4.99415 12.5127 5.03238 12.4324 5.10882 12.3575C5.18527 12.2826 5.26582 12.2438 5.35318 12.2438C5.44465 12.2478 5.52519 12.2813 5.59072 12.3455C5.65624 12.4097 5.68901 12.4873 5.69447 12.5782C5.6931 12.6678 5.65488 12.7481 5.5798 12.8163C5.49516 12.8939 5.41325 12.9314 5.33817 12.9273ZM5.4624 12.7013C5.55522 12.605 5.56615 12.5194 5.4897 12.4445C5.41325 12.3696 5.32452 12.3789 5.22759 12.4712C5.13067 12.5662 5.12111 12.6505 5.20029 12.728C5.2781 12.8043 5.36547 12.7963 5.4624 12.7013Z" fill="white"/>
<path d="M5.73269 13.4316L5.67263 13.3728C5.6344 13.3353 5.6344 13.2979 5.67263 13.2604L5.84054 13.0959C5.87603 13.0611 5.87603 13.0263 5.8419 12.9929C5.80641 12.9581 5.77092 12.9581 5.73542 12.9929L5.51017 13.2136L5.39414 13.0999L5.60027 12.8979C5.70948 12.7856 5.82279 12.7842 5.93746 12.8966C6.05077 13.0076 6.05077 13.12 5.93883 13.2296L5.73269 13.4316Z" fill="white"/>
<path d="M6.02893 13.5079C6.02756 13.5333 6.03712 13.556 6.05759 13.5761C6.07944 13.5975 6.09855 13.6082 6.12039 13.6082C6.1395 13.6082 6.15861 13.6162 6.17773 13.6349L6.25963 13.7152C6.15042 13.774 6.0494 13.758 5.95794 13.6657C5.9006 13.6095 5.8733 13.5507 5.87876 13.4864C5.88149 13.4196 5.91425 13.358 5.97159 13.3019C6.02893 13.2457 6.08899 13.2163 6.15588 13.2122C6.22414 13.2096 6.28694 13.2363 6.34154 13.2898C6.39615 13.3433 6.42209 13.4035 6.42345 13.4717C6.41253 13.552 6.37158 13.6215 6.29786 13.6831L6.06032 13.4503C6.03848 13.4717 6.02756 13.4905 6.02893 13.5079ZM6.27465 13.4436C6.27192 13.4222 6.26236 13.4022 6.24598 13.3861C6.22687 13.3674 6.20776 13.3594 6.18865 13.3594C6.17227 13.3594 6.15452 13.3661 6.13677 13.3781L6.25417 13.4931C6.26509 13.4771 6.27329 13.461 6.27465 13.4436Z" fill="white"/>
<path d="M6.43983 13.9158C6.4412 13.9386 6.45758 13.9653 6.48761 13.9947C6.5313 14.0429 6.56952 14.0563 6.59819 14.0362C6.6132 14.0242 6.61866 14.0081 6.61457 13.9854C6.60638 13.9559 6.57362 13.8917 6.51355 13.7901C6.46167 13.7018 6.46577 13.6256 6.52857 13.564C6.57498 13.5132 6.63368 13.4931 6.70603 13.5025C6.74972 13.5079 6.80569 13.5413 6.87122 13.6001C6.96268 13.6898 6.98998 13.778 6.95312 13.8623C6.94084 13.8904 6.92173 13.9172 6.89579 13.9426L6.83026 13.8784C6.80569 13.8489 6.79886 13.8208 6.80978 13.7941C6.82344 13.762 6.80842 13.7259 6.76746 13.6857C6.72378 13.6429 6.68556 13.6349 6.65552 13.6617C6.64051 13.6764 6.63914 13.6964 6.65279 13.7205C6.66098 13.7446 6.69238 13.8048 6.74972 13.9038C6.80159 13.9921 6.7975 14.0656 6.74016 14.1272C6.63641 14.2288 6.51901 14.2154 6.38659 14.0857C6.28557 13.9867 6.25554 13.8931 6.29513 13.8035C6.30605 13.7767 6.32653 13.7486 6.35383 13.7219L6.4685 13.8342C6.44529 13.8543 6.4371 13.881 6.43983 13.9158Z" fill="white"/>
<path d="M7.10192 14.1098C7.13605 14.1111 7.17018 14.1231 7.20567 14.1472C7.23571 14.1713 7.26301 14.2007 7.28212 14.2355C7.32581 14.3158 7.30669 14.3987 7.22479 14.4843L7.01592 14.6889L6.89852 14.5739L7.091 14.3853C7.14288 14.3345 7.14561 14.2863 7.10056 14.2422C7.05414 14.1967 7.00636 14.2007 6.95585 14.2529L6.76337 14.4415L6.64597 14.3265L7.12104 13.861L7.1811 13.9198C7.21932 13.9573 7.21932 13.9947 7.1811 14.0322L7.10192 14.1098Z" fill="white"/>
<path d="M7.19475 14.8642L7.07735 14.7491L7.4473 14.3866L7.50327 14.4415C7.54423 14.4816 7.54423 14.5217 7.506 14.5592L7.19475 14.8642ZM7.47734 14.3572L7.55242 14.2836L7.60975 14.3398C7.64934 14.3786 7.65071 14.4174 7.61248 14.4549L7.59474 14.4722L7.47734 14.3572Z" fill="white"/>
<path d="M7.39816 15.0126L7.28212 15.1263C7.24526 15.1624 7.2084 15.1611 7.17018 15.1237L7.11421 15.0688L7.46641 14.7237C7.52102 14.6702 7.58109 14.6461 7.64388 14.6488C7.70122 14.6515 7.76128 14.6836 7.82272 14.7438C7.88278 14.8026 7.91145 14.8628 7.90735 14.9257C7.89643 14.9952 7.8664 15.0541 7.81452 15.1049C7.68347 15.228 7.5647 15.24 7.45822 15.141C7.42137 15.1049 7.40089 15.0635 7.39816 15.0126ZM7.69166 14.9926C7.72579 14.9591 7.7449 14.9297 7.74763 14.9029C7.749 14.8749 7.73944 14.8494 7.72033 14.8307C7.69985 14.8107 7.67528 14.8026 7.64798 14.8053C7.61794 14.808 7.58791 14.8267 7.55788 14.8588C7.52512 14.8909 7.50737 14.9217 7.50464 14.9458C7.49918 14.9725 7.5101 14.9966 7.53194 15.018C7.55378 15.0394 7.57699 15.0487 7.60429 15.0434C7.6316 15.038 7.66163 15.022 7.69166 14.9926Z" fill="white"/>
</svg>
