<svg width="16" height="6" viewBox="0 0 16 6" fill="none" xmlns="http://www.w3.org/2000/svg">
<path d="M10.25 3.20264C10.25 4.45264 9.21875 5.45264 8 5.45264C6.75 5.45264 5.75 4.45264 5.75 3.20264C5.75 1.98389 6.75 0.952637 8 0.952637C9.21875 0.952637 10.25 1.98389 10.25 3.20264ZM13.5 0.952637C14.7188 0.952637 15.75 1.98389 15.75 3.20264C15.75 4.45264 14.7188 5.45264 13.5 5.45264C12.25 5.45264 11.25 4.45264 11.25 3.20264C11.25 1.98389 12.25 0.952637 13.5 0.952637ZM2.5 0.952637C3.71875 0.952637 4.75 1.98389 4.75 3.20264C4.75 4.45264 3.71875 5.45264 2.5 5.45264C1.25 5.45264 0.25 4.45264 0.25 3.20264C0.25 1.98389 1.25 0.952637 2.5 0.952637Z" fill="#535353"/>
</svg>
