<svg width="18" height="15" viewBox="0 0 18 15" fill="none" xmlns="http://www.w3.org/2000/svg">
<path d="M16.4688 0.202637C17.3125 0.202637 18 0.890137 18 1.70264V12.7026C18 13.5464 17.3125 14.2026 16.4688 14.2026H1.5C0.65625 14.2026 0 13.5464 0 12.7026V1.70264C0 0.890137 0.65625 0.202637 1.5 0.202637H16.4688ZM1.6875 1.70264C1.5625 1.70264 1.5 1.79639 1.5 1.89014V3.20264H16.4688V1.89014C16.4688 1.79639 16.4062 1.70264 16.2812 1.70264H1.6875ZM16.2812 12.7026C16.4062 12.7026 16.4688 12.6401 16.4688 12.5151V7.20264H1.5V12.5151C1.5 12.6401 1.5625 12.7026 1.6875 12.7026H16.2812ZM6 9.57764V10.8276C6 11.0464 5.8125 11.2026 5.625 11.2026H3.375C3.15625 11.2026 3 11.0464 3 10.8276V9.57764C3 9.39014 3.15625 9.20264 3.375 9.20264H5.625C5.8125 9.20264 6 9.39014 6 9.57764ZM12 9.57764V10.8276C12 11.0464 11.8125 11.2026 11.625 11.2026H7.375C7.15625 11.2026 7 11.0464 7 10.8276V9.57764C7 9.39014 7.15625 9.20264 7.375 9.20264H11.625C11.8125 9.20264 12 9.39014 12 9.57764Z" fill="#535353"/>
</svg>
