<svg width="16" height="17" viewBox="0 0 16 17" fill="none" xmlns="http://www.w3.org/2000/svg">
<path d="M5.5 6.95264C5.21875 6.95264 5 6.73389 5 6.45264V5.95264C5 5.70264 5.21875 5.45264 5.5 5.45264H10.5C10.75 5.45264 11 5.70264 11 5.95264V6.45264C11 6.73389 10.75 6.95264 10.5 6.95264H5.5ZM5 9.45264V8.95264C5 8.70264 5.21875 8.45264 5.5 8.45264H10.5C10.75 8.45264 11 8.70264 11 8.95264V9.45264C11 9.73389 10.75 9.95264 10.5 9.95264H5.5C5.21875 9.95264 5 9.73389 5 9.45264ZM8 13.2651C8.5 13.2651 9 13.1089 9.4375 12.7651L16 8.04639V14.7026C16 15.5464 15.3125 16.2026 14.5 16.2026H1.5C0.65625 16.2026 0 15.5464 0 14.7026V8.04639L6.53125 12.7651C6.96875 13.1089 7.46875 13.2651 8 13.2651ZM15.4062 5.29639C15.7812 5.60889 16 6.01514 16 6.48389V6.82764L13 8.98389V3.20264H3V8.98389L0 6.82764V6.48389C0 6.01514 0.21875 5.57764 0.5625 5.29639C0.84375 5.10889 1.09375 4.89014 1.5 4.60889V3.20264C1.5 2.39014 2.15625 1.70264 3 1.70264H5.40625C5.5 1.64014 5.59375 1.57764 5.6875 1.51514C6.21875 1.14014 7.25 0.202637 8 0.202637C8.71875 0.202637 9.75 1.14014 10.2812 1.51514C10.375 1.57764 10.4688 1.64014 10.5625 1.70264H13C13.8125 1.70264 14.5 2.39014 14.5 3.20264V4.60889C14.875 4.89014 15.125 5.10889 15.4062 5.29639Z" fill="#535353"/>
</svg>
