<svg width="14" height="16" viewBox="0 0 14 16" fill="none" xmlns="http://www.w3.org/2000/svg">
<path d="M13.625 5H13V7H13.625C13.8125 7 14 7.1875 14 7.375V8.625C14 8.84375 13.8125 9 13.625 9H13V11H13.625C13.8125 11 14 11.1875 14 11.375V12.625C14 12.8438 13.8125 13 13.625 13H13V14.5C13 15.3438 12.3125 16 11.5 16H1.5C0.65625 16 0 15.3438 0 14.5V1.5C0 0.6875 0.65625 0 1.5 0H11.5C12.3125 0 13 0.6875 13 1.5V3H13.625C13.8125 3 14 3.1875 14 3.375V4.625C14 4.84375 13.8125 5 13.625 5ZM6.5 4C5.375 4 4.5 4.90625 4.5 6C4.5 7.125 5.375 8 6.5 8C7.59375 8 8.5 7.125 8.5 6C8.5 4.90625 7.59375 4 6.5 4ZM10 11.4062V10.8125C10 9.8125 9.03125 9 7.875 9H7.71875C7.34375 9.1875 6.9375 9.25 6.5 9.25C6.03125 9.25 5.625 9.1875 5.25 9H5.09375C3.9375 9 3 9.8125 3 10.8125V11.4062C3 11.75 3.3125 12 3.6875 12H9.28125C9.6875 12 10 11.75 10 11.4062Z" fill="#7C7C7C"/>
</svg>
