<svg width="180" height="180" viewBox="0 0 180 180" fill="none" xmlns="http://www.w3.org/2000/svg">
<path d="M22.5 154.688V45H157.5V98.4375H163.125V25.3125C163.125 23.0747 162.236 20.9286 160.654 19.3463C159.071 17.7639 156.925 16.875 154.688 16.875H25.3125C23.0747 16.875 20.9286 17.7639 19.3463 19.3463C17.7639 20.9286 16.875 23.0747 16.875 25.3125V154.688C16.875 156.925 17.7639 159.071 19.3463 160.654C20.9286 162.236 23.0747 163.125 25.3125 163.125H118.125V157.5H25.3125C24.5666 157.5 23.8512 157.204 23.3238 156.676C22.7963 156.149 22.5 155.433 22.5 154.688ZM25.3125 22.5H154.688C155.433 22.5 156.149 22.7963 156.676 23.3238C157.204 23.8512 157.5 24.5666 157.5 25.3125V39.375H22.5V25.3125C22.5 24.5666 22.7963 23.8512 23.3238 23.3238C23.8512 22.7963 24.5666 22.5 25.3125 22.5Z" fill="#BCBEC0"/>
<path d="M28.125 28.125H33.75V33.75H28.125V28.125Z" fill="#BCBEC0"/>
<path d="M39.375 28.125H45V33.75H39.375V28.125Z" fill="#BCBEC0"/>
<path d="M50.625 28.125H56.25V33.75H50.625V28.125Z" fill="#BCBEC0"/>
<path d="M5.625 87.1875H11.25V143.438H5.625V87.1875Z" fill="#BCBEC0"/>
<path d="M64.6875 90V67.5H75.9375V61.875H47.8125V67.5H59.0625V90H64.6875Z" fill="#BCBEC0"/>
<path d="M90 56.25H84.375V73.125H73.125C72.3791 73.125 71.6637 73.4213 71.1363 73.9488C70.6088 74.4762 70.3125 75.1916 70.3125 75.9375V90H75.9375V78.75H84.375V90H90V56.25Z" fill="#BCBEC0"/>
<path d="M53.4375 90V75.9375C53.4375 75.1916 53.1412 74.4762 52.6137 73.9488C52.0863 73.4213 51.3709 73.125 50.625 73.125H39.375V56.25H33.75V90H39.375V78.75H47.8125V90H53.4375Z" fill="#BCBEC0"/>
<path d="M160.313 104.062C158.859 104.071 157.433 104.459 156.175 105.188C155.133 103.514 153.532 102.262 151.656 101.654C149.78 101.046 147.75 101.121 145.924 101.866C145.636 100.739 145.114 99.6859 144.393 98.774C143.671 97.862 142.766 97.1119 141.736 96.5722C140.706 96.0326 139.574 95.7154 138.414 95.6414C137.253 95.5674 136.09 95.7381 135 96.1425V90C135 87.7622 134.111 85.6161 132.529 84.0338C130.946 82.4514 128.8 81.5625 126.563 81.5625C124.325 81.5625 122.179 82.4514 120.596 84.0338C119.014 85.6161 118.125 87.7622 118.125 90V116.387L115.169 117.863C112.818 119.039 110.818 120.812 109.367 123.004C107.917 125.196 107.067 127.73 106.904 130.354C106.741 132.977 107.27 135.597 108.437 137.952C109.605 140.307 111.371 142.314 113.558 143.772L121.244 148.897C122.015 149.41 122.647 150.106 123.084 150.922C123.521 151.739 123.75 152.65 123.75 153.577V174.375H129.375V153.562C129.377 151.71 128.92 149.886 128.046 148.253C127.172 146.62 125.908 145.229 124.366 144.202L116.677 139.078C115.31 138.166 114.206 136.912 113.476 135.439C112.747 133.967 112.416 132.329 112.519 130.689C112.621 129.049 113.152 127.464 114.059 126.094C114.966 124.724 116.217 123.616 117.686 122.881L118.125 122.676V129.375H123.75V90C123.75 89.2541 124.046 88.5387 124.574 88.0113C125.101 87.4838 125.817 87.1875 126.563 87.1875C127.308 87.1875 128.024 87.4838 128.551 88.0113C129.079 88.5387 129.375 89.2541 129.375 90V115.312H135V104.062C135 103.317 135.296 102.601 135.824 102.074C136.351 101.546 137.067 101.25 137.813 101.25C138.558 101.25 139.274 101.546 139.801 102.074C140.329 102.601 140.625 103.317 140.625 104.062V118.125H146.25V109.688C146.25 108.942 146.546 108.226 147.074 107.699C147.601 107.171 148.317 106.875 149.063 106.875C149.808 106.875 150.524 107.171 151.051 107.699C151.579 108.226 151.875 108.942 151.875 109.688V120.938H157.5V112.5C157.5 111.754 157.796 111.039 158.324 110.511C158.851 109.984 159.567 109.688 160.313 109.688C161.058 109.688 161.774 109.984 162.301 110.511C162.829 111.039 163.125 111.754 163.125 112.5V125.235C163.111 133.07 161.282 140.796 157.781 147.805C157.592 148.197 157.495 148.627 157.5 149.062V174.375H163.125V149.715C166.815 142.085 168.738 133.722 168.75 125.246V112.5C168.75 110.262 167.861 108.116 166.279 106.534C164.696 104.951 162.55 104.062 160.313 104.062Z" fill="#BCBEC0"/>
<path d="M126.563 75.9374C130.291 75.9419 133.865 77.4249 136.501 80.0611C139.138 82.6974 140.621 86.2717 140.625 89.9999H146.25C146.249 86.9804 145.554 84.0016 144.218 81.2937C142.883 78.5859 140.942 76.2215 138.546 74.3836C136.15 72.5457 133.364 71.2835 130.403 70.6945C127.441 70.1056 124.384 70.2057 121.467 70.9872C118.551 71.7686 115.853 73.2104 113.583 75.2011C111.312 77.1918 109.53 79.6781 108.375 82.4675C107.219 85.257 106.72 88.275 106.917 91.288C107.114 94.301 108.001 97.2284 109.51 99.8436L114.379 97.0311C113.144 94.893 112.495 92.4675 112.495 89.9986C112.495 87.5296 113.145 85.1043 114.38 82.9664C115.615 80.8284 117.391 79.0533 119.529 77.8194C121.668 76.5856 124.094 75.9365 126.563 75.9374Z" fill="#BCBEC0"/>
<path d="M47.8125 104.062C47.8125 103.317 47.5162 102.601 46.9887 102.074C46.4613 101.546 45.7459 101.25 45 101.25H33.75C33.0041 101.25 32.2887 101.546 31.7613 102.074C31.2338 102.601 30.9375 103.317 30.9375 104.062V115.312C30.9375 116.058 31.2338 116.774 31.7613 117.301C32.2887 117.829 33.0041 118.125 33.75 118.125H45C45.7459 118.125 46.4613 117.829 46.9887 117.301C47.5162 116.774 47.8125 116.058 47.8125 115.312V104.062ZM42.1875 112.5H36.5625V106.875H42.1875V112.5Z" fill="#BCBEC0"/>
<path d="M53.4375 101.25H59.0625V106.875H53.4375V101.25Z" fill="#BCBEC0"/>
<path d="M64.6875 101.25H90V106.875H64.6875V101.25Z" fill="#BCBEC0"/>
<path d="M53.4375 112.5H59.0625V118.125H53.4375V112.5Z" fill="#BCBEC0"/>
<path d="M64.6875 112.5H90V118.125H64.6875V112.5Z" fill="#BCBEC0"/>
<path d="M45 126.562H33.75C33.0041 126.562 32.2887 126.859 31.7613 127.386C31.2338 127.914 30.9375 128.629 30.9375 129.375V140.625C30.9375 141.371 31.2338 142.086 31.7613 142.614C32.2887 143.141 33.0041 143.438 33.75 143.438H45C45.7459 143.438 46.4613 143.141 46.9887 142.614C47.5162 142.086 47.8125 141.371 47.8125 140.625V129.375C47.8125 128.629 47.5162 127.914 46.9887 127.386C46.4613 126.859 45.7459 126.562 45 126.562ZM42.1875 137.812H36.5625V132.188H42.1875V137.812Z" fill="#BCBEC0"/>
<path d="M53.4375 126.562H59.0625V132.188H53.4375V126.562Z" fill="#BCBEC0"/>
<path d="M64.6875 126.562H90V132.188H64.6875V126.562Z" fill="#BCBEC0"/>
<path d="M53.4375 137.812H59.0625V143.438H53.4375V137.812Z" fill="#BCBEC0"/>
<path d="M64.6875 137.812H90V143.438H64.6875V137.812Z" fill="#BCBEC0"/>
<path d="M168.75 25.3125H174.375V70.3125H168.75V25.3125Z" fill="#BCBEC0"/>
</svg>
