<svg width="48" height="48" viewBox="0 0 48 48" fill="none" xmlns="http://www.w3.org/2000/svg">
<path d="M21.8936 39.5117L16.7198 45.0297C12.6444 49.3763 5.61524 48.8799 2.17114 44.0179C1.94418 43.6974 1.72414 43.3718 1.51124 43.0409C1.49408 43.0142 1.47693 42.9875 1.45977 42.9607C-1.3232 38.6027 -0.0263556 32.8094 4.3243 30.0151L10.6205 25.9712L21.8936 39.5117Z" fill="#F2A98C"/>
<path d="M33.4798 14.1563C34.3611 15.7433 36.362 16.3154 37.949 15.4341L46.3157 10.7881C47.9027 9.90683 48.4748 7.90593 47.5935 6.31893C46.7123 4.73193 44.7113 4.15986 43.1243 5.04111L34.7576 9.68718C33.1707 10.5685 32.5986 12.5694 33.4798 14.1563Z" fill="#FFC5AB"/>
<path d="M11.1812 4.30994C14.1262 3.64572 17.0519 5.49457 17.7162 8.43953L19.3828 15.8293C26.0934 13.3608 33.4069 15.5947 36.4275 21.3453C39.7545 27.6789 36.6141 35.8796 29.4132 39.6621C22.2123 43.4447 13.6778 41.3765 10.3508 35.043C8.59644 31.7032 8.64078 27.8447 10.1303 24.3883C11.4883 21.2372 11.7865 17.7303 11.0315 14.3831L9.3965 7.13388C9.10972 5.86132 9.90866 4.597 11.1812 4.30994Z" fill="#FFC5AB"/>
<path d="M39.171 3.24581V38.4522C39.171 40.2443 37.7183 41.698 35.9252 41.698H19.2326C17.4405 41.698 15.9868 40.2443 15.9868 38.4522V3.24581C15.9867 1.45266 17.4405 0 19.2326 0H35.9252C37.7183 0 39.171 1.45266 39.171 3.24581Z" fill="#424242"/>
<path d="M37.4629 3.46133V38.2367C37.4629 39.1106 36.7549 39.8186 35.8809 39.8186H19.2768C18.4028 39.8186 17.6948 39.1106 17.6948 38.2367V3.46133C17.6948 2.58739 18.4028 1.87939 19.2768 1.87939H35.881C36.7549 1.87939 37.4629 2.58739 37.4629 3.46133Z" fill="white"/>
<path d="M37.4628 3.46133V27.4226H17.6946V3.46133C17.6946 2.58739 18.4026 1.87939 19.2765 1.87939H35.8809C36.7548 1.87939 37.4628 2.58739 37.4628 3.46133Z" fill="#AC6BAD"/>
<path d="M33.362 31.2302H21.7954C20.9423 31.2302 20.2507 31.9218 20.2507 32.7749V34.1758C20.2507 35.0288 20.9422 35.7204 21.7954 35.7204H33.362C34.2151 35.7204 34.9067 35.0289 34.9067 34.1758V32.7749C34.9067 31.9217 34.2151 31.2302 33.362 31.2302Z" fill="#AC6BAD"/>
<path d="M27.5788 24.678C31.3878 24.678 34.4757 23.906 34.4757 22.9537C34.4757 22.0015 31.3878 21.2295 27.5788 21.2295C23.7697 21.2295 20.6819 22.0015 20.6819 22.9537C20.6819 23.906 23.7697 24.678 27.5788 24.678Z" fill="#913E98"/>
<path d="M27.8002 12.5008L27.7819 12.0817H25.5685L25.5534 10.8963L25.4865 5.52422L25.4854 5.4315C25.4821 5.21597 25.6546 5.03925 25.8701 5.03709L27.3175 5.01881C27.4673 5.01769 27.5987 5.10075 27.6656 5.22356C27.6946 5.27747 27.7108 5.33775 27.7119 5.40356L27.7809 10.8963L27.7948 12.0817L27.8002 12.5008Z" fill="#FC933A"/>
<path d="M24.0349 10.629C23.9207 10.4619 23.7299 10.3574 23.5219 10.3574H21.7826C21.7545 9.96193 21.7265 9.56743 21.6985 9.17199L21.6683 8.74309L21.4517 5.68693C21.4291 5.37765 21.6618 5.10934 21.9722 5.08674L23.0725 5.00912C23.2794 4.99515 23.468 5.09424 23.5768 5.25371C23.6318 5.33237 23.6652 5.42724 23.6727 5.52962L23.9098 8.87781L23.9724 9.75287L23.9778 9.83481L24.0349 10.629Z" fill="#FEB33C"/>
<path d="M32.4534 5.68692L32.2077 9.15585L32.1226 10.3574H31.6301C31.6054 10.3574 31.5817 10.3586 31.5579 10.3618C31.3252 10.3887 31.1237 10.5471 31.0449 10.7723C31.0449 10.7734 31.0438 10.7744 31.0438 10.7756L30.7841 11.5289L30.5933 12.0817H29.7668L29.8509 10.8963L29.9102 10.0558L30.2313 5.5297C30.2539 5.22042 30.5223 4.98763 30.8316 5.0092L31.9329 5.08682C32.1571 5.10295 32.3403 5.24845 32.4168 5.44457C32.4459 5.51995 32.4599 5.60179 32.4534 5.68692Z" fill="#FC933A"/>
<path d="M25.6547 12.0816H24.5588L24.368 11.5288L24.1083 10.7755C24.1083 10.7744 24.1072 10.7734 24.1072 10.7722C24.0889 10.7205 24.0652 10.672 24.035 10.6289C23.9208 10.4618 23.73 10.3573 23.522 10.3573H23.438V5.57596C23.438 5.44771 23.4919 5.33455 23.577 5.25374C23.6794 5.15671 23.8271 5.10824 23.979 5.14161L25.2981 5.43149C25.3692 5.44761 25.4338 5.47996 25.4867 5.52421C25.5858 5.60605 25.6473 5.73008 25.6483 5.86583L25.6537 10.8963L25.6547 12.0816Z" fill="#FFD23E"/>
<path d="M34.3953 5.78834L33.9825 8.91781L33.9459 9.19802L33.7831 10.4276C33.67 10.3824 33.545 10.3576 33.4124 10.3576H31.63C31.6053 10.3576 31.5816 10.3587 31.5579 10.3619L31.7152 9.1819L31.7734 8.74118L32.1668 5.78628C32.1872 5.63431 32.2842 5.50718 32.4168 5.44465C32.4642 5.42093 32.516 5.40696 32.5709 5.40153L33.9169 5.28724C34.2002 5.26353 34.433 5.50709 34.3953 5.78834Z" fill="#FFD23E"/>
<path d="M29.9479 10.8962L30.0018 12.0816H27.7949L27.8003 12.5007L27.782 12.0816L27.7303 10.8962L27.4975 5.591C27.491 5.44119 27.5589 5.30862 27.6656 5.2235C27.7604 5.14803 27.8865 5.11147 28.019 5.13406L29.3499 5.36572C29.5558 5.40125 29.7088 5.57478 29.7184 5.78384L29.9102 10.0556L29.9479 10.8962Z" fill="#FFD23E"/>
<path d="M34.3826 11.4824L32.889 21.3794C32.7619 22.2221 31.9568 22.858 31.0311 22.858H24.1213C23.1956 22.858 22.3906 22.2221 22.2635 21.3794L22.2085 21.0098L22.1989 20.9462L20.7699 11.4824C20.6794 10.8811 21.1288 10.3574 21.7398 10.3574H23.5221C23.7851 10.3574 24.02 10.5245 24.1073 10.7723C24.1073 10.7734 24.1085 10.7744 24.1085 10.7755L24.3681 11.5288L24.5589 12.0817H30.5937L30.7845 11.5288L31.0442 10.7755C31.0442 10.7744 31.0453 10.7734 31.0453 10.7723C31.1326 10.5244 31.3675 10.3574 31.6305 10.3574H33.4129C34.0237 10.3574 34.4731 10.8811 34.3826 11.4824Z" fill="#DB4646"/>
<path d="M32.4277 10.3574L31.043 19.5325C30.9158 20.3762 30.1098 21.012 29.184 21.012H22.2753C22.2472 20.9883 22.2268 20.97 22.1988 20.9463L20.7699 11.4824C20.6794 10.8811 21.1288 10.3574 21.7398 10.3574H23.5221C23.7851 10.3574 24.02 10.5245 24.1073 10.7723C24.1073 10.7734 24.1085 10.7744 24.1085 10.7755L24.3681 11.5288C24.4824 11.8597 24.7938 12.0817 25.144 12.0817H30.0085C30.3588 12.0817 30.6702 11.8597 30.7844 11.5288L31.0441 10.7755C31.0441 10.7744 31.0452 10.7734 31.0452 10.7723C31.1325 10.5244 31.3674 10.3574 31.6304 10.3574H32.4277Z" fill="#EE5351"/>
<path d="M24.2983 15.0005H30.9438C31.448 15.0005 31.8111 15.4841 31.6706 15.9684L31.3065 17.2226C31.2126 17.546 30.9164 17.7685 30.5796 17.7685H24.6625C24.3258 17.7685 24.0295 17.546 23.9357 17.2226L23.5716 15.9684C23.4308 15.4841 23.7941 15.0005 24.2983 15.0005Z" fill="#FEC110"/>
<path d="M40.7415 33.8098L37.2424 35.7528C35.9643 36.4629 34.3521 36.0017 33.642 34.7236C33.0321 33.6255 33.2853 32.2827 34.1776 31.4756C34.3241 31.342 34.4901 31.2224 34.6712 31.1222L38.1703 29.1792C38.5776 28.9529 39.0184 28.8462 39.4527 28.8462C40.3838 28.8462 41.2868 29.3376 41.7707 30.2094C41.9086 30.4583 42.0035 30.7203 42.0552 30.9853C42.2695 32.0812 41.7706 33.2375 40.7415 33.8098Z" fill="#F2AEA0"/>
<path d="M42.055 30.9853C41.9074 31.1189 41.7425 31.2385 41.5614 31.3387L38.0623 33.2817C36.7832 33.9908 35.171 33.5306 34.4609 32.2515C34.323 32.0026 34.2291 31.7406 34.1775 31.4756C34.324 31.342 34.4901 31.2224 34.6711 31.1222L38.1702 29.1792C38.5776 28.9529 39.0183 28.8462 39.4526 28.8462C40.3837 28.8462 41.2867 29.3376 41.7706 30.2094C41.9084 30.4583 42.0033 30.7202 42.055 30.9853Z" fill="#FFC5AB"/>
<path d="M40.7415 26.7243L37.2424 28.6673C35.9643 29.3775 34.3521 28.9162 33.642 27.6381C33.0321 26.54 33.2853 25.1972 34.1776 24.3901C34.3241 24.2566 34.4901 24.1369 34.6712 24.0367L38.1703 22.0937C38.5776 21.8674 39.0184 21.7607 39.4527 21.7607C40.3838 21.7607 41.2868 22.2522 41.7707 23.124C41.9086 23.3729 42.0035 23.6348 42.0552 23.8998C42.2695 24.9959 41.7706 26.1522 40.7415 26.7243Z" fill="#F2AEA0"/>
<path d="M42.055 23.8998C41.9074 24.0334 41.7425 24.1531 41.5614 24.2533L38.0623 26.1962C36.7832 26.9054 35.171 26.4451 34.4609 25.166C34.323 24.9171 34.2291 24.6552 34.1775 24.3901C34.324 24.2566 34.4901 24.1369 34.6711 24.0367L38.1702 22.0937C38.5776 21.8674 39.0183 21.7607 39.4526 21.7607C40.3837 21.7607 41.2867 22.2522 41.7706 23.124C41.9084 23.3729 42.0033 23.6348 42.055 23.8998Z" fill="#FFC5AB"/>
<path d="M40.7415 20.9052L37.2424 22.8482C35.9643 23.5584 34.3521 23.0971 33.642 21.819C33.0321 20.7209 33.2853 19.3782 34.1776 18.5711C34.3241 18.4375 34.4901 18.3178 34.6712 18.2176L38.1703 16.2747C38.5776 16.0483 39.0184 15.9417 39.4527 15.9417C40.3838 15.9417 41.2868 16.4331 41.7707 17.3049C41.9086 17.5538 42.0035 17.8157 42.0552 18.0807C42.2695 19.1767 41.7706 20.333 40.7415 20.9052Z" fill="#F2AEA0"/>
<path d="M42.055 18.0807C41.9074 18.2143 41.7425 18.334 41.5614 18.4342L38.0623 20.3772C36.7832 21.0863 35.171 20.6261 34.4609 19.3469C34.323 19.098 34.2291 18.8361 34.1775 18.5711C34.324 18.4375 34.4901 18.3178 34.6711 18.2176L38.1702 16.2747C38.5776 16.0483 39.0183 15.9417 39.4526 15.9417C40.3837 15.9417 41.2867 16.4331 41.7706 17.3049C41.9084 17.5538 42.0033 17.8156 42.055 18.0807Z" fill="#FFC5AB"/>
<path d="M36.9848 45.3683C41.7461 45.3683 45.6059 41.5086 45.6059 36.7473C45.6059 31.986 41.7461 28.1262 36.9848 28.1262C32.2236 28.1262 28.3638 31.986 28.3638 36.7473C28.3638 41.5086 32.2236 45.3683 36.9848 45.3683Z" fill="#09CC66"/>
<path d="M35.91 41.1032C35.8907 41.1032 35.8714 41.1027 35.852 41.1017C35.5555 41.0862 35.2773 40.9534 35.079 40.7324L31.6051 36.8615C31.1933 36.4025 31.2314 35.6966 31.6904 35.2847C32.1493 34.8729 32.8555 34.911 33.2672 35.3699L35.9923 38.4065L41.414 33.5012C41.8711 33.0876 42.5773 33.1227 42.9911 33.5802C43.4049 34.0375 43.3695 34.7435 42.9122 35.1573L36.6593 40.8148C36.4534 41.0008 36.1862 41.1032 35.91 41.1032Z" fill="white"/>
</svg>
