<svg width="28" height="29" viewBox="0 0 28 29" fill="none" xmlns="http://www.w3.org/2000/svg">
<g clip-path="url(#clip0_4117_2195)">
<path d="M21.4873 25.2951C21.5549 26.7967 22.7976 27.9974 24.3155 27.9974C25.8714 27.9974 27.1382 26.7356 27.1465 25.1816H21.9193C21.7802 25.2233 21.6357 25.2613 21.4873 25.2951Z" fill="black"/>
<path d="M23.2988 24.57H28C27.8748 23.0673 26.836 21.7658 25.4014 21.3107C25.1413 22.77 24.4367 23.8609 23.2988 24.57Z" fill="black"/>
<path d="M6.32749 27.9974C7.78271 27.9974 8.98623 26.892 9.14155 25.4768H3.51343C3.66874 26.892 4.87233 27.9974 6.32749 27.9974Z" fill="black"/>
<path d="M6.32745 21.1362C4.26897 21.1362 2.59357 22.808 2.58783 24.8653H10.067C10.0613 22.808 8.38592 21.1362 6.32745 21.1362Z" fill="black"/>
<path d="M24.5177 22.2005C26.0709 18.3482 22.4246 11.9465 22.3877 11.8798L20.6871 11.9539C21.0097 13.8837 21.1829 15.369 21.2005 16.8416C21.2428 20.8696 18.5412 22.9747 14.1352 22.4091C11.3132 22.0027 10.1536 20.3423 9.6032 18.4916H1.52502C1.01917 18.4916 0.607605 18.9032 0.607605 19.409V23.9477C0.607605 24.4536 1.01917 24.8651 1.52502 24.8651H1.97655C1.98236 22.4707 3.93177 20.5245 6.3275 20.5245C8.72324 20.5245 10.6726 22.4707 10.6785 24.8651H19.8438C21.7649 24.9012 23.8663 23.9926 24.5177 22.2005Z" fill="black"/>
<path d="M10.6246 17.549V16.2596C10.6246 16.091 10.4874 15.9537 10.3188 15.9537H0.305846C0.137248 15.9537 0 16.0909 0 16.2596V17.549C0 17.7176 0.137188 17.8549 0.305846 17.8549H10.3187C10.4874 17.8549 10.6246 17.7176 10.6246 17.549Z" fill="black"/>
<path d="M19.4326 10.5831C19.8384 10.4149 20.031 9.94967 19.8628 9.5439C19.6946 9.13814 19.2293 8.94555 18.8236 9.11374C18.4178 9.28193 18.2252 9.74721 18.3934 10.153C18.5616 10.5587 19.0269 10.7513 19.4326 10.5831Z" fill="black"/>
<path d="M1.53967 10.9348L4.51515 12.3223C4.53071 12.1809 4.55051 12.0362 4.57456 11.8892C4.62655 11.5712 4.72587 11.2607 4.86982 10.9666L7.26759 6.06826C7.48818 5.61757 7.80138 5.22796 8.1874 4.9202C8.1874 4.9202 4.77565 3.36178 4.64354 3.36178C4.29402 3.35932 3.95611 3.57202 3.8115 3.89198L1.09586 9.71568C0.878203 10.1582 1.08844 10.7356 1.53967 10.9348Z" fill="black"/>
<path d="M5.41912 11.2354C5.23904 11.5894 5.16545 11.9835 5.12572 12.3695C6.75134 12.3297 7.44918 11.3318 7.4569 11.3204C7.55167 11.1806 7.74181 11.1441 7.88163 11.2388C8.02145 11.3335 8.05806 11.5237 7.96329 11.6635C7.92369 11.722 7.05748 12.962 5.0848 12.9829C4.9874 14.4621 5.92312 15.4705 7.03559 15.3404H12.4271C12.5936 15.337 12.7394 15.4857 12.7329 15.652L12.6333 20.8546C12.6179 21.2439 12.9596 21.5919 13.3493 21.5835C13.6886 21.5835 13.9837 21.3426 14.0511 21.0107C14.6434 18.0938 14.6856 16.1354 14.6166 15.0062C14.5714 14.264 14.0013 13.6648 13.2613 13.5816L9.60614 13.1706C9.41325 13.154 9.28121 12.9379 9.3542 12.7586L10.7043 9.1861C10.3922 8.51177 10.202 7.80399 10.1369 7.06863C10.122 6.90039 10.2463 6.75189 10.4145 6.737C10.5825 6.7218 10.7312 6.84636 10.7461 7.0146C10.8082 7.71502 10.9972 8.38888 11.3086 9.03048C11.797 10.0051 12.53 11.1253 13.753 11.1162C14.9413 11.1421 16.9543 10.706 17.8697 10.4907C17.7375 10.2336 17.687 9.92977 17.7324 9.64104L13.848 9.54633C13.7116 9.54304 13.5939 9.44971 13.5595 9.31766C13.5533 9.29397 12.935 6.93587 12.3015 5.83549C11.2614 4.20156 8.56709 4.62695 7.81695 6.33692L5.41912 11.2354Z" fill="black"/>
<path d="M19.928 11.0055C20.1874 11.2158 20.5109 11.3318 20.8557 11.3318H22.2541V8.37543H20.8557C20.511 8.37543 20.1876 8.49132 19.9283 8.7015C20.7174 9.21106 20.7172 10.4961 19.928 11.0055Z" fill="black"/>
<path d="M23.7575 11.1069V10.1592H24.4262C24.5951 10.1592 24.732 10.0222 24.732 9.85332C24.732 9.68442 24.5951 9.54748 24.4262 9.54748H23.7575V8.60008C23.7575 8.47612 23.6567 8.37531 23.5328 8.37531H22.8657V11.3316H23.5328C23.6567 11.3318 23.7575 11.2309 23.7575 11.1069Z" fill="black"/>
<path d="M15.0819 5.29065C16.1992 4.73197 16.6521 3.37328 16.0935 2.25592C15.5348 1.13856 14.1761 0.685666 13.0587 1.24434C11.9414 1.80302 11.4885 3.16172 12.0472 4.27907C12.6058 5.39643 13.9645 5.84933 15.0819 5.29065Z" fill="black"/>
</g>
<defs>
<clipPath id="clip0_4117_2195">
<rect width="28" height="28" fill="white" transform="translate(0 0.5)"/>
</clipPath>
</defs>
</svg>
