<svg width="27" height="25" viewBox="0 0 27 25" fill="none" xmlns="http://www.w3.org/2000/svg">
<path d="M8.01562 10H18.9375L15.0938 2.6875C14.8125 2.125 15.0469 1.42188 15.5625 1.14062C16.125 0.859375 16.8281 1.09375 17.1094 1.60938L21.4688 10H25.5C26.2969 10 27 10.7031 27 11.5C27 12.3438 26.2969 13 25.5 13L23.0625 22.75C22.6875 24.0625 21.5156 25 20.1562 25H6.79688C5.4375 25 4.26562 24.0625 3.89062 22.75L1.5 13C0.65625 13 0 12.3438 0 11.5C0 10.7031 0.65625 10 1.5 10H5.48438L9.84375 1.60938C10.125 1.09375 10.8281 0.859375 11.3906 1.14062C11.9062 1.42188 12.1406 2.125 11.8594 2.6875L8.01562 10ZM8.95312 15.25C8.95312 14.875 8.625 14.5 8.20312 14.5C7.82812 14.5 7.45312 14.875 7.45312 15.25V19.75C7.45312 20.1719 7.82812 20.5 8.20312 20.5C8.625 20.5 8.95312 20.1719 8.95312 19.75V15.25ZM12.7031 15.25V19.75C12.7031 20.1719 13.0781 20.5 13.4531 20.5C13.875 20.5 14.25 20.1719 14.25 19.75V15.25C14.25 14.875 13.875 14.5 13.4531 14.5C13.0781 14.5 12.7031 14.875 12.7031 15.25ZM19.5 15.25C19.5 14.875 19.125 14.5 18.75 14.5C18.3281 14.5 18 14.875 18 15.25V19.75C18 20.1719 18.3281 20.5 18.75 20.5C19.125 20.5 19.5 20.1719 19.5 19.75V15.25Z" fill="#7C7C7C"/>
</svg>
