<svg width="31" height="24" viewBox="0 0 31 24" fill="none" xmlns="http://www.w3.org/2000/svg">
<path d="M17.75 0C18.9688 0 20 1.03125 20 2.25V4.5H22.3438C23.1406 4.5 23.8906 4.82812 24.5 5.39062L28.1094 9C28.6719 9.5625 29 10.3594 29 11.1562V16.5C29.7969 16.5 30.5 17.2031 30.5 18C30.5 18.8438 29.7969 19.5 29 19.5H27.5C27.5 21.9844 25.4844 24 23 24C20.4688 24 18.5 21.9844 18.5 19.5H12.5C12.5 21.9844 10.4844 24 8 24C5.46875 24 3.5 21.9844 3.5 19.5H2.75C1.48438 19.5 0.5 18.5156 0.5 17.25V2.25C0.5 1.03125 1.48438 0 2.75 0H17.75ZM20 7.5V12H26V11.1562L22.3438 7.5H20ZM8 17.25C6.73438 17.25 5.75 18.2812 5.75 19.5C5.75 20.7656 6.73438 21.75 8 21.75C9.21875 21.75 10.25 20.7656 10.25 19.5C10.25 18.2812 9.21875 17.25 8 17.25ZM23 21.75C24.2188 21.75 25.25 20.7656 25.25 19.5C25.25 18.2812 24.2188 17.25 23 17.25C21.7344 17.25 20.75 18.2812 20.75 19.5C20.75 20.7656 21.7344 21.75 23 21.75Z" fill="#7C7C7C"/>
</svg>
