<svg width="21" height="20" viewBox="0 0 21 20" fill="none" xmlns="http://www.w3.org/2000/svg">
<path d="M10.5 16.875C6.70833 16.875 3.625 13.7917 3.625 10C3.625 6.20833 6.70833 3.125 10.5 3.125C14.2917 3.125 17.375 6.20833 17.375 10C17.375 13.7917 14.2917 16.875 10.5 16.875ZM10.5 4.375C7.4 4.375 4.875 6.9 4.875 10C4.875 13.1 7.4 15.625 10.5 15.625C13.6 15.625 16.125 13.1 16.125 10C16.125 6.9 13.6 4.375 10.5 4.375Z" fill="#186ADE"/>
<path d="M10.5 13.125C8.775 13.125 7.375 11.725 7.375 10C7.375 8.275 8.775 6.875 10.5 6.875C12.225 6.875 13.625 8.275 13.625 10C13.625 11.725 12.225 13.125 10.5 13.125ZM10.5 8.125C9.46667 8.125 8.625 8.96667 8.625 10C8.625 11.0333 9.46667 11.875 10.5 11.875C11.5333 11.875 12.375 11.0333 12.375 10C12.375 8.96667 11.5333 8.125 10.5 8.125Z" fill="#186ADE"/>
<path d="M10.5 3.95817C10.1583 3.95817 9.875 3.67484 9.875 3.33317V1.6665C9.875 1.32484 10.1583 1.0415 10.5 1.0415C10.8417 1.0415 11.125 1.32484 11.125 1.6665V3.33317C11.125 3.67484 10.8417 3.95817 10.5 3.95817Z" fill="#186ADE"/>
<path d="M3.83333 10.625H2.16666C1.825 10.625 1.54166 10.3417 1.54166 10C1.54166 9.65833 1.825 9.375 2.16666 9.375H3.83333C4.175 9.375 4.45833 9.65833 4.45833 10C4.45833 10.3417 4.175 10.625 3.83333 10.625Z" fill="#186ADE"/>
<path d="M10.5 18.9582C10.1583 18.9582 9.875 18.6748 9.875 18.3332V16.6665C9.875 16.3248 10.1583 16.0415 10.5 16.0415C10.8417 16.0415 11.125 16.3248 11.125 16.6665V18.3332C11.125 18.6748 10.8417 18.9582 10.5 18.9582Z" fill="#186ADE"/>
<path d="M18.8333 10.625H17.1667C16.825 10.625 16.5417 10.3417 16.5417 10C16.5417 9.65833 16.825 9.375 17.1667 9.375H18.8333C19.175 9.375 19.4583 9.65833 19.4583 10C19.4583 10.3417 19.175 10.625 18.8333 10.625Z" fill="#186ADE"/>
</svg>
