<svg width="20" height="20" viewBox="0 0 20 20" fill="none" xmlns="http://www.w3.org/2000/svg">
<path opacity="0.4" d="M17.1833 7.04183C16.3083 3.19183 12.95 1.4585 10 1.4585C10 1.4585 10 1.4585 9.99167 1.4585C7.05 1.4585 3.68333 3.1835 2.80833 7.0335C1.83333 11.3335 4.46667 14.9752 6.85 17.2668C7.73333 18.1168 8.86667 18.5418 10 18.5418C11.1333 18.5418 12.2667 18.1168 13.1417 17.2668C15.525 14.9752 18.1583 11.3418 17.1833 7.04183Z" fill="#419F7D"/>
<path d="M10 11.2168C11.4497 11.2168 12.625 10.0415 12.625 8.5918C12.625 7.14205 11.4497 5.9668 10 5.9668C8.55025 5.9668 7.375 7.14205 7.375 8.5918C7.375 10.0415 8.55025 11.2168 10 11.2168Z" fill="#419F7D"/>
</svg>
