<svg width="27" height="18" viewBox="0 0 27 18" fill="none" xmlns="http://www.w3.org/2000/svg">
<path d="M6 4.5H21V13.5H6V4.5ZM24 0C25.6406 0 27 1.35938 27 3V6.75C25.7344 6.75 24.75 7.78125 24.75 9C24.75 10.2656 25.7344 11.25 27 11.25V15C27 16.6875 25.6406 18 24 18H3C1.3125 18 0 16.6875 0 15V11.25C1.21875 11.25 2.25 10.2656 2.25 9C2.25 7.78125 1.21875 6.75 0 6.75V3C0 1.35938 1.3125 0 3 0H24ZM4.5 13.5C4.5 14.3438 5.15625 15 6 15H21C21.7969 15 22.5 14.3438 22.5 13.5V4.5C22.5 3.70312 21.7969 3 21 3H6C5.15625 3 4.5 3.70312 4.5 4.5V13.5Z" fill="#7C7C7C"/>
</svg>
