<svg width="25" height="24" viewBox="0 0 25 24" fill="none" xmlns="http://www.w3.org/2000/svg">
<path opacity="0.4" d="M9.06 3.33984V17.6698C8.72 17.6798 8.38 17.7598 8.13 17.9098L5.78 19.2498C4.14 20.1898 2.79 19.4098 2.79 17.5098V7.77984C2.79 7.14984 3.24 6.36984 3.8 6.04984L8.13 3.56984C8.38 3.42984 8.72 3.34984 9.06 3.33984Z" fill="#389E0D"/>
<path d="M16.23 6.32994V20.6599C15.88 20.6699 15.54 20.6099 15.27 20.4799L10.02 17.8499C9.75 17.7199 9.41 17.6599 9.06 17.6699V3.33994C9.41 3.32994 9.75 3.38994 10.02 3.51994L15.27 6.14994C15.54 6.27994 15.88 6.33994 16.23 6.32994Z" fill="#389E0D"/>
<path opacity="0.4" d="M22.5 6.49006V16.2201C22.5 16.8501 22.05 17.6301 21.49 17.9501L17.16 20.4301C16.91 20.5701 16.57 20.6501 16.23 20.6601V6.33006C16.57 6.32006 16.91 6.24006 17.16 6.09006L19.51 4.75006C21.15 3.81006 22.5 4.59006 22.5 6.49006Z" fill="#389E0D"/>
</svg>
