<svg width="31" height="22" viewBox="0 0 31 22" fill="none" xmlns="http://www.w3.org/2000/svg">
<path d="M9.125 3.125C9.125 4.57812 7.90625 5.75 6.5 5.75C5.04688 5.75 3.875 4.57812 3.875 3.125C3.875 1.71875 5.04688 0.5 6.5 0.5C7.90625 0.5 9.125 1.71875 9.125 3.125ZM10.25 8.23438C8.84375 9.45312 8 11.2812 8 13.25C8 14.8906 8.51562 16.3438 9.5 17.5156V18.5C9.5 19.3438 8.79688 20 8 20H5C4.15625 20 3.5 19.3438 3.5 18.5V17.2812C1.71875 16.4375 0.5 14.6094 0.5 12.5C0.5 9.64062 2.84375 7.25 5.75 7.25H7.25C8.32812 7.25 9.40625 7.625 10.25 8.23438ZM3.5 10.5312C3.03125 11.0469 2.75 11.75 2.75 12.5C2.75 13.2969 3.03125 14 3.5 14.5156V10.5312ZM21.5 18.5V17.5156C22.4375 16.3438 23 14.8906 23 13.25C23 11.2812 22.1094 9.45312 20.7031 8.23438C21.5469 7.625 22.625 7.25 23.75 7.25H25.25C28.1094 7.25 30.5 9.64062 30.5 12.5C30.5 14.6094 29.2344 16.4375 27.5 17.2812V18.5C27.5 19.3438 26.7969 20 26 20H23C22.1562 20 21.5 19.3438 21.5 18.5ZM27.5 14.5156C27.9219 14 28.25 13.2969 28.25 12.5C28.25 11.75 27.9219 11.0469 27.5 10.5312V14.5156ZM27.125 3.125C27.125 4.57812 25.9062 5.75 24.5 5.75C23.0469 5.75 21.875 4.57812 21.875 3.125C21.875 1.71875 23.0469 0.5 24.5 0.5C25.9062 0.5 27.125 1.71875 27.125 3.125ZM12.5 3.5C12.5 1.85938 13.8125 0.5 15.5 0.5C17.1406 0.5 18.5 1.85938 18.5 3.5C18.5 5.1875 17.1406 6.5 15.5 6.5C13.8125 6.5 12.5 5.1875 12.5 3.5ZM21.5 13.25C21.5 15.3594 20.2344 17.1875 18.5 18.0312V20C18.5 20.8438 17.7969 21.5 17 21.5H14C13.1562 21.5 12.5 20.8438 12.5 20V18.0312C10.7188 17.1875 9.5 15.3594 9.5 13.25C9.5 10.3906 11.8438 8 14.75 8H16.25C19.1094 8 21.5 10.3906 21.5 13.25ZM12.5 15.2656V11.2812C12.0312 11.7969 11.75 12.5 11.75 13.25C11.75 14.0469 12.0312 14.75 12.5 15.2656ZM18.5 11.2812V15.2656C18.9219 14.7031 19.25 14.0469 19.25 13.25C19.25 12.5 18.9219 11.7969 18.5 11.2812Z" fill="#7C7C7C"/>
</svg>
