<svg width="20" height="17" viewBox="0 0 20 17" fill="none" xmlns="http://www.w3.org/2000/svg">
<path d="M15.5 7.5C17.9688 7.5 20 9.53125 20 12C20 14.5 17.9688 16.5 15.5 16.5C13 16.5 11 14.5 11 12C11 9.53125 13 7.5 15.5 7.5ZM17.5 12.2188V11.8125C17.5 11.6562 17.3438 11.5 17.1875 11.5H16V9.8125C16 9.65625 15.8438 9.53125 15.6875 9.53125H15.2812C15.125 9.53125 15 9.65625 15 9.8125V12.2188C15 12.375 15.125 12.5 15.2812 12.5H17.1875C17.3438 12.5 17.5 12.375 17.5 12.2188ZM15.5 6.5C14.3125 6.5 13.2188 6.875 12.3438 7.5H0V5C0 4.21875 0.6875 3.5 1.5 3.5H4V2C4 1.21875 4.6875 0.5 5.5 0.5H10.5C11.2812 0.5 12 1.21875 12 2V3.5H14.5C15.2812 3.5 16 4.21875 16 5V6.53125C15.8125 6.53125 15.6562 6.5 15.5 6.5ZM10 3.5V2.5H6V3.5H10ZM10.1875 10.5C10.0625 11 10 11.5 10 12C10 12.9062 10.2188 13.75 10.5938 14.5H1.5C0.6875 14.5 0 13.8125 0 13V8.5H6V10C6 10.2812 6.21875 10.5 6.5 10.5H10.1875Z" fill="#7C7C7C"/>
</svg>
