<svg width="25" height="22" viewBox="0 0 25 22" fill="none" xmlns="http://www.w3.org/2000/svg">
<path d="M12.5 0.5C19.1094 0.5 24.4531 4.90625 24.4531 10.25C24.4531 15.5938 19.1562 20 12.5 20C10.7188 20 9.03125 19.625 7.48438 19.0625C6.26562 20 4.01562 21.5 0.875 21.5C0.734375 21.5 0.59375 21.4062 0.546875 21.2656C0.5 21.125 0.5 20.9375 0.640625 20.8438C0.640625 20.8438 2.60938 18.7344 3.17188 16.3438C1.53125 14.7031 0.5 12.5469 0.5 10.25C0.5 4.85938 5.84375 0.5 12.5 0.5ZM6.45312 11.75C7.29688 11.75 7.95312 11.0938 7.95312 10.25C7.95312 9.45312 7.25 8.75 6.45312 8.75C5.60938 8.75 4.95312 9.5 4.95312 10.25C4.95312 11.0469 5.60938 11.75 6.45312 11.75ZM12.5 11.75C13.2969 11.75 13.9531 11.0938 13.9531 10.25C13.9531 9.45312 13.25 8.75 12.5 8.75C11.7031 8.75 11 9.5 11 10.25C11 11.0469 11.6562 11.75 12.5 11.75ZM18.4531 11.75C19.2969 11.75 19.9531 11.0938 19.9531 10.25C19.9531 9.45312 19.25 8.75 18.4531 8.75C17.6094 8.75 16.9531 9.5 16.9531 10.25C16.9531 11.0469 17.6094 11.75 18.4531 11.75Z" fill="#7C7C7C"/>
</svg>
