<svg width="24" height="25" viewBox="0 0 24 25" fill="none" xmlns="http://www.w3.org/2000/svg">
<path d="M12 20C6.60938 20 2.25 15.6406 2.25 10.25C2.25 4.90625 6.60938 0.5 12 0.5C17.3438 0.5 21.75 4.90625 21.75 10.25C21.75 15.6406 17.3438 20 12 20ZM10.9219 5.09375C9.42188 5.14062 8.15625 6.40625 8.15625 8C8.15625 9.3125 9 10.4844 10.2188 10.8125L13.125 11.7031C13.4531 11.7969 13.6875 12.125 13.6875 12.5469C13.6875 13.0156 13.3594 13.3906 12.9375 13.3906H11.1094C10.8281 13.3906 10.5469 13.2969 10.2656 13.1562C10.0781 13.0156 9.79688 13.0156 9.60938 13.2031L8.85938 13.9062C8.625 14.1406 8.67188 14.5156 8.90625 14.7031C9.51562 15.1719 10.2188 15.4062 10.9219 15.4531V16.25C10.9219 16.6719 11.2969 17 11.7188 17H12.2344C12.6562 17 13.0312 16.6719 13.0312 16.25V15.4531C14.5312 15.4062 15.7969 14.1406 15.7969 12.5469C15.7969 11.2344 14.9531 10.0625 13.7344 9.73438L10.8281 8.84375C10.5 8.75 10.2656 8.375 10.2656 8C10.2656 7.53125 10.5938 7.15625 11.0156 7.15625H12.8438C13.125 7.15625 13.4062 7.25 13.6875 7.39062C13.875 7.53125 14.1562 7.53125 14.3438 7.34375L15.0938 6.64062C15.3281 6.40625 15.2812 6.03125 15.0469 5.79688C14.4375 5.375 13.7344 5.14062 13.0312 5.09375V4.29688C13.0312 3.875 12.6562 3.5 12.2344 3.5H11.7188C11.2969 3.5 10.9219 3.875 10.9219 4.29688V5.09375ZM22.5 17C23.2969 17 24 17.7031 24 18.5V23C24 23.8438 23.2969 24.5 22.5 24.5H1.5C0.65625 24.5 0 23.8438 0 23V18.5C0 17.7031 0.65625 17 1.5 17H3C3.9375 18.2188 5.10938 19.25 6.42188 20H3.42188C3.1875 20 3 20.1875 3 20.375V21.125C3 21.3594 3.1875 21.5 3.42188 21.5H20.5312C20.7656 21.5 20.9531 21.3594 20.9531 21.125V20.375C20.9531 20.1875 20.7656 20 20.5312 20H17.5312C18.8438 19.25 20.0156 18.2188 20.9531 17H22.5Z" fill="#7C7C7C"/>
</svg>
