<svg width="20" height="21" viewBox="0 0 20 21" fill="none" xmlns="http://www.w3.org/2000/svg">
<path d="M20 10.5C20 16.0469 15.5078 20.5 10 20.5C4.45312 20.5 0 16.0469 0 10.5C0 4.99219 4.45312 0.5 10 0.5C15.5078 0.5 20 4.99219 20 10.5ZM15.8984 13.4688C16.0938 13 15.625 12.5703 15.1562 12.7266C13.5938 13.1953 11.8359 13.4688 10 13.4688C8.125 13.4688 6.40625 13.1953 4.84375 12.7266C4.375 12.5703 3.90625 13 4.10156 13.4688C5.07812 15.7734 7.34375 17.375 10 17.375C12.6562 17.375 14.9219 15.7734 15.8984 13.4688ZM5.9375 5.38281L5.3125 6.75L3.82812 6.94531C3.71094 6.94531 3.59375 7.02344 3.55469 7.14062C3.51562 7.25781 3.55469 7.375 3.63281 7.45312L4.72656 8.50781L4.45312 9.99219C4.41406 10.1094 4.49219 10.2266 4.57031 10.3047C4.6875 10.3828 4.80469 10.3828 4.92188 10.3047L6.21094 9.60156L7.53906 10.3047C7.65625 10.3828 7.77344 10.3828 7.89062 10.3047C7.96875 10.2266 8.04688 10.1094 8.00781 9.99219L7.73438 8.50781L8.82812 7.45312C8.90625 7.375 8.94531 7.25781 8.90625 7.14062C8.86719 7.02344 8.75 6.94531 8.63281 6.94531L7.14844 6.75L6.52344 5.38281C6.44531 5.26562 6.36719 5.1875 6.21094 5.1875C6.09375 5.1875 6.01562 5.26562 5.9375 5.38281ZM13.4375 5.38281L12.8125 6.75L11.3281 6.94531C11.2109 6.94531 11.0938 7.02344 11.0547 7.14062C11.0156 7.25781 11.0547 7.375 11.1328 7.45312L12.2266 8.50781L11.9531 9.99219C11.9141 10.1094 11.9922 10.2266 12.0703 10.3047C12.1875 10.3828 12.3047 10.3828 12.4219 10.3047L13.75 9.60156L15.0391 10.3047C15.1562 10.3828 15.2734 10.3828 15.3906 10.3047C15.4688 10.2266 15.5469 10.1094 15.5078 9.99219L15.2344 8.50781L16.3281 7.45312C16.4062 7.375 16.4453 7.25781 16.4062 7.14062C16.3672 7.02344 16.25 6.94531 16.1328 6.94531L14.6484 6.75L14.0234 5.38281C13.9453 5.26562 13.8672 5.1875 13.75 5.1875C13.5938 5.1875 13.5156 5.26562 13.4375 5.38281Z" fill="#13BF6D"/>
</svg>
