<svg width="31" height="24" viewBox="0 0 31 24" fill="none" xmlns="http://www.w3.org/2000/svg">
<path d="M0.5 7.3125C0.5 6.9375 0.59375 6.60938 0.78125 6.32812L4.29688 1.03125C4.71875 0.421875 5.42188 0 6.17188 0H24.7812C25.5312 0 26.2344 0.421875 26.6562 1.03125L30.1719 6.32812C30.3594 6.60938 30.5 6.9375 30.5 7.3125C30.5 8.25 29.7031 9 28.7656 9H2.1875C1.25 9 0.5 8.25 0.5 7.3125ZM3.5 10.5H6.5V18H15.5V10.5H18.5V21.75C18.5 23.0156 17.4688 24 16.25 24H5.75C4.48438 24 3.5 23.0156 3.5 21.75V10.5ZM24.5 10.5H27.5V22.5C27.5 23.3438 26.7969 24 26 24C25.1562 24 24.5 23.3438 24.5 22.5V10.5Z" fill="#7C7C7C"/>
</svg>
