<svg width="21" height="22" viewBox="0 0 21 22" fill="none" xmlns="http://www.w3.org/2000/svg">
<path d="M7.5 2.75C7.5 1.53125 8.48438 0.5 9.75 0.5H11.25C12.4688 0.5 13.5 1.53125 13.5 2.75V19.25C13.5 20.5156 12.4688 21.5 11.25 21.5H9.75C8.48438 21.5 7.5 20.5156 7.5 19.25V2.75ZM0 11.75C0 10.5312 0.984375 9.5 2.25 9.5H3.75C4.96875 9.5 6 10.5312 6 11.75V19.25C6 20.5156 4.96875 21.5 3.75 21.5H2.25C0.984375 21.5 0 20.5156 0 19.25V11.75ZM18.75 3.5C19.9688 3.5 21 4.53125 21 5.75V19.25C21 20.5156 19.9688 21.5 18.75 21.5H17.25C15.9844 21.5 15 20.5156 15 19.25V5.75C15 4.53125 15.9844 3.5 17.25 3.5H18.75Z" fill="#7C7C7C"/>
</svg>
