<svg width="20" height="17" viewBox="0 0 20 17" fill="none" xmlns="http://www.w3.org/2000/svg">
<path d="M16.5 14.5C16.75 14.5 17 14.75 17 15V16C17 16.2812 16.75 16.5 16.5 16.5H3.5C3.21875 16.5 3 16.2812 3 16V15C3 14.75 3.21875 14.5 3.5 14.5H16.5ZM18.5 4.5C19.3125 4.5 20 5.1875 20 6C20 6.84375 19.3125 7.5 18.5 7.5C18.4062 7.5 18.3125 7.5 18.25 7.5L16 13.5H4L1.71875 7.5C1.65625 7.5 1.5625 7.5 1.5 7.5C0.65625 7.5 0 6.84375 0 6C0 5.1875 0.65625 4.5 1.5 4.5C2.3125 4.5 3 5.1875 3 6C3 6.25 2.9375 6.4375 2.84375 6.625L5.125 8C5.59375 8.28125 6.21875 8.125 6.5 7.625L9.03125 3.15625C8.71875 2.90625 8.5 2.46875 8.5 2C8.5 1.1875 9.15625 0.5 10 0.5C10.8125 0.5 11.5 1.1875 11.5 2C11.5 2.46875 11.2812 2.90625 10.9375 3.15625L13.4688 7.625C13.75 8.125 14.375 8.28125 14.875 8L17.125 6.625C17.0312 6.4375 17 6.25 17 6C17 5.1875 17.6562 4.5 18.5 4.5Z" fill="#7C7C7C"/>
</svg>
