<svg width="24" height="20" viewBox="0 0 24 20" fill="none" xmlns="http://www.w3.org/2000/svg">
<path d="M20.3359 8.75C20.1797 8.75 20.0234 8.75 19.8672 8.75C18.8516 8.75 17.9531 8.32031 17.3281 7.61719C16.7031 8.32031 15.8047 8.75 14.7891 8.75C13.7734 8.75 12.8359 8.32031 12.2109 7.61719C11.625 8.32031 10.6875 8.75 9.67188 8.75C8.65625 8.75 7.75781 8.32031 7.13281 7.61719C6.50781 8.32031 5.60938 8.75 4.59375 8.75C4.4375 8.75 4.28125 8.75 4.125 8.75C1.9375 8.4375 0.921875 5.89844 2.09375 4.0625L4.32031 0.546875C4.51562 0.195312 4.86719 0 5.25781 0H19.2031C19.5938 0 19.9453 0.195312 20.1406 0.546875L22.3672 4.0625C23.5391 5.89844 22.5234 8.4375 20.3359 8.75ZM20.4922 9.96094C20.6484 9.96094 20.8438 9.92188 21 9.88281V17.5C21 18.9062 19.8672 20 18.5 20H6C4.59375 20 3.5 18.9062 3.5 17.5V9.88281C3.61719 9.92188 3.77344 9.96094 3.92969 9.96094H3.96875C4.16406 10 4.35938 10 4.59375 10C5.0625 10 5.53125 9.96094 6 9.80469V15H18.5V9.80469C18.9297 9.96094 19.3984 10 19.8672 10C20.1016 10 20.2969 10 20.4922 9.96094Z" fill="#43464A"/>
</svg>
