<svg width="25" height="22" viewBox="0 0 25 22" fill="none" xmlns="http://www.w3.org/2000/svg">
<path d="M3.5 17.75C3.5 18.1719 3.82812 18.5 4.25 18.5H23C23.7969 18.5 24.5 19.2031 24.5 20C24.5 20.8438 23.7969 21.5 23 21.5H4.25C2.14062 21.5 0.5 19.8594 0.5 17.75V2C0.5 1.20312 1.15625 0.5 2 0.5C2.79688 0.5 3.5 1.20312 3.5 2V17.75ZM16.5312 12.0781C15.9688 12.6875 14.9844 12.6875 14.4219 12.0781L11.75 9.40625L7.53125 13.5781C6.96875 14.1875 5.98438 14.1875 5.42188 13.5781C4.8125 13.0156 4.8125 12.0312 5.42188 11.4688L10.6719 6.21875C11.2344 5.60938 12.2188 5.60938 12.7812 6.21875L15.5 8.89062L20.4219 3.96875C20.9844 3.35938 21.9688 3.35938 22.5312 3.96875C23.1406 4.53125 23.1406 5.51562 22.5312 6.07812L16.5312 12.0781Z" fill="#7C7C7C"/>
</svg>
