<svg width="19" height="24" viewBox="0 0 19 24" fill="none" xmlns="http://www.w3.org/2000/svg">
<path d="M16.25 3C17.4688 3 18.5 4.03125 18.5 5.25V21.75C18.5 23.0156 17.4688 24 16.25 24H2.75C1.48438 24 0.5 23.0156 0.5 21.75V5.25C0.5 4.03125 1.48438 3 2.75 3H5.23438C5.89062 1.26562 7.53125 0 9.5 0C11.4219 0 13.0625 1.26562 13.7188 3H16.25ZM5 18.375C5.60938 18.375 6.125 17.9062 6.125 17.25C6.125 16.6406 5.60938 16.125 5 16.125C4.34375 16.125 3.875 16.6406 3.875 17.25C3.875 17.9062 4.34375 18.375 5 18.375ZM5 13.875C5.60938 13.875 6.125 13.4062 6.125 12.75C6.125 12.1406 5.60938 11.625 5 11.625C4.34375 11.625 3.875 12.1406 3.875 12.75C3.875 13.4062 4.34375 13.875 5 13.875ZM9.5 3C8.65625 3 8 3.70312 8 4.5C8 5.34375 8.65625 6 9.5 6C10.2969 6 11 5.34375 11 4.5C11 3.70312 10.2969 3 9.5 3ZM14.75 18C15.125 18 15.5 17.6719 15.5 17.25C15.5 16.875 15.125 16.5 14.75 16.5H8.75C8.32812 16.5 8 16.875 8 17.25C8 17.6719 8.32812 18 8.75 18H14.75ZM14.75 13.5C15.125 13.5 15.5 13.1719 15.5 12.75C15.5 12.375 15.125 12 14.75 12H8.75C8.32812 12 8 12.375 8 12.75C8 13.1719 8.32812 13.5 8.75 13.5H14.75Z" fill="#7C7C7C"/>
</svg>
