<svg width="16" height="17" viewBox="0 0 16 17" fill="none" xmlns="http://www.w3.org/2000/svg">
<path d="M8 0.75C12.2812 0.75 15.75 4.21875 15.75 8.5C15.75 12.7812 12.2812 16.25 8 16.25C3.71875 16.25 0.25 12.7812 0.25 8.5C0.25 4.21875 3.71875 0.75 8 0.75ZM10.875 10.5312C10.9375 10.4688 11 10.3438 11 10.2188C11 10.0625 10.9062 9.9375 10.8125 9.84375L9 8.5V4C9 3.75 8.75 3.5 8.5 3.5H7.5C7.21875 3.5 7 3.75 7 4V8.875C7 9.28125 7.15625 9.625 7.46875 9.84375L9.5625 11.4062C9.625 11.4688 9.75 11.5312 9.84375 11.5312C10.0312 11.5312 10.1562 11.4375 10.25 11.3125L10.875 10.5312Z" fill="#7C7C7C"/>
</svg>
